<svg version="1.1" id="Layer_1" xmlns="http://www.w3.org/2000/svg" xmlns:xlink="http://www.w3.org/1999/xlink" x="0px" y="0px"
	 width="100%" viewBox="0 0 945 195" enable-background="new 0 0 945 195" xml:space="preserve">
<path fill="#010102" opacity="1.000000" stroke="none" 
	d="
M699.000000,196.000000 
	C466.000000,196.000000 233.500000,196.000000 1.000000,196.000000 
	C1.000000,131.000000 1.000000,66.000000 1.000000,1.000000 
	C316.000000,1.000000 631.000000,1.000000 946.000000,1.000000 
	C946.000000,66.000000 946.000000,131.000000 946.000000,196.000000 
	C863.833313,196.000000 781.666687,196.000000 699.000000,196.000000 
M383.163025,146.212738 
	C382.800201,145.896622 382.437378,145.580505 382.184113,145.129593 
	C382.184113,145.129593 382.053864,145.014664 381.864655,144.260406 
	C379.796753,143.297180 377.728821,142.333954 375.130493,141.123672 
	C375.130493,151.945999 375.130493,161.314285 375.130493,170.797363 
	C377.163452,170.797363 378.905945,170.797363 380.933624,170.797363 
	C380.933624,166.651535 380.933624,162.721069 381.138824,157.907379 
	C381.597565,154.322952 382.922668,156.130188 383.956177,157.521210 
	C387.020477,161.645630 390.001709,165.831787 393.391357,170.741623 
	C395.135925,170.825134 396.880463,170.908646 398.695892,170.995560 
	C398.695892,161.077393 398.695892,151.658630 398.695892,142.045792 
	C396.577209,142.045792 394.759796,142.015915 392.951294,142.128906 
	C392.855011,142.134918 392.834076,143.346451 392.518646,144.769760 
	C392.518646,148.852493 392.518646,152.935242 392.518646,157.017975 
	C392.039886,157.072678 391.561157,157.127380 391.082397,157.182083 
	C388.686615,153.939835 386.290863,150.697586 383.696381,146.967834 
	C383.547241,146.875397 383.398071,146.782944 383.182465,146.864441 
	C383.182465,146.864441 383.358887,146.924026 383.163025,146.212738 
M586.702393,143.206467 
	C586.574585,143.528564 586.644043,143.792725 587.001404,144.932556 
	C587.001404,153.494949 587.001404,162.057343 587.001404,171.988892 
	C589.809509,170.796234 591.749878,169.972137 594.167236,168.601471 
	C594.326050,160.495529 594.527344,152.389801 594.571533,144.283234 
	C594.575500,143.549469 593.567566,142.810165 592.943542,142.098602 
	C592.943542,142.098602 592.914856,142.013763 592.797791,141.738800 
	C592.495056,141.563187 592.235962,141.610443 591.345154,141.963211 
	C590.893372,141.937531 590.441528,141.911835 589.492004,141.597321 
	C588.649414,142.017685 587.806824,142.438049 587.025635,142.951279 
	C587.025635,142.951279 586.943420,143.026337 586.702393,143.206467 
M309.977356,142.026428 
	C309.977356,142.026428 309.841248,142.176453 309.696716,141.550003 
	C307.804474,141.702133 305.912201,141.854263 303.875061,142.933105 
	C303.875061,152.184082 303.875061,161.435043 303.875061,171.555542 
	C306.319458,170.855530 308.136322,170.335220 310.156586,169.056595 
	C310.156586,164.867279 310.156586,160.677948 310.156586,156.488632 
	C310.663177,156.340607 311.169800,156.192581 311.676392,156.044556 
	C314.404938,159.847672 317.337158,163.524612 319.796844,167.494308 
	C321.723480,170.603638 323.959229,171.980042 328.183746,170.477188 
	C328.183746,162.149307 328.183746,153.571594 328.368927,144.776886 
	C328.482056,144.484039 328.424072,144.227615 327.984619,143.199081 
	C325.923706,142.705872 323.862793,142.212646 321.547333,141.658508 
	C321.360596,145.171021 321.232147,147.587097 320.257233,150.010727 
	C318.567719,149.996155 316.878204,149.981583 314.901703,149.700821 
	C314.901703,149.700821 314.831818,149.315674 315.158722,148.865952 
	C316.796448,145.600357 313.874542,146.652588 312.232880,145.929077 
	C312.018890,145.718155 311.917542,145.462570 311.922943,144.463928 
	C311.223511,143.695770 310.524078,142.927612 309.977356,142.026428 
M401.214233,103.479256 
	C401.790771,103.992210 402.367340,104.505165 403.243042,105.547211 
	C403.818207,106.380585 404.393341,107.213951 405.012787,108.757469 
	C406.375671,110.490799 407.738556,112.224129 409.244141,114.265701 
	C409.244141,114.265701 409.296051,114.601387 409.198364,115.383568 
	C410.248932,116.515190 411.299500,117.646812 412.839508,119.085045 
	C413.269745,119.709373 413.700012,120.333702 413.774323,121.420326 
	C414.862122,122.607536 415.949951,123.794754 417.452332,125.408722 
	C417.986908,126.243675 418.521484,127.078629 419.068024,128.612625 
	C419.779297,129.368866 420.490570,130.125107 422.042419,130.947601 
	C424.009796,131.041672 425.977203,131.135742 428.258911,131.795410 
	C429.848999,131.585907 431.439117,131.376404 433.577515,131.088715 
	C433.761139,131.069641 433.944794,131.050568 434.683777,130.849350 
	C434.499603,129.890350 434.315460,128.931335 433.962311,127.619415 
	C433.962311,127.619415 433.845337,127.245995 433.767120,126.608856 
	C433.176575,126.073196 432.586029,125.537537 431.672882,124.580536 
	C431.402405,124.124641 431.131927,123.668739 430.879333,122.466873 
	C429.587006,120.973572 428.294678,119.480278 426.852448,117.679291 
	C426.852448,117.679291 426.782166,117.344322 426.731689,116.682259 
	C426.121552,116.139694 425.511383,115.597137 424.508148,114.705994 
	C424.267029,114.246002 424.025909,113.786011 423.743073,112.675301 
	C423.160522,112.118774 422.578003,111.562248 421.593475,110.553558 
	C421.049652,109.723404 420.505798,108.893242 419.946198,107.322235 
	C419.524902,103.415222 414.413239,100.725777 417.510681,95.712807 
	C418.231354,95.405144 418.952057,95.097481 420.325531,94.747261 
	C420.889343,94.173134 421.453156,93.599007 422.355316,92.492683 
	C423.554016,91.320480 424.752716,90.148270 426.634064,88.842674 
	C427.705353,87.151756 428.776642,85.460838 429.949799,83.112160 
	C430.376099,82.097862 430.802368,81.083565 431.673859,79.904564 
	C431.786194,79.270233 431.898499,78.635902 432.114929,77.355133 
	C432.231384,76.934723 432.347809,76.514313 432.918762,75.816437 
	C432.949371,74.877884 432.979980,73.939339 432.985321,72.091843 
	C433.007019,69.056717 433.028717,66.021584 433.419250,62.490444 
	C433.096832,61.298130 432.774445,60.105816 432.272156,58.281475 
	C432.209473,57.848331 432.146790,57.415188 432.414368,56.510063 
	C431.935516,55.676159 431.456665,54.842255 430.589050,53.542042 
	C430.337128,52.777802 430.085175,52.013565 429.776581,50.625092 
	C429.233826,50.060238 428.691071,49.495388 427.679260,48.453163 
	C422.619171,40.493008 414.629242,37.200684 405.774750,34.301914 
	C404.511841,34.205597 403.248932,34.109280 401.118805,33.997158 
	C399.104187,33.867569 397.089539,33.737984 394.625671,33.024292 
	C385.074402,32.861343 375.523254,32.687164 365.971344,32.580620 
	C365.625244,32.576756 365.271729,33.237988 364.030548,33.703114 
	C361.614777,33.778130 359.199005,33.853146 356.132111,34.319042 
	C355.761017,35.711536 355.069153,37.103321 355.066040,38.496639 
	C355.000854,67.776672 354.983582,97.056992 355.093750,126.336739 
	C355.099609,127.893814 356.309784,129.446365 357.877136,131.031677 
	C361.610382,130.687790 365.343628,130.343903 369.753784,129.646561 
	C370.091400,122.703690 370.467926,115.762108 370.698792,108.815697 
	C370.719055,108.206390 369.784546,107.565361 369.225494,106.228523 
	C369.279694,105.518661 369.333893,104.808807 369.930206,103.885681 
	C370.642334,102.999763 371.354431,102.113846 372.691772,101.180397 
	C373.109070,101.198441 373.526367,101.216484 374.224640,101.773300 
	C375.501038,101.585419 376.777405,101.397545 378.975189,101.124863 
	C383.634369,101.149422 388.293518,101.173988 393.331604,101.823944 
	C395.929810,102.171173 398.527985,102.518394 401.015961,102.987030 
	C401.015961,102.987030 401.121979,102.869156 401.214233,103.479256 
M58.840260,116.649651 
	C58.692493,117.714676 58.544727,118.779709 57.957596,120.557350 
	C57.852360,121.378761 57.747124,122.200172 57.245972,123.384506 
	C57.187962,124.242905 57.129951,125.101295 56.601326,126.801826 
	C56.388268,128.063477 56.175205,129.325119 56.035103,130.541687 
	C56.035103,130.541687 55.983223,130.392578 55.509045,131.134171 
	C55.132877,133.112000 54.756710,135.089844 54.072529,137.658020 
	C54.061729,138.098633 54.050934,138.539246 53.602444,139.653030 
	C53.146988,141.981247 52.691532,144.309448 52.341602,146.633545 
	C52.341602,146.633545 52.313400,146.531784 51.880119,147.132462 
	C51.287975,149.936646 50.695831,152.740845 49.818073,155.682785 
	C49.639576,156.020706 49.688278,156.298431 49.536797,157.089890 
	C49.006760,159.502289 48.369938,161.897476 47.977428,164.332047 
	C47.602516,166.657516 48.211048,168.345810 51.869621,168.032074 
	C58.205700,167.932053 64.541779,167.832047 71.622040,167.939682 
	C72.653542,166.901611 74.249535,166.028824 74.610992,164.794525 
	C75.706955,161.051910 76.325043,157.169342 76.971817,153.370605 
	C76.971817,153.370605 77.086525,153.553436 77.330727,152.873062 
	C77.544540,151.468262 77.758354,150.063477 78.134842,148.718643 
	C78.134842,148.718643 77.977684,148.609711 78.378387,147.746643 
	C78.489571,146.809586 78.600754,145.872543 79.162750,144.340195 
	C80.707344,137.734924 82.146049,131.102478 83.831940,124.533470 
	C85.054543,119.769676 86.604584,115.089912 88.899963,110.671989 
	C104.173973,110.681389 119.448074,110.661919 134.721924,110.715790 
	C140.092148,110.734726 144.168823,108.523590 147.444565,103.664619 
	C147.707962,102.843391 147.971359,102.022163 149.063461,100.838783 
	C149.337479,99.709190 149.611496,98.579597 150.166077,97.308937 
	C150.340302,96.979996 150.301254,96.697769 150.513412,95.699577 
	C150.905731,93.430176 151.298050,91.160782 152.060837,88.520836 
	C152.083115,88.017487 152.105392,87.514145 152.638290,86.289162 
	C153.823120,82.116806 150.719849,82.971443 148.596725,82.965027 
	C133.643814,82.919807 118.690529,82.898155 103.737709,82.956924 
	C94.448639,82.993431 85.160172,83.183990 75.352730,83.200302 
	C74.728485,83.509048 74.104240,83.817795 72.582008,84.172539 
	C71.536453,84.750877 70.490906,85.329216 69.556961,86.040497 
	C69.556961,86.040497 69.681297,85.825867 69.114120,86.228493 
	C68.696793,86.767097 68.279472,87.305695 67.309723,88.038628 
	C66.894386,88.676865 66.479057,89.315102 65.635437,90.172295 
	C65.635437,90.172295 65.527397,90.641029 65.589172,90.740868 
	C65.589172,90.740868 65.596848,90.623711 65.022842,91.091103 
	C64.667976,92.261200 64.313110,93.431297 64.033852,94.540466 
	C64.033852,94.540466 63.955456,94.404312 63.534576,95.260132 
	C62.986286,98.051735 62.437992,100.843338 62.029858,103.598503 
	C62.029858,103.598503 61.923084,103.422623 61.698597,104.146431 
	C61.208527,106.783081 60.718460,109.419724 59.905670,112.284546 
	C59.749950,112.551224 59.778950,112.796021 59.515320,113.697762 
	C59.420071,114.506989 59.324825,115.316223 58.840260,116.649651 
M467.028717,142.001862 
	C467.028717,142.001862 467.021942,141.941544 466.412811,141.489426 
	C461.233948,139.563202 456.080261,138.857605 450.461578,141.995285 
	C450.284515,142.066208 450.107452,142.137131 449.185089,142.590073 
	C449.185089,151.970810 449.185089,161.351547 449.185089,170.902802 
	C455.074066,170.902802 460.519196,170.902802 466.461212,171.229599 
	C469.849426,170.501831 469.341461,168.838165 467.374634,166.225342 
	C465.913361,165.845520 464.452087,165.465683 462.986755,164.229065 
	C462.989044,162.801208 462.991302,161.373352 463.594757,159.735077 
	C464.440002,159.661026 465.285217,159.586975 466.886719,159.553070 
	C469.978638,157.981308 469.414978,156.485809 466.519165,154.927917 
	C466.291290,154.881836 466.170319,154.742676 465.756500,153.911163 
	C464.601471,153.446747 463.380035,152.470871 462.303467,152.610687 
	C458.585510,153.093491 457.207794,151.301163 457.791077,147.778214 
	C458.865356,147.832809 459.939606,147.887390 461.151215,148.428391 
	C461.762115,148.266312 462.373016,148.104233 463.438782,147.806915 
	C463.438782,147.806915 463.893494,147.942505 464.531006,147.994186 
	C464.743164,147.972580 464.955322,147.950958 465.621979,147.721786 
	C465.621979,147.721786 466.120758,147.692871 466.120758,147.692871 
	C466.120758,147.692871 466.593689,147.853943 467.325012,147.767075 
	C470.023102,145.711227 471.946198,143.688934 467.028717,142.001862 
M603.681946,144.192459 
	C603.768005,144.881989 603.854065,145.571518 603.841125,147.084305 
	C606.500916,147.381027 609.160767,147.677750 612.246216,148.829849 
	C612.246216,156.107605 612.246216,163.385345 612.246216,170.743958 
	C614.873535,170.743958 616.769836,170.743958 619.112549,170.743958 
	C619.112549,163.051880 619.112549,155.642929 619.112549,148.280396 
	C620.721191,148.116455 621.876099,147.998749 623.817383,148.025589 
	C625.103882,147.294510 626.390442,146.563431 627.846802,145.176666 
	C627.779663,144.509766 627.712524,143.842850 627.408081,142.349884 
	C620.149597,142.226715 612.891174,142.063644 605.632568,142.056519 
	C605.055603,142.055954 604.477539,143.135147 603.681946,144.192459 
M573.621643,165.522446 
	C573.621643,165.522446 573.573242,165.398590 573.971313,164.783737 
	C574.843872,161.678925 575.716370,158.574097 576.773254,154.813339 
	C570.313416,154.813339 565.261780,154.813339 560.239319,154.813339 
	C559.994019,161.279282 560.195557,161.415176 568.064758,161.572571 
	C563.947205,165.952225 559.302795,166.992538 556.065247,162.772064 
	C554.111572,160.225220 554.244568,155.361115 554.862793,151.784149 
	C555.359192,148.911697 562.944641,147.306366 565.844055,149.504318 
	C568.271912,151.344727 570.485229,151.124695 573.690918,150.984482 
	C576.290161,149.154724 574.678650,148.081909 573.000000,146.999390 
	C573.000000,146.999390 572.974365,147.021286 572.697266,146.410355 
	C566.773132,140.111511 557.345764,139.694489 551.433472,145.469727 
	C545.752747,151.018768 545.617615,161.416992 551.151550,167.162354 
	C556.966187,173.199127 567.409424,173.112701 572.469910,166.759033 
	C572.816223,166.370300 573.162537,165.981567 573.621643,165.522446 
M517.949341,163.794327 
	C520.462646,158.266403 520.288330,152.856308 516.944153,147.746750 
	C514.031555,143.296646 509.287994,141.526062 503.984985,142.979202 
	C501.336914,143.029373 498.688873,143.079544 495.255646,142.993454 
	C494.800842,143.355362 493.951935,143.714005 493.948914,144.079666 
	C493.875061,152.979736 493.891296,161.880569 493.891296,171.039764 
	C497.876251,171.039764 501.350433,171.052261 504.824493,171.036865 
	C510.149445,171.013260 514.544556,169.170471 517.541504,164.444855 
	C517.541504,164.444855 517.514343,164.361618 517.949341,163.794327 
M356.518555,166.199371 
	C356.799072,166.382401 357.015717,166.622971 357.345337,167.673859 
	C358.469025,172.551071 361.902039,171.022141 365.421906,170.671234 
	C362.132629,161.986084 359.111053,153.591980 355.692108,145.362976 
	C355.075531,143.878937 352.975464,142.637589 351.293488,142.056686 
	C348.710846,141.164673 347.544861,142.966324 346.781799,145.302963 
	C345.710419,148.583740 344.337524,151.766037 342.896606,155.684341 
	C341.032867,160.593658 339.169098,165.502975 337.181793,170.737778 
	C340.823303,171.045654 344.183899,172.306381 345.478668,167.525070 
	C345.675903,166.796799 347.545471,166.227280 348.694611,166.111557 
	C351.151093,165.864227 353.642334,165.962143 356.518555,166.199371 
M530.175232,169.690750 
	C532.230957,170.282898 534.286682,170.875046 536.645752,171.554596 
	C536.645752,161.053284 536.645752,151.686920 536.645752,141.711792 
	C534.277039,143.133270 529.852234,138.932465 530.218933,146.062393 
	C530.268005,153.660522 530.317078,161.258636 530.175232,169.690750 
M682.743286,170.998901 
	C683.492126,170.947525 684.240906,170.896149 685.857849,170.985443 
	C686.860535,169.324570 687.863281,167.663712 689.521118,164.917664 
	C683.912842,164.917664 680.153564,164.917664 675.904785,164.917664 
	C675.904785,157.045761 675.904785,149.625839 675.904785,142.172119 
	C673.600098,142.172119 671.811401,142.172119 669.797485,142.172119 
	C669.797485,151.821655 669.797485,161.257980 669.797485,170.854797 
	C674.042114,170.854797 678.022400,170.854797 682.743286,170.998901 
M291.514099,167.885986 
	C291.514099,159.435089 291.514099,150.984177 291.514099,142.321655 
	C288.750000,142.321655 286.526642,142.321655 284.522095,142.321655 
	C284.695038,145.082825 285.045990,147.509903 284.956848,149.920700 
	C284.768250,155.019913 284.190613,160.106766 284.066620,165.205841 
	C283.916962,171.361389 285.168427,172.104996 291.840668,169.890015 
	C291.735199,169.525604 291.629730,169.161179 291.514099,167.885986 
M264.605621,161.065384 
	C267.541687,161.065384 270.477783,161.065384 273.209656,161.065384 
	C274.967560,154.752335 271.389038,155.035675 267.600525,155.006485 
	C266.089020,154.994858 263.533722,153.998276 263.327301,153.044556 
	C263.018066,151.615570 264.361420,149.828903 265.903809,148.076248 
	C268.676666,148.076248 271.449554,148.076248 274.405640,148.076248 
	C274.405640,145.819382 274.405640,144.108322 274.405640,142.228333 
	C268.546631,142.228333 262.997498,142.228333 257.212799,142.228333 
	C257.212799,151.883011 257.212799,161.245316 257.212799,170.783493 
	C259.333862,170.783493 261.216736,170.783493 263.665497,170.783493 
	C263.665497,167.408249 263.665497,164.285248 264.605621,161.065384 
M644.110596,77.837967 
	C643.989014,78.192299 643.867371,78.546631 643.120056,79.121544 
	C642.433899,80.440224 641.747742,81.758911 640.943542,83.504005 
	C640.943542,83.504005 640.799866,83.922455 640.244019,84.175827 
	C639.896484,84.872505 639.548950,85.569191 639.109497,86.629730 
	C639.109497,86.629730 638.956482,86.972412 638.357056,87.182808 
	C637.982117,87.888893 637.607178,88.594978 637.149536,89.659081 
	C637.149536,89.659081 637.004089,89.996498 636.353394,90.207611 
	C635.674438,91.592369 634.995544,92.977127 634.212402,94.955864 
	C633.821777,95.645439 633.431091,96.335014 632.311218,97.151222 
	C630.862305,97.441307 629.413330,97.731384 627.606995,97.430283 
	C625.734192,94.285591 623.835938,91.155739 621.992798,87.993729 
	C612.018372,70.881721 601.988037,53.801605 592.139465,36.617352 
	C589.584534,32.159286 585.605591,33.166153 581.987427,33.541290 
	C577.939148,33.961025 579.308777,37.596092 579.300171,39.962925 
	C579.197021,68.287682 579.311951,96.613541 579.117798,124.937378 
	C579.085022,129.715469 580.515259,131.308868 585.358643,131.222443 
	C589.961914,131.140289 592.276794,130.490921 592.175171,124.994392 
	C591.836365,106.672508 592.020874,88.340790 592.031921,70.012856 
	C592.033203,67.945053 592.207397,65.877350 592.301392,63.809597 
	C592.720337,63.680779 593.139343,63.551960 593.558350,63.423141 
	C594.844543,65.428093 596.198486,67.393158 597.406128,69.444359 
	C606.273132,84.505615 615.110779,99.584175 623.957886,114.657120 
	C627.841248,121.273140 632.549988,121.123398 636.478149,114.317917 
	C644.382019,100.624023 652.305054,86.941048 660.269531,73.282333 
	C662.218445,69.940018 664.357788,66.708778 666.409607,63.426468 
	C666.838562,63.552227 667.267578,63.677982 667.696533,63.803741 
	C667.800476,65.867287 667.993164,67.930779 667.994446,69.994385 
	C668.005920,88.488930 667.951416,106.983635 668.025208,125.477844 
	C668.031982,127.185783 668.551697,130.242416 669.244446,130.365906 
	C672.450867,130.937454 675.894287,131.132446 679.046143,130.473511 
	C679.985474,130.277145 680.746094,126.870461 680.754089,124.931252 
	C680.860657,99.105896 680.821289,73.279922 680.810669,47.454109 
	C680.809265,43.955383 681.001953,40.430664 680.619324,36.971661 
	C680.480347,35.715405 679.059021,33.765720 677.988098,33.593746 
	C673.563416,32.883251 669.494324,33.230209 667.025818,38.158199 
	C663.973755,44.251343 660.373352,50.069828 656.408569,56.222809 
	C656.030151,56.924049 655.651672,57.625290 655.204041,58.691769 
	C655.204041,58.691769 655.061401,59.035065 654.563721,59.127186 
	C654.362427,59.750629 654.161133,60.374069 653.765564,61.610298 
	C652.836487,63.068794 651.907410,64.527290 650.375549,66.209724 
	C650.027832,66.932884 649.680115,67.656052 649.186646,69.048073 
	C648.083130,71.012451 646.979675,72.976822 645.299500,75.180916 
	C644.942017,75.883308 644.584473,76.585701 644.110596,77.837967 
M216.615952,81.071556 
	C216.434387,80.088730 216.238464,79.108299 216.073318,78.122719 
	C211.232681,49.233730 189.881226,31.096399 160.481903,31.047983 
	C124.987694,30.989529 89.493248,30.983360 53.999084,31.047533 
	C40.901852,31.071211 42.953903,29.040970 39.672356,42.651604 
	C36.206089,57.028408 37.863964,58.939869 52.865181,58.946732 
	C89.192673,58.963345 125.520432,58.896530 161.847534,59.022610 
	C176.822418,59.074585 187.879120,70.488075 188.236954,85.345688 
	C188.431000,93.403610 186.775879,100.784401 182.806396,107.828285 
	C171.699951,127.536751 155.623444,139.355164 132.440063,140.010529 
	C124.780518,140.227036 117.097305,140.331329 109.449425,139.969223 
	C104.683456,139.743561 102.899796,141.810593 102.350853,146.125214 
	C101.637001,151.735870 100.868172,157.356903 99.715431,162.888550 
	C98.880493,166.895187 100.476402,168.003174 104.089508,167.968536 
	C112.087440,167.891876 120.101768,167.630020 128.082443,168.010056 
	C149.956589,169.051743 169.086990,162.150955 185.624924,148.165833 
	C206.026962,130.913040 217.764267,109.388939 216.615952,81.071556 
M506.401764,32.964279 
	C500.301788,33.597069 493.976135,33.404701 488.139587,35.000813 
	C457.532654,43.370808 444.616516,75.765526 456.576935,102.587952 
	C466.402557,124.622810 487.165161,134.850266 511.999817,131.293091 
	C539.149475,127.404305 556.207031,106.262589 554.737610,78.322121 
	C553.443604,53.716064 532.925537,34.079357 506.401764,32.964279 
M333.825500,66.518265 
	C333.749817,54.751640 329.097565,45.092571 318.630646,39.738873 
	C312.454712,36.579948 305.163605,34.727619 298.217987,34.143635 
	C286.643738,33.170490 274.943970,33.707420 263.297546,33.568687 
	C257.002563,33.493706 256.955811,33.456429 256.947998,39.831558 
	C256.914185,67.484749 256.911407,95.137985 256.894745,122.791206 
	C256.889526,131.421478 256.883636,131.265335 265.438904,131.150986 
	C269.038208,131.102859 270.012909,129.636215 269.932770,126.316681 
	C269.772064,119.657326 270.062439,112.985588 269.841797,106.329727 
	C269.710602,102.372467 271.276794,101.057831 275.108856,101.120605 
	C283.267883,101.254257 291.443695,101.329575 299.591949,100.965439 
	C320.285889,100.040634 333.191681,87.271484 333.825500,66.518265 
M834.728577,45.801167 
	C842.426147,56.250759 849.996460,66.798088 857.901306,77.088371 
	C860.168762,80.040016 860.161865,82.040947 857.959839,84.929787 
	C849.079529,96.579758 840.394348,108.378777 831.673584,120.149818 
	C829.365051,123.265968 827.186890,126.478752 824.802551,129.854248 
	C834.163208,132.833572 838.859985,131.471970 843.629578,124.924835 
	C849.801697,116.452499 855.944763,107.958878 862.156982,99.516052 
	C864.072998,96.912003 866.174133,94.444145 868.530945,91.486794 
	C870.052063,93.346283 871.016724,94.436417 871.883667,95.599411 
	C879.146240,105.342300 886.302979,115.165581 893.670898,124.827927 
	C898.815247,131.574265 903.200745,132.719955 912.520630,130.070129 
	C911.692566,128.752762 911.006531,127.501953 910.172668,126.359001 
	C899.968079,112.372147 889.821289,98.341690 879.449829,84.479416 
	C877.526123,81.908127 877.244995,80.188782 879.225159,77.544464 
	C887.103516,67.023460 894.785095,56.354572 902.500244,45.711933 
	C905.083130,42.148979 907.548523,38.500858 910.174500,34.738575 
	C901.895813,31.683681 897.387390,32.799057 892.975403,38.605942 
	C889.351807,43.375084 885.795166,48.195080 882.217407,52.998894 
	C877.995728,58.667225 873.783264,64.342354 869.111572,70.626984 
	C866.806396,67.896149 865.013733,65.998299 863.476807,63.912060 
	C857.361755,55.611774 851.423218,47.180084 845.229492,38.939739 
	C840.737549,32.963581 834.952820,31.606926 826.949036,34.586849 
	C829.462158,38.210121 831.888062,41.707592 834.728577,45.801167 
M730.388062,97.974968 
	C737.409546,82.459091 744.430969,66.943207 751.975769,50.270847 
	C753.510681,53.119740 754.377136,54.510529 755.040710,55.992191 
	C765.046326,78.332848 775.054871,100.672272 784.995544,123.041824 
	C788.791992,131.584991 791.883057,133.016800 801.949463,129.940353 
	C800.541504,126.581970 799.242065,123.241928 797.759888,119.985054 
	C785.618408,93.304947 773.388916,66.664696 761.337280,39.944149 
	C759.582825,36.054180 758.062744,33.236877 752.873108,33.153065 
	C747.547119,33.067051 745.200256,35.337189 743.211609,39.769257 
	C732.714172,63.164341 721.985291,86.455475 711.366638,109.796272 
	C708.304199,116.527657 705.341003,123.304192 701.887085,131.059875 
	C705.374817,131.059875 707.675476,130.882797 709.938538,131.098694 
	C713.989380,131.485153 716.270935,129.950348 717.877686,126.044495 
	C721.677002,116.808929 725.981689,107.781250 730.388062,97.974968 
M763.518738,131.196152 
	C764.164307,130.446472 765.522888,129.359024 765.351135,128.996597 
	C761.195801,120.225121 756.877197,111.530998 752.039490,101.709358 
	C747.467163,112.092255 743.428833,121.262589 739.071167,131.158112 
	C747.557617,131.158112 755.170166,131.158112 763.518738,131.196152 
M643.246460,142.218597 
	C639.430725,151.609344 635.614990,161.000076 631.598022,170.885910 
	C634.646423,170.885910 636.603149,170.885910 638.559814,170.885910 
	C639.801636,168.721329 641.458801,166.509109 643.331421,166.308517 
	C646.152588,166.006317 650.990845,166.259537 651.682129,167.776077 
	C653.750671,172.314438 656.689941,170.916580 660.216064,170.735748 
	C657.065796,162.489594 653.758789,154.693420 651.160950,146.667694 
	C649.875549,142.696625 647.908447,141.269730 643.246460,142.218597 
M412.504669,147.062561 
	C411.701874,151.524734 409.969177,156.059448 410.310333,160.432373 
	C410.845886,167.297012 417.734467,171.935043 425.162384,171.657990 
	C431.937134,171.405273 437.235138,166.678986 438.073639,158.596344 
	C434.901886,160.257965 432.278656,161.133392 430.299011,162.781738 
	C427.009308,165.520813 421.796326,165.977142 418.926880,163.222580 
	C415.619843,160.047943 415.414520,153.705200 418.513977,150.467194 
	C421.678711,147.160965 426.468414,147.372498 430.164978,150.347641 
	C432.144531,151.940887 434.870300,152.606979 437.259308,153.691483 
	C437.553375,153.151443 437.847412,152.611389 438.141449,152.071350 
	C436.859741,147.412994 434.022888,143.752411 429.334015,142.312531 
	C423.237213,140.440277 417.445770,141.299942 412.504669,147.062561 
M449.498566,139.531586 
	C449.498566,139.531586 449.482849,139.489059 449.498566,139.531586 
z"/>
<path fill="#20255E" opacity="1.000000" stroke="none" 
	d="
M216.669586,81.518013 
	C217.764267,109.388939 206.026962,130.913040 185.624924,148.165833 
	C169.086990,162.150955 149.956589,169.051743 128.082443,168.010056 
	C120.101768,167.630020 112.087440,167.891876 104.089508,167.968536 
	C100.476402,168.003174 98.880493,166.895187 99.715431,162.888550 
	C100.868172,157.356903 101.637001,151.735870 102.350853,146.125214 
	C102.899796,141.810593 104.683456,139.743561 109.449425,139.969223 
	C117.097305,140.331329 124.780518,140.227036 132.440063,140.010529 
	C155.623444,139.355164 171.699951,127.536751 182.806396,107.828285 
	C186.775879,100.784401 188.431000,93.403610 188.236954,85.345688 
	C187.879120,70.488075 176.822418,59.074585 161.847534,59.022610 
	C125.520432,58.896530 89.192673,58.963345 52.865181,58.946732 
	C37.863964,58.939869 36.206089,57.028408 39.672356,42.651604 
	C42.953903,29.040970 40.901852,31.071211 53.999084,31.047533 
	C89.493248,30.983360 124.987694,30.989529 160.481903,31.047983 
	C189.881226,31.096399 211.232681,49.233730 216.073318,78.122719 
	C216.238464,79.108299 216.434387,80.088730 216.669586,81.518013 
z"/>
<path fill="#2D3069" opacity="1.000000" stroke="none" 
	d="
M633.040405,97.024590 
	C633.431091,96.335014 633.821777,95.645439 634.539185,94.478760 
	C635.578735,92.666603 636.291382,91.331551 637.004089,89.996498 
	C637.004089,89.996498 637.149536,89.659081 637.458740,89.332397 
	C638.164124,88.327942 638.560303,87.650177 638.956482,86.972412 
	C638.956482,86.972412 639.109497,86.629730 639.420654,86.300385 
	C640.087769,85.288177 640.443848,84.605316 640.799866,83.922455 
	C640.799866,83.922455 640.943542,83.504005 641.277832,83.115845 
	C642.323303,81.452103 643.034485,80.176529 643.745728,78.900963 
	C643.867371,78.546631 643.989014,78.192299 644.431396,77.410461 
	C645.126892,76.302376 645.501526,75.621796 645.876221,74.941208 
	C646.979675,72.976822 648.083130,71.012451 649.510742,68.544952 
	C650.216003,67.356468 650.597168,66.671112 650.978333,65.985764 
	C651.907410,64.527290 652.836487,63.068794 654.079346,61.110359 
	C654.615967,60.085308 654.838684,59.560192 655.061401,59.035072 
	C655.061401,59.035065 655.204041,58.691769 655.500977,58.355408 
	C656.201843,57.348354 656.605835,56.677662 657.009827,56.006973 
	C660.373352,50.069828 663.973755,44.251343 667.025818,38.158199 
	C669.494324,33.230209 673.563416,32.883251 677.988098,33.593746 
	C679.059021,33.765720 680.480347,35.715405 680.619324,36.971661 
	C681.001953,40.430664 680.809265,43.955383 680.810669,47.454109 
	C680.821289,73.279922 680.860657,99.105896 680.754089,124.931252 
	C680.746094,126.870461 679.985474,130.277145 679.046143,130.473511 
	C675.894287,131.132446 672.450867,130.937454 669.244446,130.365906 
	C668.551697,130.242416 668.031982,127.185783 668.025208,125.477844 
	C667.951416,106.983635 668.005920,88.488930 667.994446,69.994385 
	C667.993164,67.930779 667.800476,65.867287 667.696533,63.803741 
	C667.267578,63.677982 666.838562,63.552227 666.409607,63.426468 
	C664.357788,66.708778 662.218445,69.940018 660.269531,73.282333 
	C652.305054,86.941048 644.382019,100.624023 636.478149,114.317917 
	C632.549988,121.123398 627.841248,121.273140 623.957886,114.657120 
	C615.110779,99.584175 606.273132,84.505615 597.406128,69.444359 
	C596.198486,67.393158 594.844543,65.428093 593.558350,63.423141 
	C593.139343,63.551960 592.720337,63.680779 592.301392,63.809597 
	C592.207397,65.877350 592.033203,67.945053 592.031921,70.012856 
	C592.020874,88.340790 591.836365,106.672508 592.175171,124.994392 
	C592.276794,130.490921 589.961914,131.140289 585.358643,131.222443 
	C580.515259,131.308868 579.085022,129.715469 579.117798,124.937378 
	C579.311951,96.613541 579.197021,68.287682 579.300171,39.962925 
	C579.308777,37.596092 577.939148,33.961025 581.987427,33.541290 
	C585.605591,33.166153 589.584534,32.159286 592.139465,36.617352 
	C601.988037,53.801605 612.018372,70.881721 621.992798,87.993729 
	C623.835938,91.155739 625.734192,94.285591 627.851074,98.063705 
	C631.585205,103.584862 632.016235,99.427795 633.040405,97.024590 
z"/>
<path fill="#2E316A" opacity="1.000000" stroke="none" 
	d="
M506.879211,32.970257 
	C532.925537,34.079357 553.443604,53.716064 554.737610,78.322121 
	C556.207031,106.262589 539.149475,127.404305 511.999817,131.293091 
	C487.165161,134.850266 466.402557,124.622810 456.576935,102.587952 
	C444.616516,75.765526 457.532654,43.370808 488.139587,35.000813 
	C493.976135,33.404701 500.301788,33.597069 506.879211,32.970257 
M541.713379,85.100449 
	C542.809814,61.157597 525.944336,44.436951 501.239349,44.973976 
	C485.088745,45.325050 470.971527,55.846790 466.896179,71.936592 
	C462.775208,88.206551 467.252686,103.151833 480.994873,113.096954 
	C501.732269,128.104492 538.103699,119.023422 541.713379,85.100449 
z"/>
<path fill="#2E316A" opacity="1.000000" stroke="none" 
	d="
M434.128418,131.031479 
	C433.944794,131.050568 433.761139,131.069641 432.884460,131.046402 
	C430.775787,131.079346 429.360199,131.154587 427.944580,131.229828 
	C425.977203,131.135742 424.009796,131.041672 421.521118,130.617798 
	C420.351898,129.496521 419.703979,128.705048 419.056091,127.913574 
	C418.521484,127.078629 417.986908,126.243675 417.186951,124.879181 
	C415.991150,123.219101 415.060699,122.088562 414.130249,120.958023 
	C413.700012,120.333702 413.269745,119.709373 412.496887,118.613205 
	C411.201508,116.961372 410.248779,115.781380 409.296051,114.601387 
	C409.296051,114.601387 409.244141,114.265701 409.100372,113.776482 
	C407.627228,111.540619 406.297852,109.793968 404.968475,108.047318 
	C404.393341,107.213951 403.818207,106.380585 403.034546,104.986572 
	C402.257996,103.907013 401.690002,103.388084 401.121979,102.869156 
	C401.121979,102.869156 401.015961,102.987030 400.912048,102.576294 
	C398.189667,101.843224 395.571198,101.520889 392.952698,101.198555 
	C388.293518,101.173988 383.634369,101.149422 378.107117,101.087830 
	C376.140564,101.112038 375.042114,101.173286 373.943665,101.234528 
	C373.526367,101.216484 373.109070,101.198441 372.022675,101.154556 
	C370.698425,102.118782 370.043243,103.108864 369.388092,104.098946 
	C369.333893,104.808807 369.279694,105.518661 369.161133,107.048988 
	C369.090179,115.246307 369.083527,122.623161 369.076874,130.000015 
	C365.343628,130.343903 361.610382,130.687790 357.405640,130.548126 
	C356.883820,98.019096 356.833527,65.973625 356.783203,33.928162 
	C359.199005,33.853146 361.614777,33.778130 364.941956,33.746254 
	C375.593872,33.729065 385.334381,33.668732 395.074921,33.608398 
	C397.089539,33.737984 399.104187,33.867569 401.842529,34.205788 
	C403.722992,34.565880 404.879730,34.717346 406.036469,34.868816 
	C414.629242,37.200684 422.619171,40.493008 427.961792,48.991455 
	C428.773956,50.102940 429.303619,50.676132 429.833252,51.249325 
	C430.085175,52.013565 430.337128,52.777802 430.795135,54.103130 
	C431.362183,55.436825 431.723145,56.209435 432.084106,56.982040 
	C432.146790,57.415188 432.209473,57.848331 432.283234,58.948956 
	C432.546356,60.739777 432.798370,61.863113 433.050415,62.986454 
	C433.028717,66.021584 433.007019,69.056717 432.815979,72.817604 
	C432.585846,74.393539 432.525055,75.243721 432.464264,76.093895 
	C432.347809,76.514313 432.231384,76.934723 431.870117,77.891663 
	C431.493073,78.975212 431.360870,79.522240 431.228668,80.069267 
	C430.802368,81.083565 430.376099,82.097862 429.607666,83.595848 
	C428.160858,85.711716 427.056152,87.343895 425.951447,88.976074 
	C424.752716,90.148270 423.554016,91.320480 421.884430,92.821808 
	C420.833252,93.697220 420.252991,94.243515 419.672729,94.789810 
	C418.952057,95.097481 418.231354,95.405144 416.928253,95.922638 
	C413.666748,96.803452 412.685120,98.331741 414.358185,100.745735 
	C416.106262,103.267921 418.084381,105.630669 419.961975,108.063095 
	C420.505798,108.893242 421.049652,109.723404 421.854370,111.081329 
	C422.671783,112.181404 423.228302,112.753716 423.784790,113.326035 
	C424.025909,113.786011 424.267029,114.246002 424.790283,115.176270 
	C425.642334,116.212463 426.212250,116.778389 426.782166,117.344315 
	C426.782166,117.344322 426.852448,117.679291 426.991699,118.166718 
	C428.374481,120.173714 429.617950,121.693275 430.861450,123.212837 
	C431.131927,123.668739 431.402405,124.124641 431.901978,125.091125 
	C432.702515,126.149811 433.273926,126.697906 433.845337,127.245995 
	C433.845337,127.245995 433.962311,127.619415 434.016907,128.177414 
	C434.090485,129.500763 434.109467,130.266129 434.128418,131.031479 
M420.066681,68.425964 
	C419.909241,55.301861 413.678284,47.343479 401.388245,46.113216 
	C391.990173,45.172443 382.469971,45.452114 373.004181,45.186642 
	C370.282227,45.110302 369.105011,46.458248 369.111816,49.145798 
	C369.143005,61.454617 369.019531,73.765793 369.282074,86.069069 
	C369.308807,87.322815 371.565521,89.610214 372.754089,89.588570 
	C383.191406,89.398453 393.739716,89.597862 404.019958,88.084381 
	C414.332672,86.566116 419.220734,79.818588 420.066681,68.425964 
z"/>
<path fill="#D4C434" opacity="1.000000" stroke="none" 
	d="
M57.071945,125.959694 
	C57.129951,125.101295 57.187962,124.242905 57.803257,123.087013 
	C60.909367,119.867546 61.892437,116.684021 59.992672,113.018929 
	C59.778950,112.796021 59.749950,112.551224 60.429352,112.101486 
	C62.500969,104.820190 64.048912,97.721947 65.596848,90.623711 
	C65.596848,90.623711 65.589172,90.740868 65.709335,90.692764 
	C66.151199,90.513306 66.229279,90.282867 66.063728,89.953339 
	C66.479057,89.315102 66.894386,88.676865 67.854271,88.085907 
	C71.653496,87.096542 74.897934,85.200447 78.164490,85.161552 
	C100.790535,84.892120 123.421211,85.020973 146.050354,84.989746 
	C149.561157,84.984909 150.284546,86.724731 149.573776,89.829880 
	C148.581955,94.162697 147.785477,98.540230 146.573837,103.003723 
	C141.130951,106.940788 135.435226,108.269455 129.027817,108.102928 
	C117.102425,107.792984 105.161491,107.922646 93.231369,108.125244 
	C91.478233,108.155014 89.748947,109.588615 88.008621,110.372681 
	C86.604584,115.089912 85.054543,119.769676 83.831940,124.533470 
	C82.146049,131.102478 80.707344,137.734924 78.606247,144.759308 
	C77.261765,146.888962 76.218842,148.529251 75.725060,150.320908 
	C70.533714,169.157074 75.080627,165.663177 55.030689,165.943497 
	C50.301258,166.009613 49.866158,164.672485 50.851311,160.086548 
	C51.800613,155.667526 51.861946,151.057755 52.313400,146.531784 
	C52.313400,146.531784 52.341602,146.633545 52.626579,146.486481 
	C53.287746,143.886215 53.663940,141.433044 54.040131,138.979858 
	C54.050934,138.539246 54.061729,138.098633 54.573147,137.284943 
	C57.670700,133.854065 58.657658,128.444489 57.071945,125.959694 
z"/>
<path fill="#2E316A" opacity="1.000000" stroke="none" 
	d="
M333.825195,66.974564 
	C333.191681,87.271484 320.285889,100.040634 299.591949,100.965439 
	C291.443695,101.329575 283.267883,101.254257 275.108856,101.120605 
	C271.276794,101.057831 269.710602,102.372467 269.841797,106.329727 
	C270.062439,112.985588 269.772064,119.657326 269.932770,126.316681 
	C270.012909,129.636215 269.038208,131.102859 265.438904,131.150986 
	C256.883636,131.265335 256.889526,131.421478 256.894745,122.791206 
	C256.911407,95.137985 256.914185,67.484749 256.947998,39.831558 
	C256.955811,33.456429 257.002563,33.493706 263.297546,33.568687 
	C274.943970,33.707420 286.643738,33.170490 298.217987,34.143635 
	C305.163605,34.727619 312.454712,36.579948 318.630646,39.738873 
	C329.097565,45.092571 333.749817,54.751640 333.825195,66.974564 
M269.885193,57.517414 
	C269.882263,66.495590 270.016296,75.476860 269.813202,84.450516 
	C269.724274,88.380608 271.314209,89.895401 275.074768,89.769478 
	C283.710114,89.480316 292.369751,89.574638 300.979736,88.957466 
	C312.140411,88.157463 319.345673,80.963646 320.701996,70.027496 
	C322.033417,59.291786 317.081482,50.159943 306.361450,47.419510 
	C298.314148,45.362328 289.630920,45.510086 281.213226,45.254089 
	C269.893219,44.909828 269.885956,45.148560 269.885193,57.517414 
z"/>
<path fill="#2E3069" opacity="1.000000" stroke="none" 
	d="
M834.521240,45.503117 
	C831.888062,41.707592 829.462158,38.210121 826.949036,34.586849 
	C834.952820,31.606926 840.737549,32.963581 845.229492,38.939739 
	C851.423218,47.180084 857.361755,55.611774 863.476807,63.912060 
	C865.013733,65.998299 866.806396,67.896149 869.111572,70.626984 
	C873.783264,64.342354 877.995728,58.667225 882.217407,52.998894 
	C885.795166,48.195080 889.351807,43.375084 892.975403,38.605942 
	C897.387390,32.799057 901.895813,31.683681 910.174500,34.738575 
	C907.548523,38.500858 905.083130,42.148979 902.500244,45.711933 
	C894.785095,56.354572 887.103516,67.023460 879.225159,77.544464 
	C877.244995,80.188782 877.526123,81.908127 879.449829,84.479416 
	C889.821289,98.341690 899.968079,112.372147 910.172668,126.359001 
	C911.006531,127.501953 911.692566,128.752762 912.520630,130.070129 
	C903.200745,132.719955 898.815247,131.574265 893.670898,124.827927 
	C886.302979,115.165581 879.146240,105.342300 871.883667,95.599411 
	C871.016724,94.436417 870.052063,93.346283 868.530945,91.486794 
	C866.174133,94.444145 864.072998,96.912003 862.156982,99.516052 
	C855.944763,107.958878 849.801697,116.452499 843.629578,124.924835 
	C838.859985,131.471970 834.163208,132.833572 824.802551,129.854248 
	C827.186890,126.478752 829.365051,123.265968 831.673584,120.149818 
	C840.394348,108.378777 849.079529,96.579758 857.959839,84.929787 
	C860.161865,82.040947 860.168762,80.040016 857.901306,77.088371 
	C849.996460,66.798088 842.426147,56.250759 834.521240,45.503117 
z"/>
<path fill="#2E3069" opacity="1.000000" stroke="none" 
	d="
M730.235046,98.322243 
	C725.981689,107.781250 721.677002,116.808929 717.877686,126.044495 
	C716.270935,129.950348 713.989380,131.485153 709.938538,131.098694 
	C707.675476,130.882797 705.374817,131.059875 701.887085,131.059875 
	C705.341003,123.304192 708.304199,116.527657 711.366638,109.796272 
	C721.985291,86.455475 732.714172,63.164341 743.211609,39.769257 
	C745.200256,35.337189 747.547119,33.067051 752.873108,33.153065 
	C758.062744,33.236877 759.582825,36.054180 761.337280,39.944149 
	C773.388916,66.664696 785.618408,93.304947 797.759888,119.985054 
	C799.242065,123.241928 800.541504,126.581970 801.949463,129.940353 
	C791.883057,133.016800 788.791992,131.584991 784.995544,123.041824 
	C775.054871,100.672272 765.046326,78.332848 755.040710,55.992191 
	C754.377136,54.510529 753.510681,53.119740 751.975769,50.270847 
	C744.430969,66.943207 737.409546,82.459091 730.235046,98.322243 
z"/>
<path fill="#ACA959" opacity="1.000000" stroke="none" 
	d="
M763.150757,131.177124 
	C755.170166,131.158112 747.557617,131.158112 739.071167,131.158112 
	C743.428833,121.262589 747.467163,112.092255 752.039490,101.709358 
	C756.877197,111.530998 761.195801,120.225121 765.351135,128.996597 
	C765.522888,129.359024 764.164307,130.446472 763.150757,131.177124 
z"/>
<path fill="#CCBF44" opacity="1.000000" stroke="none" 
	d="
M643.636230,142.114502 
	C647.908447,141.269730 649.875549,142.696625 651.160950,146.667694 
	C653.758789,154.693420 657.065796,162.489594 660.216064,170.735748 
	C656.689941,170.916580 653.750671,172.314438 651.682129,167.776077 
	C650.990845,166.259537 646.152588,166.006317 643.331421,166.308517 
	C641.458801,166.509109 639.801636,168.721329 638.559814,170.885910 
	C636.603149,170.885910 634.646423,170.885910 631.598022,170.885910 
	C635.614990,161.000076 639.430725,151.609344 643.636230,142.114502 
M648.832581,157.687759 
	C648.006287,155.691437 647.179993,153.695114 646.004150,150.854340 
	C644.773682,153.978287 643.906067,156.074844 643.131836,158.205307 
	C642.863647,158.943268 642.827332,159.765503 642.526184,161.425522 
	C644.827820,159.543396 648.716370,163.953598 648.832581,157.687759 
z"/>
<path fill="#D0C13E" opacity="1.000000" stroke="none" 
	d="
M383.895081,147.455322 
	C386.290863,150.697586 388.686615,153.939835 391.082397,157.182083 
	C391.561157,157.127380 392.039886,157.072678 392.518646,157.017975 
	C392.518646,152.935242 392.518646,148.852493 393.015381,144.343781 
	C396.916138,142.816071 397.996216,144.471771 397.979614,147.592606 
	C397.948212,153.505249 397.818542,159.424393 398.044159,165.328842 
	C398.190002,169.145477 396.457977,170.343140 393.015411,169.993790 
	C390.001709,165.831787 387.020477,161.645630 383.956177,157.521210 
	C382.922668,156.130188 381.597565,154.322952 381.007019,158.119171 
	C380.608185,158.217163 380.341156,158.103363 380.074097,157.989563 
	C380.051208,158.154251 380.009735,158.318787 380.008240,158.483673 
	C379.987244,160.814377 380.170227,163.169891 379.883667,165.466995 
	C379.698639,166.949936 378.827362,168.347229 378.263641,169.782913 
	C377.735779,169.692871 377.207916,169.602829 376.680054,169.512772 
	C376.460052,167.984116 376.072876,166.457886 376.050568,164.926346 
	C375.975342,159.766068 376.173004,154.598907 375.992554,149.443954 
	C375.827850,144.739166 377.753235,143.371826 382.053864,145.014664 
	C382.053864,145.014664 382.184113,145.129593 382.297516,145.508682 
	C382.726898,146.233200 383.042908,146.578613 383.358887,146.924026 
	C383.358887,146.924026 383.182465,146.864441 383.230835,146.922211 
	C383.363129,147.288940 383.568420,147.447388 383.895081,147.455322 
z"/>
<path fill="#C5BA4D" opacity="1.000000" stroke="none" 
	d="
M412.737366,146.785004 
	C417.445770,141.299942 423.237213,140.440277 429.334015,142.312531 
	C434.022888,143.752411 436.859741,147.412994 438.141449,152.071350 
	C437.847412,152.611389 437.553375,153.151443 437.259308,153.691483 
	C434.870300,152.606979 432.144531,151.940887 430.164978,150.347641 
	C426.468414,147.372498 421.678711,147.160965 418.513977,150.467194 
	C415.414520,153.705200 415.619843,160.047943 418.926880,163.222580 
	C421.796326,165.977142 427.009308,165.520813 430.299011,162.781738 
	C432.278656,161.133392 434.901886,160.257965 438.073639,158.596344 
	C437.235138,166.678986 431.937134,171.405273 425.162384,171.657990 
	C417.734467,171.935043 410.845886,167.297012 410.310333,160.432373 
	C409.969177,156.059448 411.701874,151.524734 412.737366,146.785004 
M430.976105,146.620651 
	C431.262665,147.167755 431.549194,147.714844 431.835754,148.261948 
	C432.062897,148.126923 432.290039,147.991913 432.517181,147.856888 
	C432.033722,147.221603 431.550262,146.586319 430.607758,145.376007 
	C426.633270,143.851776 422.614868,141.382370 418.215485,146.006668 
	C414.886505,147.129593 412.749207,149.155334 412.530823,153.624603 
	C412.661041,156.511505 412.164001,159.610977 413.054962,162.240082 
	C414.789551,167.358582 419.423553,169.338562 424.346405,169.389435 
	C426.582550,169.412537 428.841217,167.255371 431.654572,165.930435 
	C432.571472,165.646469 433.488373,165.362518 434.405273,165.078552 
	C433.783234,164.529129 433.161163,163.979706 432.539124,163.430267 
	C431.996124,164.256088 431.453156,165.081894 430.089233,165.928848 
	C428.321869,166.245987 426.566315,166.695282 424.784851,166.854660 
	C420.040680,167.279083 416.069580,164.830429 415.124908,161.065872 
	C414.452484,158.386322 413.741150,155.716553 413.669769,152.809448 
	C415.469727,150.564590 417.269653,148.319733 419.932831,146.072952 
	C423.596161,146.073059 427.259460,146.073166 430.976105,146.620651 
z"/>
<path fill="#CEC03D" opacity="1.000000" stroke="none" 
	d="
M572.994873,150.879318 
	C570.485229,151.124695 568.271912,151.344727 565.844055,149.504318 
	C562.944641,147.306366 555.359192,148.911697 554.862793,151.784149 
	C554.244568,155.361115 554.111572,160.225220 556.065247,162.772064 
	C559.302795,166.992538 563.947205,165.952225 567.899292,160.873779 
	C566.358459,159.257996 564.982971,158.341019 562.292969,156.547668 
	C565.373535,156.267059 566.921448,156.024902 568.472534,156.002365 
	C575.068237,155.906494 575.056824,155.946747 573.514038,162.481445 
	C573.297607,163.398087 573.542114,164.423523 573.573242,165.398590 
	C573.573242,165.398590 573.621643,165.522446 573.221436,165.493713 
	C572.183411,165.690735 571.545532,165.916504 570.736328,166.358398 
	C565.557190,171.554245 558.400879,171.496841 552.893433,166.432755 
	C548.282654,162.193176 547.500183,153.076660 551.329163,148.207764 
	C555.789917,142.535477 563.288635,141.354782 568.980286,145.305145 
	C570.146790,146.114746 571.634644,146.461288 572.974365,147.021286 
	C572.974365,147.021286 573.000000,146.999390 572.992065,147.397751 
	C572.987793,148.823853 572.991333,149.851578 572.994873,150.879318 
z"/>
<path fill="#D5C73F" opacity="1.000000" stroke="none" 
	d="
M496.040771,143.129715 
	C498.688873,143.079544 501.336914,143.029373 504.794586,143.057617 
	C516.286194,146.320953 518.989685,150.517029 517.448303,161.410706 
	C517.312317,162.371994 517.484985,163.376938 517.514343,164.361618 
	C517.514343,164.361618 517.541504,164.444855 517.141724,164.419342 
	C515.852234,164.788696 514.754028,164.972595 514.106384,165.612488 
	C509.768372,169.898376 504.346619,170.380096 498.771606,169.883820 
	C497.494720,169.770157 495.289734,168.276047 495.292847,167.423828 
	C495.322723,159.324982 495.737061,151.227554 496.040771,143.129715 
M510.372528,150.023575 
	C507.204742,149.169220 504.036926,148.314865 500.444702,147.346054 
	C500.444702,153.935242 500.444702,159.299957 500.444702,164.732086 
	C504.769958,165.231323 508.792969,165.668259 511.452423,161.686798 
	C513.965576,157.924347 513.410889,154.181244 510.372528,150.023575 
z"/>
<path fill="#C8BA3E" opacity="1.000000" stroke="none" 
	d="
M466.130463,159.512924 
	C465.285217,159.586975 464.440002,159.661026 462.861267,159.713730 
	C454.882385,159.544815 454.882385,159.544815 456.243744,165.393906 
	C458.441315,165.293564 460.716064,165.189728 462.990814,165.085876 
	C464.452087,165.465683 465.913361,165.845520 467.253052,166.789429 
	C466.775116,168.260422 466.418762,169.167313 465.591858,170.049591 
	C461.652466,170.013123 458.178955,169.883987 454.716187,170.022797 
	C451.347168,170.157837 449.941010,168.804626 450.003754,165.373199 
	C450.133514,158.272629 450.021942,151.167648 450.425018,144.011322 
	C454.444489,143.664825 458.045349,143.319733 461.653595,143.093445 
	C464.937103,142.887543 466.095673,144.196793 464.273376,147.463989 
	C464.148743,147.625061 463.893494,147.942505 463.893494,147.942505 
	C463.893494,147.942505 463.438782,147.806915 462.889343,147.763245 
	C461.897888,147.793701 461.455902,147.867844 461.013885,147.941971 
	C459.939606,147.887390 458.865356,147.832809 457.018219,147.885498 
	C454.890503,150.976227 454.304352,153.992935 458.487061,154.820541 
	C460.927460,155.303436 463.592377,154.651688 466.156281,154.510437 
	C466.170319,154.742676 466.291290,154.881836 466.515198,155.335632 
	C466.384338,156.999863 466.257416,158.256393 466.130463,159.512924 
z"/>
<path fill="#CCBF44" opacity="1.000000" stroke="none" 
	d="
M623.031006,147.881042 
	C621.876099,147.998749 620.721191,148.116455 619.112549,148.280396 
	C619.112549,155.642929 619.112549,163.051880 619.112549,170.743958 
	C616.769836,170.743958 614.873535,170.743958 612.246216,170.743958 
	C612.246216,163.385345 612.246216,156.107605 611.747192,148.176819 
	C610.616882,147.349930 609.952393,147.250519 609.360901,146.987167 
	C608.011780,146.386536 606.698364,145.705551 605.370483,145.057190 
	C606.840454,144.385162 608.294067,143.180389 609.783203,143.134796 
	C615.731262,142.952682 621.690369,143.130997 627.645386,143.175934 
	C627.712524,143.842850 627.779663,144.509766 627.455566,145.611740 
	C625.719910,146.658218 624.375488,147.269638 623.031006,147.881042 
z"/>
<path fill="#BDB24B" opacity="1.000000" stroke="none" 
	d="
M328.183746,144.993881 
	C328.183746,153.571594 328.183746,162.149307 328.183746,170.477188 
	C323.959229,171.980042 321.723480,170.603638 319.796844,167.494308 
	C317.337158,163.524612 314.404938,159.847672 311.676392,156.044556 
	C311.169800,156.192581 310.663177,156.340607 310.156586,156.488632 
	C310.156586,160.677948 310.156586,164.867279 309.996124,168.993561 
	C309.590637,164.929520 309.345581,160.928482 309.102875,156.599854 
	C310.489227,154.765778 311.873291,153.259277 313.562347,151.420776 
	C312.722168,150.063339 311.512390,148.108719 310.438477,145.963287 
	C310.712311,145.492203 310.853516,145.213531 311.226501,145.010193 
	C311.455017,145.083893 311.928802,145.162308 311.928802,145.162308 
	C311.917542,145.462570 312.018890,145.718155 312.498413,146.362000 
	C313.453247,147.635178 314.142517,148.475418 314.831818,149.315674 
	C314.831818,149.315674 314.901703,149.700821 315.119324,150.160126 
	C316.999023,152.990784 318.661072,155.362122 321.103729,158.847198 
	C321.103729,154.797760 321.103729,152.400467 321.103699,150.003189 
	C321.232147,147.587097 321.360596,145.171021 321.547333,141.658508 
	C323.862793,142.212646 325.923706,142.705872 328.023804,143.849182 
	C328.103271,144.664154 328.143494,144.829025 328.183746,144.993881 
M319.287109,162.662582 
	C321.004242,164.687195 322.721375,166.711792 324.737335,169.088715 
	C327.143585,162.234589 326.427979,147.636154 323.224579,145.118759 
	C323.429779,147.284943 323.908875,148.874130 323.652527,150.334213 
	C323.058228,153.718994 324.889771,158.107635 319.540863,159.688385 
	C318.937653,159.724350 318.334473,159.760315 317.731262,159.796265 
	C318.130096,160.564789 318.528900,161.333298 319.287109,162.662582 
M315.869720,156.597992 
	C315.849365,156.837036 315.828979,157.076096 315.808624,157.315140 
	C315.943878,157.318848 316.079102,157.322556 316.214355,157.326263 
	C316.205902,157.086121 316.197449,156.845963 315.869720,156.597992 
z"/>
<path fill="#D3C441" opacity="1.000000" stroke="none" 
	d="
M265.001953,148.194366 
	C264.361420,149.828903 263.018066,151.615570 263.327301,153.044556 
	C263.533722,153.998276 266.089020,154.994858 267.600525,155.006485 
	C271.389038,155.035675 274.967560,154.752335 273.209656,161.065384 
	C270.477783,161.065384 267.541687,161.065384 263.914795,161.304962 
	C262.508850,164.291382 261.793701,167.038208 260.810913,170.813156 
	C259.497711,169.062729 258.627136,168.441116 258.609711,167.796448 
	C258.416901,160.665695 258.064301,153.511963 258.535950,146.416351 
	C258.618591,145.172714 262.238159,143.450073 264.355896,143.232971 
	C267.127228,142.948868 270.823151,141.739990 273.107239,145.878601 
	C269.910950,146.791809 267.456451,147.493088 265.001953,148.194366 
z"/>
<path fill="#CEC248" opacity="1.000000" stroke="none" 
	d="
M146.905411,102.898621 
	C147.785477,98.540230 148.581955,94.162697 149.573776,89.829880 
	C150.284546,86.724731 149.561157,84.984909 146.050354,84.989746 
	C123.421211,85.020973 100.790535,84.892120 78.164490,85.161552 
	C74.897934,85.200447 71.653496,87.096542 68.130478,87.988747 
	C68.279472,87.305695 68.696793,86.767097 69.370972,86.061859 
	C69.627815,85.895226 69.445358,85.907562 69.445358,85.907562 
	C70.490906,85.329216 71.536453,84.750877 73.284637,84.104904 
	C74.615318,83.793320 75.243378,83.549355 75.871437,83.305397 
	C85.160172,83.183990 94.448639,82.993431 103.737709,82.956924 
	C118.690529,82.898155 133.643814,82.919807 148.596725,82.965027 
	C150.719849,82.971443 153.823120,82.116806 152.228882,86.760834 
	C151.776428,87.785461 151.733398,88.338417 151.690353,88.891380 
	C151.298050,91.160782 150.905731,93.430176 150.278564,96.207626 
	C150.025681,96.968094 149.972946,97.212868 149.885529,97.450005 
	C149.611496,98.579597 149.337479,99.709190 148.591888,101.229477 
	C147.778458,102.095818 147.436615,102.571480 147.046844,103.010742 
	C146.998947,102.974342 146.905411,102.898621 146.905411,102.898621 
z"/>
<path fill="#CFC34F" opacity="1.000000" stroke="none" 
	d="
M291.537201,170.172379 
	C285.168427,172.104996 283.916962,171.361389 284.066620,165.205841 
	C284.190613,160.106766 284.768250,155.019913 284.956848,149.920700 
	C285.045990,147.509903 284.695038,145.082825 284.522095,142.321655 
	C286.526642,142.321655 288.750000,142.321655 291.514099,142.321655 
	C291.514099,150.984177 291.514099,159.435089 291.417664,168.686371 
	C291.393188,169.715286 291.465210,169.943832 291.537201,170.172379 
z"/>
<path fill="#090A21" opacity="1.000000" stroke="none" 
	d="
M356.457642,34.123604 
	C356.833527,65.973625 356.883820,98.019096 356.946747,130.532791 
	C356.309784,129.446365 355.099609,127.893814 355.093750,126.336739 
	C354.983582,97.056992 355.000854,67.776672 355.066040,38.496639 
	C355.069153,37.103321 355.761017,35.711536 356.457642,34.123604 
z"/>
<path fill="#CEC248" opacity="1.000000" stroke="none" 
	d="
M88.454292,110.522339 
	C89.748947,109.588615 91.478233,108.155014 93.231369,108.125244 
	C105.161491,107.922646 117.102425,107.792984 129.027817,108.102928 
	C135.435226,108.269455 141.130951,106.940788 146.573837,103.003723 
	C146.905411,102.898621 146.998947,102.974342 147.045044,103.265846 
	C147.089203,103.727325 147.087250,103.897293 147.085312,104.067268 
	C144.168823,108.523590 140.092148,110.734726 134.721924,110.715790 
	C119.448074,110.661919 104.173973,110.681389 88.454292,110.522339 
z"/>
<path fill="#D1C44D" opacity="1.000000" stroke="none" 
	d="
M593.690186,169.148041 
	C591.749878,169.972137 589.809509,170.796234 587.001404,171.988892 
	C587.001404,162.057343 587.001404,153.494949 587.036438,144.225189 
	C587.028809,143.353989 586.986084,143.190170 586.943420,143.026337 
	C586.943420,143.026337 587.025635,142.951279 587.242981,142.696198 
	C588.303467,142.256119 589.146606,142.071136 589.989746,141.886154 
	C590.441528,141.911835 590.893372,141.937531 591.897705,142.011261 
	C592.450256,142.059311 592.914856,142.013763 592.914856,142.013763 
	C592.914856,142.013763 592.943542,142.098602 593.044617,142.544388 
	C593.327209,151.709457 593.508728,160.428757 593.690186,169.148041 
z"/>
<path fill="#D5C842" opacity="1.000000" stroke="none" 
	d="
M684.989746,170.844772 
	C684.240906,170.896149 683.492126,170.947525 682.015137,170.737915 
	C679.144897,170.318680 677.003601,170.044724 674.860657,170.031204 
	C672.128540,170.013962 670.954041,168.734192 670.972717,166.059814 
	C671.016785,159.747543 670.946289,153.433884 671.059509,147.123230 
	C671.076477,146.175461 671.833618,145.240936 672.248413,144.300278 
	C672.674744,144.273819 673.101074,144.247360 673.527405,144.220901 
	C674.007080,145.767624 674.826721,147.298325 674.900574,148.864197 
	C675.096069,153.008148 675.079468,157.171188 674.935486,161.319275 
	C674.816345,164.752533 676.292542,166.236893 679.677368,166.002121 
	C680.834412,165.921860 682.005859,165.936646 683.164307,166.009537 
	C687.300781,166.269730 687.912109,167.899994 684.989746,170.844772 
z"/>
<path fill="#BDB24F" opacity="1.000000" stroke="none" 
	d="
M572.835815,146.715820 
	C571.634644,146.461288 570.146790,146.114746 568.980286,145.305145 
	C563.288635,141.354782 555.789917,142.535477 551.329163,148.207764 
	C547.500183,153.076660 548.282654,162.193176 552.893433,166.432755 
	C558.400879,171.496841 565.557190,171.554245 570.901062,166.520782 
	C571.481384,166.658112 571.737000,166.832352 572.004089,166.989792 
	C567.409424,173.112701 556.966187,173.199127 551.151550,167.162354 
	C545.617615,161.416992 545.752747,151.018768 551.433472,145.469727 
	C557.345764,139.694489 566.773132,140.111511 572.835815,146.715820 
z"/>
<path fill="#D7C93F" opacity="1.000000" stroke="none" 
	d="
M530.366089,168.856766 
	C530.317078,161.258636 530.268005,153.660522 530.626282,145.484680 
	C534.376221,143.214188 535.159546,145.052414 535.164795,147.918686 
	C535.175781,153.871109 535.113831,159.824356 535.193848,165.775742 
	C535.244751,169.557053 533.772949,170.645508 530.366089,168.856766 
z"/>
<path fill="#C4B957" opacity="1.000000" stroke="none" 
	d="
M343.093597,154.990463 
	C344.337524,151.766037 345.710419,148.583740 346.781799,145.302963 
	C347.544861,142.966324 348.710846,141.164673 351.293488,142.056686 
	C352.975464,142.637589 355.075531,143.878937 355.692108,145.362976 
	C359.111053,153.591980 362.132629,161.986084 365.421906,170.671234 
	C361.902039,171.022141 358.469025,172.551071 357.231964,167.299927 
	C357.118591,166.925980 357.078278,166.896652 357.405090,166.977722 
	C359.191772,167.861908 360.651611,168.665039 362.111450,169.468155 
	C360.012604,161.190506 357.194397,153.615555 353.965912,146.219711 
	C352.702545,143.325546 349.956421,143.618942 348.377136,146.693893 
	C347.014343,149.347397 346.036591,152.198669 344.589417,154.966187 
	C343.891357,154.976730 343.492462,154.983597 343.093597,154.990463 
z"/>
<path fill="#CBC165" opacity="1.000000" stroke="none" 
	d="
M685.423828,170.915100 
	C687.912109,167.899994 687.300781,166.269730 683.164307,166.009537 
	C682.005859,165.936646 680.834412,165.921860 679.677368,166.002121 
	C676.292542,166.236893 674.816345,164.752533 674.935486,161.319275 
	C675.079468,157.171188 675.096069,153.008148 674.900574,148.864197 
	C674.826721,147.298325 674.007080,145.767624 673.527405,144.220901 
	C673.101074,144.247360 672.674744,144.273819 672.248413,144.300278 
	C671.833618,145.240936 671.076477,146.175461 671.059509,147.123230 
	C670.946289,153.433884 671.016785,159.747543 670.972717,166.059814 
	C670.954041,168.734192 672.128540,170.013962 674.860657,170.031204 
	C677.003601,170.044724 679.144897,170.318680 681.644836,170.665863 
	C678.022400,170.854797 674.042114,170.854797 669.797485,170.854797 
	C669.797485,161.257980 669.797485,151.821655 669.797485,142.172119 
	C671.811401,142.172119 673.600098,142.172119 675.904785,142.172119 
	C675.904785,149.625839 675.904785,157.045761 675.904785,164.917664 
	C680.153564,164.917664 683.912842,164.917664 689.521118,164.917664 
	C687.863281,167.663712 686.860535,169.324570 685.423828,170.915100 
z"/>
<path fill="#CEC248" opacity="1.000000" stroke="none" 
	d="
M52.096760,146.832123 
	C51.861946,151.057755 51.800613,155.667526 50.851311,160.086548 
	C49.866158,164.672485 50.301258,166.009613 55.030689,165.943497 
	C75.080627,165.663177 70.533714,169.157074 75.725060,150.320908 
	C76.218842,148.529251 77.261765,146.888962 78.380844,145.056946 
	C78.600754,145.872543 78.489571,146.809586 78.200119,148.179855 
	C78.021843,148.613068 77.972168,148.658676 77.972168,148.658676 
	C77.758354,150.063477 77.544540,151.468262 77.197556,153.178772 
	C77.064384,153.484497 77.129295,153.341293 77.129295,153.341293 
	C76.325043,157.169342 75.706955,161.051910 74.610992,164.794525 
	C74.249535,166.028824 72.653542,166.901611 70.884552,167.673676 
	C63.810307,167.524078 57.473541,167.640457 51.136776,167.756851 
	C48.211048,168.345810 47.602516,166.657516 47.977428,164.332047 
	C48.369938,161.897476 49.006760,159.502289 49.748657,156.679321 
	C49.977917,156.021515 50.025642,155.780258 50.103691,155.545029 
	C50.695831,152.740845 51.287975,149.936646 52.096760,146.832123 
z"/>
<path fill="#CABE50" opacity="1.000000" stroke="none" 
	d="
M342.995117,155.337402 
	C343.492462,154.983597 343.891357,154.976730 344.588776,155.344696 
	C343.355164,160.120956 341.822968,164.522385 340.107056,169.451675 
	C344.236694,166.768539 347.407410,164.708435 349.982391,163.035385 
	C349.454803,162.549576 348.385376,161.564774 347.709442,160.714722 
	C350.332458,160.886292 352.561951,160.923126 355.025085,161.245132 
	C355.553833,162.984482 355.848999,164.438660 356.132660,165.895187 
	C356.121124,165.897552 356.119354,165.918640 356.119354,165.918640 
	C353.642334,165.962143 351.151093,165.864227 348.694611,166.111557 
	C347.545471,166.227280 345.675903,166.796799 345.478668,167.525070 
	C344.183899,172.306381 340.823303,171.045654 337.181793,170.737778 
	C339.169098,165.502975 341.032867,160.593658 342.995117,155.337402 
M353.529602,163.499313 
	C353.529602,163.499313 353.487366,163.514313 353.529602,163.499313 
z"/>
<path fill="#C4B957" opacity="1.000000" stroke="none" 
	d="
M495.648193,143.061584 
	C495.737061,151.227554 495.322723,159.324982 495.292847,167.423828 
	C495.289734,168.276047 497.494720,169.770157 498.771606,169.883820 
	C504.346619,170.380096 509.768372,169.898376 514.106384,165.612488 
	C514.754028,164.972595 515.852234,164.788696 517.109497,164.449005 
	C514.544556,169.170471 510.149445,171.013260 504.824493,171.036865 
	C501.350433,171.052261 497.876251,171.039764 493.891296,171.039764 
	C493.891296,161.880569 493.875061,152.979736 493.948914,144.079666 
	C493.951935,143.714005 494.800842,143.355362 495.648193,143.061584 
z"/>
<path fill="#C0B664" opacity="1.000000" stroke="none" 
	d="
M265.452881,148.135315 
	C267.456451,147.493088 269.910950,146.791809 273.107239,145.878601 
	C270.823151,141.739990 267.127228,142.948868 264.355896,143.232971 
	C262.238159,143.450073 258.618591,145.172714 258.535950,146.416351 
	C258.064301,153.511963 258.416901,160.665695 258.609711,167.796448 
	C258.627136,168.441116 259.497711,169.062729 260.810913,170.813156 
	C261.793701,167.038208 262.508850,164.291382 263.444763,161.353394 
	C263.665497,164.285248 263.665497,167.408249 263.665497,170.783493 
	C261.216736,170.783493 259.333862,170.783493 257.212799,170.783493 
	C257.212799,161.245316 257.212799,151.883011 257.212799,142.228333 
	C262.997498,142.228333 268.546631,142.228333 274.405640,142.228333 
	C274.405640,144.108322 274.405640,145.819382 274.405640,148.076248 
	C271.449554,148.076248 268.676666,148.076248 265.452881,148.135315 
z"/>
<path fill="#ABA24E" opacity="1.000000" stroke="none" 
	d="
M530.270630,169.273758 
	C533.772949,170.645508 535.244751,169.557053 535.193848,165.775742 
	C535.113831,159.824356 535.175781,153.871109 535.164795,147.918686 
	C535.159546,145.052414 534.376221,143.214188 530.691711,145.030029 
	C529.852234,138.932465 534.277039,143.133270 536.645752,141.711792 
	C536.645752,151.686920 536.645752,161.053284 536.645752,171.554596 
	C534.286682,170.875046 532.230957,170.282898 530.270630,169.273758 
z"/>
<path fill="#CBC165" opacity="1.000000" stroke="none" 
	d="
M310.997955,144.936493 
	C310.853516,145.213531 310.712311,145.492203 310.117401,145.771515 
	C306.548340,143.423935 305.107574,144.562347 305.065521,148.097122 
	C304.992279,154.249161 304.992249,160.403229 305.077148,166.554855 
	C305.091217,167.574829 305.692444,168.586700 306.342041,170.586655 
	C310.648376,165.992508 308.204529,161.105408 309.100555,156.927460 
	C309.345581,160.928482 309.590637,164.929520 309.894409,169.372726 
	C308.136322,170.335220 306.319458,170.855530 303.875061,171.555542 
	C303.875061,161.435043 303.875061,152.184082 304.363953,142.469147 
	C306.515656,142.062286 308.178436,142.119370 309.841248,142.176453 
	C309.841248,142.176453 309.977356,142.026428 309.955017,142.393097 
	C310.287750,143.485352 310.642853,144.210922 310.997955,144.936493 
z"/>
<path fill="#CBC165" opacity="1.000000" stroke="none" 
	d="
M381.959259,144.637543 
	C377.753235,143.371826 375.827850,144.739166 375.992554,149.443954 
	C376.173004,154.598907 375.975342,159.766068 376.050568,164.926346 
	C376.072876,166.457886 376.460052,167.984116 376.680054,169.512772 
	C377.207916,169.602829 377.735779,169.692871 378.263641,169.782913 
	C378.827362,168.347229 379.698639,166.949936 379.883667,165.466995 
	C380.170227,163.169891 379.987244,160.814377 380.008240,158.483673 
	C380.009735,158.318787 380.051208,158.154251 380.074097,157.989563 
	C380.341156,158.103363 380.608185,158.217163 380.904419,158.560791 
	C380.933624,162.721069 380.933624,166.651535 380.933624,170.797363 
	C378.905945,170.797363 377.163452,170.797363 375.130493,170.797363 
	C375.130493,161.314285 375.130493,151.945999 375.130493,141.123672 
	C377.728821,142.333954 379.796753,143.297180 381.959259,144.637543 
z"/>
<path fill="#090A21" opacity="1.000000" stroke="none" 
	d="
M394.850281,33.316345 
	C385.334381,33.668732 375.593872,33.729065 365.387512,33.689327 
	C365.271729,33.237988 365.625244,32.576756 365.971344,32.580620 
	C375.523254,32.687164 385.074402,32.861343 394.850281,33.316345 
z"/>
<path fill="#C4B957" opacity="1.000000" stroke="none" 
	d="
M517.731812,164.077972 
	C517.484985,163.376938 517.312317,162.371994 517.448303,161.410706 
	C518.989685,150.517029 516.286194,146.320953 505.234283,143.054810 
	C509.287994,141.526062 514.031555,143.296646 516.944153,147.746750 
	C520.288330,152.856308 520.462646,158.266403 517.731812,164.077972 
z"/>
<path fill="#C9BF5F" opacity="1.000000" stroke="none" 
	d="
M573.772278,165.091156 
	C573.542114,164.423523 573.297607,163.398087 573.514038,162.481445 
	C575.056824,155.946747 575.068237,155.906494 568.472534,156.002365 
	C566.921448,156.024902 565.373535,156.267059 562.292969,156.547668 
	C564.982971,158.341019 566.358459,159.257996 567.857849,160.479935 
	C560.195557,161.415176 559.994019,161.279282 560.239319,154.813339 
	C565.261780,154.813339 570.313416,154.813339 576.773254,154.813339 
	C575.716370,158.574097 574.843872,161.678925 573.772278,165.091156 
z"/>
<path fill="#393310" opacity="1.000000" stroke="none" 
	d="
M593.928711,168.874756 
	C593.508728,160.428757 593.327209,151.709457 593.087585,142.531799 
	C593.567566,142.810165 594.575500,143.549469 594.571533,144.283234 
	C594.527344,152.389801 594.326050,160.495529 593.928711,168.874756 
z"/>
<path fill="#CEC248" opacity="1.000000" stroke="none" 
	d="
M65.309845,90.857407 
	C64.048912,97.721947 62.500969,104.820190 60.590714,111.987396 
	C60.718460,109.419724 61.208527,106.783081 61.820339,103.819107 
	C61.942081,103.491776 61.889702,103.634941 61.889702,103.634941 
	C62.437992,100.843338 62.986286,98.051735 63.747688,94.863693 
	C63.960800,94.467247 63.958248,94.601395 63.958248,94.601395 
	C64.313110,93.431297 64.667976,92.261200 65.309845,90.857407 
z"/>
<path fill="#090A21" opacity="1.000000" stroke="none" 
	d="
M369.415344,129.823288 
	C369.083527,122.623161 369.090179,115.246307 369.195190,107.404266 
	C369.784546,107.565361 370.719055,108.206390 370.698792,108.815697 
	C370.467926,115.762108 370.091400,122.703690 369.415344,129.823288 
z"/>
<path fill="#C9BF5F" opacity="1.000000" stroke="none" 
	d="
M450.009613,144.064484 
	C450.021942,151.167648 450.133514,158.272629 450.003754,165.373199 
	C449.941010,168.804626 451.347168,170.157837 454.716187,170.022797 
	C458.178955,169.883987 461.652466,170.013123 465.565613,170.256256 
	C466.009979,170.487549 465.964355,170.902802 465.964355,170.902802 
	C460.519196,170.902802 455.074066,170.902802 449.185089,170.902802 
	C449.185089,161.351547 449.185089,151.970810 449.575165,142.707886 
	C449.980042,143.238632 449.994812,143.651566 450.009613,144.064484 
z"/>
<path fill="#C0B664" opacity="1.000000" stroke="none" 
	d="
M393.203369,170.367706 
	C396.457977,170.343140 398.190002,169.145477 398.044159,165.328842 
	C397.818542,159.424393 397.948212,153.505249 397.979614,147.592606 
	C397.996216,144.471771 396.916138,142.816071 393.145081,143.957275 
	C392.834076,143.346451 392.855011,142.134918 392.951294,142.128906 
	C394.759796,142.015915 396.577209,142.045792 398.695892,142.045792 
	C398.695892,151.658630 398.695892,161.077393 398.695892,170.995560 
	C396.880463,170.908646 395.135925,170.825134 393.203369,170.367706 
z"/>
<path fill="#D4C434" opacity="1.000000" stroke="none" 
	d="
M51.503197,167.894470 
	C57.473541,167.640457 63.810307,167.524078 70.512466,167.569855 
	C64.541779,167.832047 58.205700,167.932053 51.503197,167.894470 
z"/>
<path fill="#140F04" opacity="1.000000" stroke="none" 
	d="
M462.988770,164.657471 
	C460.716064,165.189728 458.441315,165.293564 456.243744,165.393906 
	C454.882385,159.544815 454.882385,159.544815 462.560669,159.818939 
	C462.991302,161.373352 462.989044,162.801208 462.988770,164.657471 
z"/>
<path fill="#C5BC70" opacity="1.000000" stroke="none" 
	d="
M627.526733,142.762909 
	C621.690369,143.130997 615.731262,142.952682 609.783203,143.134796 
	C608.294067,143.180389 606.840454,144.385162 605.370483,145.057190 
	C606.698364,145.705551 608.011780,146.386536 609.360901,146.987167 
	C609.952393,147.250519 610.616882,147.349930 611.534424,147.749115 
	C609.160767,147.677750 606.500916,147.381027 603.920166,146.246368 
	C603.966187,144.843155 603.933105,144.277847 603.900024,143.712555 
	C604.477539,143.135147 605.055603,142.055954 605.632568,142.056519 
	C612.891174,142.063644 620.149597,142.226715 627.526733,142.762909 
z"/>
<path fill="#140F04" opacity="1.000000" stroke="none" 
	d="
M465.956390,154.210800 
	C463.592377,154.651688 460.927460,155.303436 458.487061,154.820541 
	C454.304352,153.992935 454.890503,150.976227 456.624390,147.982941 
	C457.207794,151.301163 458.585510,153.093491 462.303467,152.610687 
	C463.380035,152.470871 464.601471,153.446747 465.956390,154.210800 
z"/>
<path fill="#C5BC70" opacity="1.000000" stroke="none" 
	d="
M450.425018,144.011322 
	C449.994812,143.651566 449.980042,143.238632 449.947815,142.516891 
	C450.107452,142.137131 450.284515,142.066208 451.193146,141.978333 
	C456.957123,141.954758 461.989532,141.948151 467.021942,141.941559 
	C467.021942,141.941544 467.028717,142.001862 467.181305,142.394531 
	C467.087158,144.476105 466.840424,146.165024 466.593689,147.853943 
	C466.593689,147.853943 466.120758,147.692871 466.120758,147.692871 
	C466.120758,147.692871 465.621979,147.721786 465.289612,147.691650 
	C464.723755,147.615295 464.537323,147.495758 464.397980,147.302902 
	C466.095673,144.196793 464.937103,142.887543 461.653595,143.093445 
	C458.045349,143.319733 454.444489,143.664825 450.425018,144.011322 
z"/>
<path fill="#090A21" opacity="1.000000" stroke="none" 
	d="
M419.954071,107.692673 
	C418.084381,105.630669 416.106262,103.267921 414.358185,100.745735 
	C412.685120,98.331741 413.666748,96.803452 416.680817,96.083130 
	C414.413239,100.725777 419.524902,103.415222 419.954071,107.692673 
z"/>
<path fill="#120E03" opacity="1.000000" stroke="none" 
	d="
M466.717377,141.715485 
	C461.989532,141.948151 456.957123,141.954758 451.463318,141.884277 
	C456.080261,138.857605 461.233948,139.563202 466.717377,141.715485 
z"/>
<path fill="#CEC248" opacity="1.000000" stroke="none" 
	d="
M56.836636,126.380760 
	C58.657658,128.444489 57.670700,133.854065 54.727150,136.989761 
	C54.756710,135.089844 55.132877,133.112000 55.740288,130.794769 
	C55.971531,130.455383 55.962147,130.586761 55.962147,130.586761 
	C56.175205,129.325119 56.388268,128.063477 56.836636,126.380760 
z"/>
<path fill="#140F04" opacity="1.000000" stroke="none" 
	d="
M320.680481,150.006958 
	C321.103729,152.400467 321.103729,154.797760 321.103729,158.847198 
	C318.661072,155.362122 316.999023,152.990784 315.262817,150.293213 
	C316.878204,149.981583 318.567719,149.996155 320.680481,150.006958 
z"/>
<path fill="#CEC248" opacity="1.000000" stroke="none" 
	d="
M59.753998,113.358345 
	C61.892437,116.684021 60.909367,119.867546 58.001217,122.905548 
	C57.747124,122.200172 57.852360,121.378761 58.322327,119.985001 
	C58.867893,118.316917 59.048733,117.221184 59.229576,116.125450 
	C59.324825,115.316223 59.420071,114.506989 59.753998,113.358345 
z"/>
<path fill="#120E03" opacity="1.000000" stroke="none" 
	d="
M466.959351,147.810516 
	C466.840424,146.165024 467.087158,144.476105 467.203735,142.374054 
	C471.946198,143.688934 470.023102,145.711227 466.959351,147.810516 
z"/>
<path fill="#090A21" opacity="1.000000" stroke="none" 
	d="
M393.142151,101.511246 
	C395.571198,101.520889 398.189667,101.843224 400.967163,102.515594 
	C398.527985,102.518394 395.929810,102.171173 393.142151,101.511246 
z"/>
<path fill="#0B0D26" opacity="1.000000" stroke="none" 
	d="
M632.675781,97.087906 
	C632.016235,99.427795 631.585205,103.584862 628.029785,98.359299 
	C629.413330,97.731384 630.862305,97.441307 632.675781,97.087906 
z"/>
<path fill="#090A21" opacity="1.000000" stroke="none" 
	d="
M404.990631,108.402390 
	C406.297852,109.793968 407.627228,111.540619 409.029022,113.622360 
	C407.738556,112.224129 406.375671,110.490799 404.990631,108.402390 
z"/>
<path fill="#090A21" opacity="1.000000" stroke="none" 
	d="
M430.870392,122.839859 
	C429.617950,121.693275 428.374481,120.173714 427.066650,118.320572 
	C428.294678,119.480278 429.587006,120.973572 430.870392,122.839859 
z"/>
<path fill="#090A21" opacity="1.000000" stroke="none" 
	d="
M426.292755,88.909378 
	C427.056152,87.343895 428.160858,85.711716 429.556763,83.924728 
	C428.776642,85.460838 427.705353,87.151756 426.292755,88.909378 
z"/>
<path fill="#140F04" opacity="1.000000" stroke="none" 
	d="
M466.212769,171.066193 
	C465.964355,170.902802 466.009979,170.487549 466.036194,170.280884 
	C466.418762,169.167313 466.775116,168.260422 467.321533,167.105240 
	C469.341461,168.838165 469.849426,170.501831 466.212769,171.066193 
z"/>
<path fill="#140F04" opacity="1.000000" stroke="none" 
	d="
M466.508606,159.532990 
	C466.257416,158.256393 466.384338,156.999863 466.651855,155.388306 
	C469.414978,156.485809 469.978638,157.981308 466.508606,159.532990 
z"/>
<path fill="#090A21" opacity="1.000000" stroke="none" 
	d="
M413.952301,121.189171 
	C415.060699,122.088562 415.991150,123.219101 416.979675,124.665802 
	C415.949951,123.794754 414.862122,122.607536 413.952301,121.189171 
z"/>
<path fill="#090A21" opacity="1.000000" stroke="none" 
	d="
M428.101746,131.512619 
	C429.360199,131.154587 430.775787,131.079346 432.610291,131.085495 
	C431.439117,131.376404 429.848999,131.585907 428.101746,131.512619 
z"/>
<path fill="#CEC248" opacity="1.000000" stroke="none" 
	d="
M53.821289,139.316437 
	C53.663940,141.433044 53.287746,143.886215 52.573814,146.488525 
	C52.691532,144.309448 53.146988,141.981247 53.821289,139.316437 
z"/>
<path fill="#090A21" opacity="1.000000" stroke="none" 
	d="
M409.247192,114.992477 
	C410.248779,115.781380 411.201508,116.961372 412.252167,118.459900 
	C411.299500,117.646812 410.248932,116.515190 409.247192,114.992477 
z"/>
<path fill="#140F04" opacity="1.000000" stroke="none" 
	d="
M309.768982,141.863220 
	C308.178436,142.119370 306.515656,142.062286 304.436401,142.005798 
	C305.912201,141.854263 307.804474,141.702133 309.768982,141.863220 
z"/>
<path fill="#090A21" opacity="1.000000" stroke="none" 
	d="
M433.234833,62.738449 
	C432.798370,61.863113 432.546356,60.739777 432.373169,59.264969 
	C432.774445,60.105816 433.096832,61.298130 433.234833,62.738449 
z"/>
<path fill="#090A21" opacity="1.000000" stroke="none" 
	d="
M405.905609,34.585365 
	C404.879730,34.717346 403.722992,34.565880 402.276123,34.213688 
	C403.248932,34.109280 404.511841,34.205597 405.905609,34.585365 
z"/>
<path fill="#0B0D26" opacity="1.000000" stroke="none" 
	d="
M636.678711,90.102051 
	C636.291382,91.331551 635.578735,92.666603 634.591309,94.181770 
	C634.995544,92.977127 635.674438,91.592369 636.678711,90.102051 
z"/>
<path fill="#0B0D26" opacity="1.000000" stroke="none" 
	d="
M643.432861,79.011246 
	C643.034485,80.176529 642.323303,81.452103 641.336853,82.902634 
	C641.747742,81.758911 642.433899,80.440224 643.432861,79.011246 
z"/>
<path fill="#090A21" opacity="1.000000" stroke="none" 
	d="
M374.084167,101.503914 
	C375.042114,101.173286 376.140564,101.112038 377.646423,101.130226 
	C376.777405,101.397545 375.501038,101.585419 374.084167,101.503914 
z"/>
<path fill="#090A21" opacity="1.000000" stroke="none" 
	d="
M369.659149,103.992310 
	C370.043243,103.108864 370.698425,102.118782 371.710083,101.178314 
	C371.354431,102.113846 370.642334,102.999763 369.659149,103.992310 
z"/>
<path fill="#140F04" opacity="1.000000" stroke="none" 
	d="
M314.995270,149.090820 
	C314.142517,148.475418 313.453247,147.635178 312.677185,146.474396 
	C313.874542,146.652588 316.796448,145.600357 314.995270,149.090820 
z"/>
<path fill="#C5BC70" opacity="1.000000" stroke="none" 
	d="
M623.424194,147.953308 
	C624.375488,147.269638 625.719910,146.658218 627.370728,145.939590 
	C626.390442,146.563431 625.103882,147.294510 623.424194,147.953308 
z"/>
<path fill="#BDB24F" opacity="1.000000" stroke="none" 
	d="
M573.342896,150.931900 
	C572.991333,149.851578 572.987793,148.823853 572.981689,147.410522 
	C574.678650,148.081909 576.290161,149.154724 573.342896,150.931900 
z"/>
<path fill="#090A21" opacity="1.000000" stroke="none" 
	d="
M432.691528,75.955170 
	C432.525055,75.243721 432.585846,74.393539 432.828613,73.272079 
	C432.979980,73.939339 432.949371,74.877884 432.691528,75.955170 
z"/>
<path fill="#D4C434" opacity="1.000000" stroke="none" 
	d="
M59.034920,116.387550 
	C59.048733,117.221184 58.867893,118.316917 58.542007,119.628693 
	C58.544727,118.779709 58.692493,117.714676 59.034920,116.387550 
z"/>
<path fill="#090A21" opacity="1.000000" stroke="none" 
	d="
M432.249237,56.746052 
	C431.723145,56.209435 431.362183,55.436825 430.989502,54.336288 
	C431.456665,54.842255 431.935516,55.676159 432.249237,56.746052 
z"/>
<path fill="#090A21" opacity="1.000000" stroke="none" 
	d="
M434.406097,130.940414 
	C434.109467,130.266129 434.090485,129.500763 434.101440,128.353867 
	C434.315460,128.931335 434.499603,129.890350 434.406097,130.940414 
z"/>
<path fill="#090A21" opacity="1.000000" stroke="none" 
	d="
M419.062073,128.263092 
	C419.703979,128.705048 420.351898,129.496521 421.100800,130.584686 
	C420.490570,130.125107 419.779297,129.368866 419.062073,128.263092 
z"/>
<path fill="#140F04" opacity="1.000000" stroke="none" 
	d="
M311.226501,145.010193 
	C310.642853,144.210922 310.287750,143.485352 309.878662,142.459610 
	C310.524078,142.927612 311.223511,143.695770 311.925873,144.813110 
	C311.928802,145.162308 311.455017,145.083893 311.226501,145.010193 
z"/>
<path fill="#090A21" opacity="1.000000" stroke="none" 
	d="
M423.763916,113.000671 
	C423.228302,112.753716 422.671783,112.181404 422.055359,111.307404 
	C422.578003,111.562248 423.160522,112.118774 423.763916,113.000671 
z"/>
<path fill="#0B0D26" opacity="1.000000" stroke="none" 
	d="
M638.656738,87.077606 
	C638.560303,87.650177 638.164124,88.327942 637.500122,89.153389 
	C637.607178,88.594978 637.982117,87.888893 638.656738,87.077606 
z"/>
<path fill="#090A21" opacity="1.000000" stroke="none" 
	d="
M429.804932,50.937210 
	C429.303619,50.676132 428.773956,50.102940 428.196289,49.230141 
	C428.691071,49.495388 429.233826,50.060238 429.804932,50.937210 
z"/>
<path fill="#090A21" opacity="1.000000" stroke="none" 
	d="
M431.451263,79.986916 
	C431.360870,79.522240 431.493073,78.975212 431.818054,78.214882 
	C431.898499,78.635902 431.786194,79.270233 431.451263,79.986916 
z"/>
<path fill="#090A21" opacity="1.000000" stroke="none" 
	d="
M433.806213,126.927429 
	C433.273926,126.697906 432.702515,126.149811 432.063293,125.301804 
	C432.586029,125.537537 433.176575,126.073196 433.806213,126.927429 
z"/>
<path fill="#D4C434" opacity="1.000000" stroke="none" 
	d="
M151.875595,88.706108 
	C151.733398,88.338417 151.776428,87.785461 151.973572,87.121643 
	C152.105392,87.514145 152.083115,88.017487 151.875595,88.706108 
z"/>
<path fill="#090A21" opacity="1.000000" stroke="none" 
	d="
M419.999146,94.768539 
	C420.252991,94.243515 420.833252,93.697220 421.715271,93.087898 
	C421.453156,93.599007 420.889343,94.173134 419.999146,94.768539 
z"/>
<path fill="#D4C434" opacity="1.000000" stroke="none" 
	d="
M147.264938,103.865944 
	C147.087250,103.897293 147.089203,103.727325 147.092957,103.302246 
	C147.436615,102.571480 147.778458,102.095818 148.177536,101.410553 
	C147.971359,102.022163 147.707962,102.843391 147.264938,103.865944 
z"/>
<path fill="#090A21" opacity="1.000000" stroke="none" 
	d="
M426.756927,117.013290 
	C426.212250,116.778389 425.642334,116.212463 424.986816,115.350555 
	C425.511383,115.597137 426.121552,116.139694 426.756927,117.013290 
z"/>
<path fill="#0B0D26" opacity="1.000000" stroke="none" 
	d="
M656.709229,56.114891 
	C656.605835,56.677662 656.201843,57.348354 655.535522,58.172791 
	C655.651672,57.625290 656.030151,56.924049 656.709229,56.114891 
z"/>
<path fill="#140F04" opacity="1.000000" stroke="none" 
	d="
M461.082550,148.185181 
	C461.455902,147.867844 461.897888,147.793701 462.661926,147.830872 
	C462.373016,148.104233 461.762115,148.266312 461.082550,148.185181 
z"/>
<path fill="#0B0D26" opacity="1.000000" stroke="none" 
	d="
M645.587891,75.061066 
	C645.501526,75.621796 645.126892,76.302376 644.489624,77.135529 
	C644.584473,76.585701 644.942017,75.883308 645.587891,75.061066 
z"/>
<path fill="#0B0D26" opacity="1.000000" stroke="none" 
	d="
M650.676941,66.097740 
	C650.597168,66.671112 650.216003,67.356468 649.583618,68.210526 
	C649.680115,67.656052 650.027832,66.932884 650.676941,66.097740 
z"/>
<path fill="#0B0D26" opacity="1.000000" stroke="none" 
	d="
M654.812561,59.081131 
	C654.838684,59.560192 654.615967,60.085308 654.176514,60.803970 
	C654.161133,60.374069 654.362427,59.750629 654.812561,59.081131 
z"/>
<path fill="#393310" opacity="1.000000" stroke="none" 
	d="
M589.740845,141.741745 
	C589.146606,142.071136 588.303467,142.256119 587.212280,142.649750 
	C587.806824,142.438049 588.649414,142.017685 589.740845,141.741745 
z"/>
<path fill="#C9BF5F" opacity="1.000000" stroke="none" 
	d="
M572.237000,166.874420 
	C571.737000,166.832352 571.481384,166.658112 571.072449,166.304657 
	C571.545532,165.916504 572.183411,165.690735 573.165039,165.528900 
	C573.162537,165.981567 572.816223,166.370300 572.237000,166.874420 
z"/>
<path fill="#090A21" opacity="1.000000" stroke="none" 
	d="
M401.168091,103.174210 
	C401.690002,103.388084 402.257996,103.907013 402.884949,104.722031 
	C402.367340,104.505165 401.790771,103.992210 401.168091,103.174210 
z"/>
<path fill="#0B0D26" opacity="1.000000" stroke="none" 
	d="
M640.521973,84.049133 
	C640.443848,84.605316 640.087769,85.288177 639.466614,86.118454 
	C639.548950,85.569191 639.896484,84.872505 640.521973,84.049133 
z"/>
<path fill="#D4C434" opacity="1.000000" stroke="none" 
	d="
M75.612083,83.252853 
	C75.243378,83.549355 74.615318,83.793320 73.733627,84.081909 
	C74.104240,83.817795 74.728485,83.509048 75.612083,83.252853 
z"/>
<path fill="#D4C434" opacity="1.000000" stroke="none" 
	d="
M150.025803,97.379471 
	C149.972946,97.212868 150.025681,96.968094 150.046326,96.588974 
	C150.301254,96.697769 150.340302,96.979996 150.025803,97.379471 
z"/>
<path fill="#D4C434" opacity="1.000000" stroke="none" 
	d="
M49.960884,155.613907 
	C50.025642,155.780258 49.977917,156.021515 49.962349,156.392365 
	C49.688278,156.298431 49.639576,156.020706 49.960884,155.613907 
z"/>
<path fill="#CCBF44" opacity="1.000000" stroke="none" 
	d="
M603.791016,143.952515 
	C603.933105,144.277847 603.966187,144.843155 603.969727,145.834747 
	C603.854065,145.571518 603.768005,144.881989 603.791016,143.952515 
z"/>
<path fill="#635C1E" opacity="1.000000" stroke="none" 
	d="
M291.688934,170.031189 
	C291.465210,169.943832 291.393188,169.715286 291.422729,169.141754 
	C291.629730,169.161179 291.735199,169.525604 291.688934,170.031189 
z"/>
<path fill="#C4B957" opacity="1.000000" stroke="none" 
	d="
M357.143494,166.923553 
	C357.015717,166.622971 356.799072,166.382401 356.318970,166.059006 
	C356.119354,165.918640 356.121124,165.897552 356.324585,166.026276 
	C356.772888,166.356628 356.956299,166.603851 357.078278,166.896652 
	C357.078278,166.896652 357.118591,166.925980 357.143494,166.923553 
z"/>
<path fill="#D4C434" opacity="1.000000" stroke="none" 
	d="
M77.050552,153.355957 
	C77.129295,153.341293 77.064384,153.484497 77.075455,153.518967 
	C77.086525,153.553436 76.971817,153.370605 77.050552,153.355957 
z"/>
<path fill="#D4C434" opacity="1.000000" stroke="none" 
	d="
M78.053505,148.688660 
	C77.972168,148.658676 78.021843,148.613068 77.999763,148.611389 
	C77.977684,148.609711 78.134842,148.718643 78.053505,148.688660 
z"/>
<path fill="#120E03" opacity="1.000000" stroke="none" 
	d="
M464.273376,147.463989 
	C464.537323,147.495758 464.723755,147.615295 465.062378,147.795410 
	C464.955322,147.950958 464.743164,147.972580 464.212250,147.968353 
	C463.893494,147.942505 464.148743,147.625061 464.273376,147.463989 
z"/>
<path fill="#CBC165" opacity="1.000000" stroke="none" 
	d="
M383.795715,147.211578 
	C383.568420,147.447388 383.363129,147.288940 383.264069,146.835220 
	C383.398071,146.782944 383.547241,146.875397 383.795715,147.211578 
z"/>
<path fill="#CBC165" opacity="1.000000" stroke="none" 
	d="
M383.260956,146.568390 
	C383.042908,146.578613 382.726898,146.233200 382.242737,145.576080 
	C382.437378,145.580505 382.800201,145.896622 383.260956,146.568390 
z"/>
<path fill="#120E03" opacity="1.000000" stroke="none" 
	d="
M328.276337,144.885376 
	C328.143494,144.829025 328.103271,144.664154 328.128998,144.253433 
	C328.424072,144.227615 328.482056,144.484039 328.276337,144.885376 
z"/>
<path fill="#393310" opacity="1.000000" stroke="none" 
	d="
M586.822876,143.116394 
	C586.986084,143.190170 587.028809,143.353989 586.991089,143.758392 
	C586.644043,143.792725 586.574585,143.528564 586.822876,143.116394 
z"/>
<path fill="#393310" opacity="1.000000" stroke="none" 
	d="
M592.856323,141.876282 
	C592.914856,142.013763 592.450256,142.059311 592.235352,141.969940 
	C592.235962,141.610443 592.495056,141.563187 592.856323,141.876282 
z"/>
<path fill="#120E03" opacity="1.000000" stroke="none" 
	d="
M449.490723,139.510315 
	C449.482849,139.489059 449.498566,139.531586 449.490723,139.510315 
z"/>
<path fill="#D4C434" opacity="1.000000" stroke="none" 
	d="
M55.998627,130.564224 
	C55.962147,130.586761 55.971531,130.455383 55.977379,130.423981 
	C55.983223,130.392578 56.035103,130.541687 55.998627,130.564224 
z"/>
<path fill="#D4C434" opacity="1.000000" stroke="none" 
	d="
M61.959778,103.616722 
	C61.889702,103.634941 61.942081,103.491776 61.932583,103.457199 
	C61.923084,103.422623 62.029858,103.598503 61.959778,103.616722 
z"/>
<path fill="#D4C434" opacity="1.000000" stroke="none" 
	d="
M63.996048,94.570930 
	C63.958248,94.601395 63.960800,94.467247 63.958130,94.435776 
	C63.955456,94.404312 64.033852,94.540466 63.996048,94.570930 
z"/>
<path fill="#CEC248" opacity="1.000000" stroke="none" 
	d="
M65.849579,90.062820 
	C66.229279,90.282867 66.151199,90.513306 65.678452,90.642845 
	C65.527397,90.641029 65.635437,90.172295 65.849579,90.062820 
z"/>
<path fill="#D4C434" opacity="1.000000" stroke="none" 
	d="
M69.501160,85.974030 
	C69.445358,85.907562 69.627815,85.895226 69.654556,85.860550 
	C69.681297,85.825867 69.556961,86.040497 69.501160,85.974030 
z"/>
<path fill="#010103" opacity="1.000000" stroke="none" 
	d="
M541.640747,85.527100 
	C538.103699,119.023422 501.732269,128.104492 480.994873,113.096954 
	C467.252686,103.151833 462.775208,88.206551 466.896179,71.936592 
	C470.971527,55.846790 485.088745,45.325050 501.239349,44.973976 
	C525.944336,44.436951 542.809814,61.157597 541.640747,85.527100 
z"/>
<path fill="#010106" opacity="1.000000" stroke="none" 
	d="
M420.054901,68.873779 
	C419.220734,79.818588 414.332672,86.566116 404.019958,88.084381 
	C393.739716,89.597862 383.191406,89.398453 372.754089,89.588570 
	C371.565521,89.610214 369.308807,87.322815 369.282074,86.069069 
	C369.019531,73.765793 369.143005,61.454617 369.111816,49.145798 
	C369.105011,46.458248 370.282227,45.110302 373.004181,45.186642 
	C382.469971,45.452114 391.990173,45.172443 401.388245,46.113216 
	C413.678284,47.343479 419.909241,55.301861 420.054901,68.873779 
z"/>
<path fill="#010105" opacity="1.000000" stroke="none" 
	d="
M269.884369,57.022293 
	C269.885956,45.148560 269.893219,44.909828 281.213226,45.254089 
	C289.630920,45.510086 298.314148,45.362328 306.361450,47.419510 
	C317.081482,50.159943 322.033417,59.291786 320.701996,70.027496 
	C319.345673,80.963646 312.140411,88.157463 300.979736,88.957466 
	C292.369751,89.574638 283.710114,89.480316 275.074768,89.769478 
	C271.314209,89.895401 269.724274,88.380608 269.813202,84.450516 
	C270.016296,75.476860 269.882263,66.495590 269.884369,57.022293 
z"/>
<path fill="#211902" opacity="1.000000" stroke="none" 
	d="
M648.949158,158.037247 
	C648.716370,163.953598 644.827820,159.543396 642.526184,161.425522 
	C642.827332,159.765503 642.863647,158.943268 643.131836,158.205307 
	C643.906067,156.074844 644.773682,153.978287 646.004150,150.854340 
	C647.179993,153.695114 648.006287,155.691437 648.949158,158.037247 
z"/>
<path fill="#D7C832" opacity="1.000000" stroke="none" 
	d="
M431.089661,166.087234 
	C428.841217,167.255371 426.582550,169.412537 424.346405,169.389435 
	C419.423553,169.338562 414.789551,167.358582 413.054962,162.240082 
	C412.164001,159.610977 412.661041,156.511505 412.765076,153.311584 
	C412.999329,152.998566 413.047180,153.042435 413.047180,153.042435 
	C413.741150,155.716553 414.452484,158.386322 415.124908,161.065872 
	C416.069580,164.830429 420.040680,167.279083 424.784851,166.854660 
	C426.566315,166.695282 428.321869,166.245987 430.544373,165.963379 
	C430.999481,165.997910 431.089661,166.087234 431.089661,166.087234 
z"/>
<path fill="#D7C832" opacity="1.000000" stroke="none" 
	d="
M418.922089,145.919098 
	C422.614868,141.382370 426.633270,143.851776 430.800751,145.693451 
	C430.993744,146.010910 430.922791,146.073273 430.922791,146.073273 
	C427.259460,146.073166 423.596161,146.073059 419.463989,146.034302 
	C418.995148,145.995636 418.922089,145.919098 418.922089,145.919098 
z"/>
<path fill="#D7C832" opacity="1.000000" stroke="none" 
	d="
M412.975708,152.976288 
	C412.749207,149.155334 414.886505,147.129593 418.568787,145.962891 
	C418.922089,145.919098 418.995148,145.995636 419.032349,146.035248 
	C417.269653,148.319733 415.469727,150.564590 413.358459,152.925934 
	C413.047180,153.042435 412.999329,152.998566 412.975708,152.976288 
z"/>
<path fill="#D7C832" opacity="1.000000" stroke="none" 
	d="
M430.954834,165.952805 
	C431.453156,165.081894 431.996124,164.256088 432.539124,163.430267 
	C433.161163,163.979706 433.783234,164.529129 434.405273,165.078552 
	C433.488373,165.362518 432.571472,165.646469 431.372131,166.008835 
	C431.089661,166.087234 430.999481,165.997910 430.954834,165.952805 
z"/>
<path fill="#D7C832" opacity="1.000000" stroke="none" 
	d="
M431.030273,145.980972 
	C431.550262,146.586319 432.033722,147.221603 432.517181,147.856888 
	C432.290039,147.991913 432.062897,148.126923 431.835754,148.261948 
	C431.549194,147.714844 431.262665,147.167755 430.949463,146.346954 
	C430.922791,146.073273 430.993744,146.010910 431.030273,145.980972 
z"/>
<path fill="#120E03" opacity="1.000000" stroke="none" 
	d="
M510.649780,150.307373 
	C513.410889,154.181244 513.965576,157.924347 511.452423,161.686798 
	C508.792969,165.668259 504.769958,165.231323 500.444702,164.732086 
	C500.444702,159.299957 500.444702,153.935242 500.444702,147.346054 
	C504.036926,148.314865 507.204742,149.169220 510.649780,150.307373 
z"/>
<path fill="#D9C938" opacity="1.000000" stroke="none" 
	d="
M309.102875,156.599854 
	C308.204529,161.105408 310.648376,165.992508 306.342041,170.586655 
	C305.692444,168.586700 305.091217,167.574829 305.077148,166.554855 
	C304.992249,160.403229 304.992279,154.249161 305.065521,148.097122 
	C305.107574,144.562347 306.548340,143.423935 309.981537,145.962311 
	C311.512390,148.108719 312.722168,150.063339 313.562347,151.420776 
	C311.873291,153.259277 310.489227,154.765778 309.102875,156.599854 
z"/>
<path fill="#D7C832" opacity="1.000000" stroke="none" 
	d="
M320.053284,159.910034 
	C324.889771,158.107635 323.058228,153.718994 323.652527,150.334213 
	C323.908875,148.874130 323.429779,147.284943 323.224579,145.118759 
	C326.427979,147.636154 327.143585,162.234589 324.737335,169.088715 
	C322.721375,166.711792 321.004242,164.687195 319.249207,162.107529 
	C319.491974,161.005005 319.772614,160.457520 320.053284,159.910034 
z"/>
<path fill="#D9C938" opacity="1.000000" stroke="none" 
	d="
M319.797058,159.799210 
	C319.772614,160.457520 319.491974,161.005005 319.069519,161.827148 
	C318.528900,161.333298 318.130096,160.564789 317.731262,159.796265 
	C318.334473,159.760315 318.937653,159.724350 319.797058,159.799210 
z"/>
<path fill="#D9C938" opacity="1.000000" stroke="none" 
	d="
M316.029358,156.601898 
	C316.197449,156.845963 316.205902,157.086121 316.214355,157.326263 
	C316.079102,157.322556 315.943878,157.318848 315.808624,157.315140 
	C315.828979,157.076096 315.849365,156.837036 316.029358,156.601898 
z"/>
<path fill="#D6C637" opacity="1.000000" stroke="none" 
	d="
M357.405090,166.977722 
	C356.956299,166.603851 356.772888,166.356628 356.336121,166.023895 
	C355.848999,164.438660 355.553833,162.984482 355.079773,160.851868 
	C353.977020,157.199799 353.053131,154.226196 352.129272,151.252609 
	C351.751099,151.273804 351.372925,151.295013 350.994751,151.316223 
	C349.768463,154.404144 348.542206,157.492050 347.315948,160.579971 
	C348.385376,161.564774 349.454803,162.549576 349.982391,163.035385 
	C347.407410,164.708435 344.236694,166.768539 340.107056,169.451675 
	C341.822968,164.522385 343.355164,160.120956 344.887939,155.341003 
	C346.036591,152.198669 347.014343,149.347397 348.377136,146.693893 
	C349.956421,143.618942 352.702545,143.325546 353.965912,146.219711 
	C357.194397,153.615555 360.012604,161.190506 362.111450,169.468155 
	C360.651611,168.665039 359.191772,167.861908 357.405090,166.977722 
z"/>
<path fill="#282206" opacity="1.000000" stroke="none" 
	d="
M347.709442,160.714722 
	C348.542206,157.492050 349.768463,154.404144 350.994751,151.316223 
	C351.372925,151.295013 351.751099,151.273804 352.129272,151.252609 
	C353.053131,154.226196 353.977020,157.199799 354.846191,160.566681 
	C352.561951,160.923126 350.332458,160.886292 347.709442,160.714722 
z"/>
<path fill="#D6C637" opacity="1.000000" stroke="none" 
	d="
M353.508484,163.506805 
	C353.487366,163.514313 353.529602,163.499313 353.508484,163.506805 
z"/>
</svg>