<svg width="87" height="117" xmlns="http://www.w3.org/2000/svg" xmlns:xlink="http://www.w3.org/1999/xlink" xml:space="preserve" overflow="hidden"><g transform="translate(-596 -301)"><path d="M681.814 366.932C681.893 366.483 681.964 366.034 682.026 365.585L600.281 342.143C600.098 342.557 599.92 342.976 599.748 343.399Z" fill="#D1B929"/><path d="M681.445 350.343C681.332 349.833 681.208 349.33 681.078 348.83L609.967 328.436C609.592 328.792 609.221 329.153 608.854 329.525Z" fill="#D1B929"/><path d="M682.405 361.608C682.427 361.141 682.442 360.675 682.447 360.211L602.772 337.363C602.531 337.761 602.296 338.164 602.068 338.571Z" fill="#D1B929"/><path d="M682.308 356.083C682.268 355.598 682.221 355.115 682.165 354.633L605.958 332.78C605.654 333.158 605.357 333.543 605.068 333.933Z" fill="#D1B929"/><path d="M679.642 344.331C679.438 343.794 679.221 343.263 678.996 342.736L614.96 324.372C614.489 324.7 614.025 325.036 613.567 325.382Z" fill="#D1B929"/><path d="M680.777 371.43C680.84 371.213 680.897 370.994 680.955 370.777L598.431 347.112C598.366 347.327 598.298 347.543 598.236 347.76 598.174 347.976 598.116 348.196 598.058 348.413L680.583 372.078C680.652 371.86 680.719 371.645 680.777 371.43Z" fill="#D1B929"/><path d="M676.596 337.963C676.26 337.385 675.911 336.817 675.546 336.256L621.322 320.701C620.716 320.984 620.118 321.281 619.527 321.591Z" fill="#D1B929"/><path d="M627.473 318.377 671.564 331.021C670.973 330.356 670.364 329.712 669.733 329.087L630.045 317.709C629.179 317.905 628.321 318.128 627.473 318.377Z" fill="#D1B929"/><path d="M657.699 398.483C658.305 398.199 658.903 397.903 659.494 397.592L602.423 381.225C602.76 381.802 603.109 382.371 603.473 382.932Z" fill="#D1B929"/><path d="M664.062 394.813C664.533 394.485 664.997 394.15 665.455 393.803L599.379 374.855C599.583 375.391 599.799 375.921 600.025 376.449Z" fill="#D1B929"/><path d="M661.296 322.583C655.021 318.905 647.919 316.868 640.648 316.662Z" fill="#D1B929"/><path d="M648.977 401.476C649.845 401.279 650.704 401.056 651.554 400.806L607.462 388.162C608.054 388.826 608.664 389.47 609.293 390.095Z" fill="#D1B929"/><path d="M617.725 396.6C624 400.279 631.102 402.316 638.374 402.522Z" fill="#D1B929"/><path d="M676.251 381.822C676.489 381.425 676.724 381.023 676.956 380.615L596.618 357.577C596.596 358.044 596.582 358.509 596.576 358.974Z" fill="#D1B929"/><path d="M678.741 377.042C678.925 376.628 679.103 376.209 679.275 375.787L597.208 352.253C597.13 352.702 597.059 353.151 596.996 353.6Z" fill="#D1B929"/><path d="M669.056 390.749C669.431 390.393 669.802 390.031 670.169 389.66L597.577 368.844C597.69 369.353 597.815 369.856 597.944 370.357Z" fill="#D1B929"/><path d="M673.058 386.402C673.361 386.023 673.657 385.639 673.947 385.248L596.713 363.1C596.753 363.585 596.799 364.069 596.855 364.55Z" fill="#D1B929"/></g></svg>