<svg width="120" height="120" xmlns="http://www.w3.org/2000/svg" xmlns:xlink="http://www.w3.org/1999/xlink" xml:space="preserve" overflow="hidden"><defs><clipPath id="clip0"><rect x="774" y="241" width="120" height="120"/></clipPath></defs><g clip-path="url(#clip0)" transform="translate(-774 -241)"><path d="M871.642 254.255C871.147 253.854 870.646 253.463 870.141 253.082L786.081 337.137C786.465 337.643 786.856 338.143 787.255 338.639Z" fill="#D1B929"/><path d="M851.109 243.462C850.409 243.256 849.708 243.061 849.007 242.885L775.887 316.006C776.067 316.707 776.257 317.407 776.463 318.108Z" fill="#D1B929"/><path d="M865.536 249.923C864.98 249.578 864.421 249.245 863.857 248.922L781.928 330.85C782.252 331.414 782.586 331.974 782.929 332.529Z" fill="#D1B929"/><path d="M858.716 246.296C858.097 246.017 857.473 245.748 856.847 245.49L778.49 323.846C778.747 324.474 779.017 325.097 779.297 325.716Z" fill="#D1B929"/><path d="M842.534 241.592C841.74 241.478 840.944 241.383 840.147 241.302L774.301 307.149C774.384 307.949 774.479 308.742 774.592 309.536Z" fill="#D1B929"/><path d="M876.438 258.563C876.214 258.339 875.986 258.12 875.759 257.902L790.902 342.758C791.122 342.984 791.339 343.212 791.562 343.435 791.785 343.658 792.014 343.878 792.241 344.096L877.095 259.24C876.879 259.015 876.661 258.786 876.438 258.563Z" fill="#D1B929"/><path d="M832.687 241.001C831.753 241.02 830.819 241.062 829.885 241.128L774.133 296.879C774.066 297.813 774.024 298.748 774.005 299.682Z" fill="#D1B929"/><path d="M775.451 287.792 820.793 242.45C819.584 242.721 818.383 243.03 817.19 243.378L776.378 284.188C776.031 285.382 775.723 286.583 775.451 287.792Z" fill="#D1B929"/><path d="M893.873 305.118C893.936 304.184 893.979 303.249 894 302.315L835.313 361.001C836.247 360.98 837.181 360.938 838.115 360.874Z" fill="#D1B929"/><path d="M893.698 294.85C893.615 294.05 893.521 293.257 893.407 292.463L825.464 360.407C826.256 360.521 827.052 360.616 827.851 360.697Z" fill="#D1B929"/><path d="M803.517 249.285C794.767 254.464 787.464 261.767 782.286 270.517Z" fill="#D1B929"/><path d="M891.623 317.81C891.97 316.616 892.278 315.415 892.55 314.206L847.208 359.548C848.417 359.275 849.618 358.966 850.811 358.62Z" fill="#D1B929"/><path d="M864.483 352.715C873.233 347.536 880.536 340.233 885.714 331.483Z" fill="#D1B929"/><path d="M886.076 271.146C885.752 270.583 885.418 270.024 885.075 269.468L802.465 352.077C803.021 352.421 803.58 352.754 804.144 353.078Z" fill="#D1B929"/><path d="M881.919 264.863C881.535 264.356 881.145 263.856 880.746 263.361L796.358 347.749C796.853 348.15 797.354 348.541 797.859 348.922Z" fill="#D1B929"/><path d="M892.113 285.995C891.933 285.294 891.743 284.594 891.537 283.893L816.893 358.538C817.593 358.744 818.294 358.934 818.995 359.115Z" fill="#D1B929"/><path d="M889.512 278.154C889.253 277.527 888.983 276.904 888.704 276.285L809.285 355.703C809.904 355.982 810.528 356.253 811.154 356.51Z" fill="#D1B929"/></g></svg>