<svg width="190" height="48" xmlns="http://www.w3.org/2000/svg" xmlns:xlink="http://www.w3.org/1999/xlink" xml:space="preserve" overflow="hidden"><defs><linearGradient x1="23.9889" y1="44.4145" x2="23.9889" y2="2.644" gradientUnits="userSpaceOnUse" spreadMethod="pad" id="fill0"><stop offset="0" stop-color="#EC1C24"/><stop offset="1.11884e-07" stop-color="#EC1C24"/><stop offset="0.2218" stop-color="#C2181D"/><stop offset="0.4436" stop-color="#9F1418"/><stop offset="0.6534" stop-color="#861214"/><stop offset="0.8445" stop-color="#771112"/><stop offset="1" stop-color="#721011"/></linearGradient></defs><g transform="translate(-916 -496)"><path d="M4.84007 2.64729 43.138 2.64729C44.2863 2.64729 45.2272 3.65198 45.2272 4.88791L45.2272 42.1732C45.2272 43.4091 44.2863 44.4138 43.138 44.4138L4.84007 44.4138C3.69185 44.4138 2.75095 43.4012 2.75095 42.1732L2.75095 4.88791C2.74297 3.65198 3.68388 2.64729 4.84007 2.64729Z" stroke="#F6C427" stroke-width="2.39213" stroke-miterlimit="2.6131" fill="url(#fill0)" fill-rule="evenodd" transform="matrix(1.00503 0 0 1 916 496.011)"/><path d="M9.6004 8.59571 20.7158 22.494 18.6825 25.5399 12.6145 17.9808 12.4231 27.7567 9.6004 31.4804Z" fill="#F6C427" fill-rule="evenodd" transform="matrix(1.00503 0 0 1 916 496.011)"/><path d="M3.71577 43.3453 7.67075 43.3453 24.3678 21.3936 24.4316 21.4893 24.4635 21.4574 41.3918 43.5447 45.6737 43.5447 26.4011 19.0015 34.646 8.53192 30.3641 8.53192 24.4555 16.5296 24.4316 16.4977 24.3678 16.5934 18.5071 8.53192 14.5521 8.53192 22.5179 18.9775Z" fill="#F6C427" fill-rule="evenodd" transform="matrix(1.00503 0 0 1 916 496.011)"/><path d="M39.3345 8.59571 25.0057 27.5493 23.9851 26.2815 21.7524 29.4391 24.5831 32.8918 36.3284 17.9808 36.5118 27.7567 39.3345 31.4804Z" fill="#F6C427" fill-rule="evenodd" transform="matrix(1.00503 0 0 1 916 496.011)"/><path d="M67.466 9.43296 67.466 9.68014C67.0992 9.70406 66.7962 9.74393 66.5649 9.80772 66.3257 9.87151 66.1344 10.0071 65.9749 10.2224 65.8154 10.4376 65.7596 10.7566 65.8074 11.1792L66.5729 19.6872C66.6287 20.2852 66.7244 20.7238 66.852 21.0109 66.9796 21.2979 67.139 21.4893 67.3304 21.585 67.5218 21.6806 67.8248 21.7763 68.2394 21.864L68.2394 22.1112 61.8445 22.1112 61.8445 21.864C62.3787 21.8561 62.8013 21.7205 63.1043 21.4733 63.4073 21.2261 63.5349 20.7397 63.4711 20.0141L62.7933 11.9447 62.7535 11.9447 58.2084 22.1112 57.8735 22.1112 53.185 12.2796 53.1451 12.2796 52.5311 19.3443C52.4673 20.0381 52.5231 20.5723 52.6906 20.9391 52.858 21.3059 53.0893 21.5531 53.3684 21.6647 53.6474 21.7763 53.9744 21.8401 54.3491 21.864L54.3491 22.1112 49.6207 22.1112 49.6207 21.864C50.2187 21.8321 50.6732 21.6089 50.9762 21.2102 51.2792 20.8115 51.4866 20.1417 51.5982 19.2088L52.5311 11.1952C51.9411 10.342 51.1437 9.83962 50.131 9.69609L50.131 9.4489 55.1625 9.4489 59.1892 17.7815 62.9209 9.4489 67.466 9.4489Z" fill="#EC1C24" transform="matrix(1.00503 0 0 1 916 496.011)"/><path d="M67.466 9.43296 67.466 9.68014C67.0992 9.70406 66.7962 9.74393 66.5649 9.80772 66.3257 9.87151 66.1344 10.0071 65.9749 10.2224 65.8154 10.4376 65.7596 10.7566 65.8074 11.1792L66.5729 19.6872C66.6287 20.2852 66.7244 20.7238 66.852 21.0109 66.9796 21.2979 67.139 21.4893 67.3304 21.585 67.5218 21.6806 67.8248 21.7763 68.2394 21.864L68.2394 22.1112 61.8445 22.1112 61.8445 21.864C62.3787 21.8561 62.8013 21.7205 63.1043 21.4733 63.4073 21.2261 63.5349 20.7397 63.4711 20.0141L62.7933 11.9447 62.7535 11.9447 58.2084 22.1112 57.8735 22.1112 53.185 12.2796 53.1451 12.2796 52.5311 19.3443C52.4673 20.0381 52.5231 20.5723 52.6906 20.9391 52.858 21.3059 53.0893 21.5531 53.3684 21.6647 53.6474 21.7763 53.9744 21.8401 54.3491 21.864L54.3491 22.1112 49.6207 22.1112 49.6207 21.864C50.2187 21.8321 50.6732 21.6089 50.9762 21.2102 51.2792 20.8115 51.4866 20.1417 51.5982 19.2088L52.5311 11.1952C51.9411 10.342 51.1437 9.83962 50.131 9.69609L50.131 9.4489 55.1625 9.4489 59.1892 17.7815 62.9209 9.4489 67.466 9.4489Z" stroke="#FFFFFF" stroke-width="0.0172233" stroke-miterlimit="45" fill="none" transform="matrix(1.00503 0 0 1 916 496.011)"/><path d="M75.2882 13.659 75.36 15.5488 75.1766 15.5488C75.0889 15.2299 75.0012 14.9667 74.8975 14.7594 74.7939 14.5521 74.6503 14.3926 74.459 14.289 74.2676 14.1853 74.0124 14.1295 73.6855 14.1295L71.8117 14.1295 71.8117 17.6778 73.3028 17.6778C73.7493 17.6778 74.0762 17.5901 74.2756 17.4067 74.4829 17.2233 74.5945 16.9602 74.6344 16.6093L74.8178 16.6093 74.8178 19.0892 74.6344 19.0892C74.5706 18.7144 74.4191 18.4672 74.1719 18.3396 73.9247 18.2121 73.6377 18.1483 73.3028 18.1483L71.8117 18.1483 71.8117 20.5803C71.8117 21.282 72.2104 21.6328 73.0077 21.6328L73.5739 21.6328C73.9566 21.6328 74.2676 21.585 74.5068 21.4973 74.746 21.4095 74.9454 21.2501 75.1048 21.0268 75.2643 20.8035 75.4078 20.4846 75.5274 20.0779L75.7108 20.0779 75.5753 22.1112 68.5743 22.1112 68.5743 21.9438C69.0607 21.9438 69.3797 21.8401 69.5232 21.6408 69.6667 21.4414 69.7385 21.1783 69.7385 20.8514L69.7385 14.9348C69.7385 14.6239 69.6747 14.3607 69.5391 14.1454 69.4116 13.9302 69.1086 13.8265 68.6381 13.8265L68.5743 13.8265 68.5743 13.659 75.2882 13.659Z" transform="matrix(1.00503 0 0 1 916 496.011)"/><path d="M79.4824 13.659 85.1518 19.0972 85.1518 15.2299C85.1518 14.7196 85.0401 14.3767 84.8089 14.1853 84.5856 14.0019 84.2348 13.8743 83.7723 13.8185L83.7723 13.6511 86.9778 13.6511 86.9778 13.8185C86.6269 13.8504 86.3638 13.9381 86.1884 14.0817 86.0129 14.2252 85.9013 14.3847 85.8534 14.5681 85.8056 14.7515 85.7817 14.9747 85.7817 15.2299L85.7817 22.191 85.5505 22.191 78.7568 15.6924 78.7568 20.4447C78.7568 20.8434 78.8525 21.1783 79.0359 21.4654 79.2193 21.7444 79.5701 21.9039 80.0725 21.9358L80.0725 22.1033 76.7554 22.1033 76.7554 21.9358C77.6804 21.864 78.1428 21.4494 78.1349 20.6919L78.1349 15.1023C78.1109 15.0864 78.079 15.0624 78.0312 15.0226 77.9913 14.9907 77.9275 14.9348 77.8398 14.8551 77.7521 14.7754 77.6724 14.7116 77.6006 14.6478 77.0345 14.1534 76.5401 13.8823 76.1175 13.8185L76.1175 13.6511 79.4824 13.6511Z" transform="matrix(1.00503 0 0 1 916 496.011)"/><path d="M102.319 9.43296 102.319 9.68014C101.849 9.77583 101.474 9.85557 101.211 9.9353 100.94 10.015 100.629 10.1825 100.262 10.4217 99.8952 10.6689 99.5205 11.0277 99.1298 11.5061L96.4506 14.7275 100.182 19.8387C100.445 20.1975 100.717 20.5165 101.004 20.7956 101.283 21.0746 101.602 21.3059 101.952 21.4973 102.303 21.6886 102.67 21.8082 103.061 21.8481L103.061 22.0953 95.3661 22.0953 95.3661 21.8481C96.5064 21.8481 97.0805 21.561 97.0805 20.9869 97.0805 20.8673 97.0486 20.7477 96.9928 20.6201 96.929 20.5005 96.8253 20.3411 96.6738 20.1417L94.4412 17.1197 91.9295 20.1417C91.6743 20.4926 91.5387 20.7876 91.5387 21.0188 91.5387 21.3378 91.6583 21.5451 91.9055 21.6408 92.1527 21.7444 92.4398 21.8082 92.7747 21.8401L92.7747 22.0873 87.2887 22.0873 87.2887 21.8401C87.8309 21.8162 88.3253 21.7046 88.7719 21.5132 89.2184 21.3218 89.5772 21.1065 89.8483 20.8833 90.1194 20.66 90.5181 20.3012 91.0364 19.8148L91.148 19.6473 93.899 16.3861 90.255 11.3865C89.9918 11.0118 89.7128 10.6928 89.4257 10.4376 89.1386 10.1825 88.8755 9.99909 88.6443 9.89543 88.413 9.79178 88.2057 9.72001 88.0303 9.69609 87.8469 9.67217 87.6874 9.65622 87.5439 9.65622L87.5439 9.40903 94.7681 9.40903 94.7681 9.65622C93.9548 9.65622 93.5481 9.91138 93.5481 10.4137 93.5481 10.5254 93.58 10.6529 93.6358 10.7965 93.6917 10.94 93.8113 11.1314 93.9867 11.3865L95.9084 13.978 97.7583 11.7613C97.7583 11.7453 97.7822 11.7214 97.8221 11.6895 98.2048 11.2111 98.3962 10.8124 98.3962 10.5014 98.3962 10.1825 98.2845 9.97517 98.0533 9.87949 97.8221 9.77583 97.527 9.70406 97.1602 9.65622L97.1602 9.40903 102.319 9.40903Z" fill="#EC1C24" transform="matrix(1.00503 0 0 1 916 496.011)"/><path d="M102.319 9.43296 102.319 9.68014C101.849 9.77583 101.474 9.85557 101.211 9.9353 100.94 10.015 100.629 10.1825 100.262 10.4217 99.8952 10.6689 99.5205 11.0277 99.1298 11.5061L96.4506 14.7275 100.182 19.8387C100.445 20.1975 100.717 20.5165 101.004 20.7956 101.283 21.0746 101.602 21.3059 101.952 21.4973 102.303 21.6886 102.67 21.8082 103.061 21.8481L103.061 22.0953 95.3661 22.0953 95.3661 21.8481C96.5064 21.8481 97.0805 21.561 97.0805 20.9869 97.0805 20.8673 97.0486 20.7477 96.9928 20.6201 96.929 20.5005 96.8253 20.3411 96.6738 20.1417L94.4412 17.1197 91.9295 20.1417C91.6743 20.4926 91.5387 20.7876 91.5387 21.0188 91.5387 21.3378 91.6583 21.5451 91.9055 21.6408 92.1527 21.7444 92.4398 21.8082 92.7747 21.8401L92.7747 22.0873 87.2887 22.0873 87.2887 21.8401C87.8309 21.8162 88.3253 21.7046 88.7719 21.5132 89.2184 21.3218 89.5772 21.1065 89.8483 20.8833 90.1194 20.66 90.5181 20.3012 91.0364 19.8148L91.148 19.6473 93.899 16.3861 90.255 11.3865C89.9918 11.0118 89.7128 10.6928 89.4257 10.4376 89.1386 10.1825 88.8755 9.99909 88.6443 9.89543 88.413 9.79178 88.2057 9.72001 88.0303 9.69609 87.8469 9.67217 87.6874 9.65622 87.5439 9.65622L87.5439 9.40903 94.7681 9.40903 94.7681 9.65622C93.9548 9.65622 93.5481 9.91138 93.5481 10.4137 93.5481 10.5254 93.58 10.6529 93.6358 10.7965 93.6917 10.94 93.8113 11.1314 93.9867 11.3865L95.9084 13.978 97.7583 11.7613C97.7583 11.7453 97.7822 11.7214 97.8221 11.6895 98.2048 11.2111 98.3962 10.8124 98.3962 10.5014 98.3962 10.1825 98.2845 9.97517 98.0533 9.87949 97.8221 9.77583 97.527 9.70406 97.1602 9.65622L97.1602 9.40903 102.319 9.40903Z" stroke="#FFFFFF" stroke-width="0.0172233" stroke-miterlimit="45" fill="none" transform="matrix(1.00503 0 0 1 916 496.011)"/><path d="M103.715 17.8532C103.715 17.2791 103.826 16.7289 104.042 16.2107 104.257 15.6844 104.576 15.2299 104.998 14.8312 105.421 14.4325 105.931 14.1295 106.529 13.9062 107.127 13.683 107.805 13.5793 108.563 13.5793 109.328 13.5793 110.006 13.6909 110.612 13.9142 111.21 14.1375 111.72 14.4484 112.135 14.8471 112.55 15.2458 112.869 15.7003 113.084 16.2266 113.299 16.7449 113.403 17.3031 113.403 17.8931 113.403 18.4752 113.299 19.0254 113.092 19.5437 112.884 20.062 112.581 20.5165 112.175 20.9152 111.768 21.3139 111.266 21.6248 110.652 21.8561 110.038 22.0873 109.344 22.1989 108.579 22.1989 107.749 22.1989 107.024 22.0714 106.402 21.8082 105.78 21.5531 105.278 21.2102 104.879 20.7876 104.488 20.365 104.193 19.8945 104.01 19.3842 103.802 18.8659 103.715 18.3556 103.715 17.8532ZM105.915 17.7416C105.915 18.3157 105.963 18.8819 106.059 19.432 106.155 19.9902 106.402 20.5085 106.793 20.9949 107.191 21.4813 107.781 21.7205 108.579 21.7205 109.695 21.7205 110.405 21.3139 110.716 20.4926 111.027 19.6792 111.186 18.842 111.186 17.9968 111.186 17.3349 111.122 16.713 110.995 16.1389 110.867 15.5648 110.612 15.0704 110.221 14.6558 109.831 14.2411 109.28 14.0418 108.571 14.0418 107.773 14.0418 107.175 14.273 106.785 14.7435 106.394 15.2139 106.147 15.7083 106.051 16.2346 105.963 16.7688 105.915 17.2712 105.915 17.7416Z" transform="matrix(1.00503 0 0 1 916 496.011)"/><path d="M117.414 13.659 123.083 19.0972 123.083 15.2299C123.083 14.7196 122.971 14.3767 122.74 14.1853 122.517 14.0019 122.166 13.8743 121.703 13.8185L121.703 13.6511 124.909 13.6511 124.909 13.8185C124.558 13.8504 124.295 13.9381 124.12 14.0817 123.944 14.2252 123.832 14.3847 123.785 14.5681 123.737 14.7515 123.713 14.9747 123.713 15.2299L123.713 22.191 123.482 22.191 116.688 15.6924 116.688 20.4447C116.688 20.8434 116.784 21.1783 116.967 21.4654 117.15 21.7444 117.501 21.9039 118.004 21.9358L118.004 22.1033 114.687 22.1033 114.687 21.9358C115.612 21.864 116.074 21.4494 116.066 20.6919L116.066 15.1023C116.042 15.0864 116.01 15.0624 115.962 15.0226 115.923 14.9907 115.859 14.9348 115.771 14.8551 115.683 14.7754 115.604 14.7116 115.532 14.6478 114.966 14.1534 114.471 13.8823 114.049 13.8185L114.049 13.6511 117.414 13.6511Z" transform="matrix(1.00503 0 0 1 916 496.011)"/><path d="M130.69 15.7482 130.443 15.7482C130.275 15.2219 130.004 14.8073 129.645 14.5043 129.279 14.2013 128.84 14.0498 128.314 14.0498 128.059 14.0498 127.819 14.0976 127.612 14.1933 127.397 14.289 127.229 14.4245 127.11 14.592 126.982 14.7674 126.926 14.9667 126.926 15.19 126.926 15.3176 126.95 15.4452 126.998 15.5728 127.046 15.7003 127.165 15.8518 127.349 16.0352 127.532 16.2186 127.819 16.418 128.194 16.6412 128.617 16.8804 128.88 17.0319 128.968 17.1037 129.494 17.4067 129.932 17.6858 130.267 17.9489 130.602 18.2121 130.857 18.4911 131.033 18.7941 131.208 19.0972 131.296 19.44 131.296 19.8228 131.296 20.1736 131.224 20.4926 131.073 20.7796 130.921 21.0667 130.714 21.3218 130.435 21.5291 130.156 21.7444 129.829 21.9039 129.454 22.0235 129.079 22.1431 128.665 22.1989 128.218 22.1989 127.764 22.1989 127.229 22.1192 126.631 21.9677 126.567 21.9518 126.48 21.9358 126.376 21.9199 126.272 21.9039 126.185 21.888 126.105 21.888 125.906 21.888 125.762 21.9837 125.674 22.167L125.451 22.167 125.507 19.7829 125.754 19.7829C125.834 20.2374 126.001 20.6122 126.264 20.9152 126.528 21.2182 126.823 21.4335 127.158 21.569 127.492 21.7046 127.811 21.7763 128.138 21.7763 128.609 21.7763 128.991 21.6567 129.294 21.4175 129.597 21.1783 129.749 20.8912 129.749 20.5484 129.749 20.3171 129.685 20.1178 129.558 19.9503 129.43 19.7829 129.239 19.6154 128.984 19.448 128.728 19.2805 128.242 18.9935 127.532 18.5789 127.158 18.3556 126.839 18.1403 126.575 17.933 126.312 17.7257 126.105 17.5263 125.961 17.3429 125.818 17.1516 125.706 16.9682 125.65 16.7768 125.587 16.5854 125.563 16.3861 125.563 16.1708 125.563 15.7561 125.682 15.3495 125.914 14.9508 126.145 14.5521 126.48 14.2252 126.91 13.97 127.341 13.7149 127.827 13.5873 128.378 13.5873 128.633 13.5873 128.88 13.6112 129.119 13.659 129.183 13.667 129.263 13.683 129.374 13.7069 129.478 13.7308 129.566 13.7547 129.637 13.7707 129.821 13.8026 129.964 13.8185 130.052 13.8185 130.196 13.8185 130.291 13.7946 130.355 13.7547 130.411 13.7149 130.467 13.6511 130.514 13.5713L130.714 13.5713 130.714 15.7482Z" transform="matrix(1.00503 0 0 1 916 496.011)"/><path d="M145.019 15.9954 144.835 15.9954C144.588 15.4133 144.181 14.9348 143.615 14.5681 143.049 14.2013 142.379 14.0179 141.622 14.0179 141.032 14.0179 140.545 14.1295 140.155 14.3607 139.764 14.592 139.461 14.895 139.246 15.2777 139.03 15.6605 138.879 16.0671 138.791 16.5137 138.704 16.9602 138.664 17.4227 138.664 17.917 138.664 19.137 138.935 20.0779 139.469 20.7318 140.003 21.3856 140.729 21.7125 141.638 21.7125 142.292 21.7125 142.698 21.6248 142.858 21.4494 143.025 21.274 143.105 21.0109 143.105 20.668L143.105 19.6952C143.105 19.5038 143.089 19.3284 143.057 19.1769 143.025 19.0254 142.938 18.8898 142.794 18.7702 142.651 18.6426 142.443 18.5789 142.156 18.5629L142.156 18.3875 146.023 18.3875 146.023 18.5629C145.457 18.6347 145.17 18.9457 145.17 19.5118L145.17 21.569C144.181 21.9837 143.057 22.191 141.805 22.191 141.303 22.191 140.84 22.1591 140.434 22.0953 140.027 22.0315 139.66 21.9438 139.341 21.8321 139.022 21.7205 138.751 21.6009 138.536 21.4654 138.321 21.3298 138.113 21.1863 137.922 21.0188 137.659 20.7876 137.42 20.5245 137.212 20.2294 137.005 19.9344 136.838 19.5836 136.702 19.1849 136.567 18.7862 136.503 18.3556 136.503 17.8772 136.503 17.2393 136.63 16.6572 136.878 16.1309 137.125 15.6046 137.484 15.1422 137.938 14.7594 138.393 14.3687 138.919 14.0737 139.509 13.8743 140.099 13.675 140.721 13.5713 141.375 13.5713 141.742 13.5713 142.06 13.5953 142.332 13.6431 142.603 13.6909 143.049 13.7866 143.687 13.9381 143.886 14.0019 144.11 14.0258 144.341 14.0258 144.588 14.0258 144.756 13.8743 144.835 13.5793L145.019 13.5793 145.019 15.9954Z" transform="matrix(1.00503 0 0 1 916 496.011)"/><path d="M149.939 18.1483 149.644 18.1483 149.644 20.8514C149.644 21.1703 149.699 21.4095 149.803 21.569 149.907 21.7285 150.034 21.8321 150.186 21.872 150.337 21.9199 150.537 21.9438 150.792 21.9518L150.792 22.1033 146.43 22.1033 146.43 21.9358C146.916 21.9358 147.227 21.8401 147.371 21.6408 147.507 21.4414 147.578 21.1783 147.578 20.8514L147.578 14.9348C147.578 14.5282 147.491 14.2411 147.307 14.0817 147.124 13.9142 146.837 13.8345 146.43 13.8345L146.43 13.667 151.246 13.667C151.884 13.667 152.434 13.7547 152.921 13.9381 153.399 14.1215 153.766 14.3687 154.021 14.7036 154.276 15.0305 154.396 15.4053 154.396 15.8359 154.396 16.1788 154.316 16.4818 154.157 16.7529 153.997 17.024 153.782 17.2393 153.511 17.4147 153.24 17.5901 152.937 17.7177 152.61 17.8134 153.04 18.0606 153.463 18.4991 153.87 19.129L154.978 20.8434C155.169 21.1384 155.345 21.3697 155.504 21.5291 155.664 21.6886 155.807 21.8003 155.927 21.8481 156.046 21.8959 156.182 21.9358 156.326 21.9518L156.326 22.1192 153.327 22.1192C153.04 21.6408 152.817 21.258 152.658 20.979 152.163 20.0939 151.796 19.4799 151.573 19.137 151.35 18.7941 151.111 18.547 150.871 18.3955 150.624 18.22 150.313 18.1483 149.939 18.1483ZM150.146 14.1295 149.644 14.1295 149.644 17.6778 150.066 17.6778C150.792 17.6778 151.334 17.5183 151.701 17.2074 152.068 16.8884 152.251 16.4419 152.251 15.8439 152.251 15.4771 152.171 15.1661 152.012 14.9109 151.852 14.6558 151.621 14.4644 151.302 14.3288 150.983 14.1933 150.608 14.1295 150.146 14.1295Z" transform="matrix(1.00503 0 0 1 916 496.011)"/><path d="M156.278 17.8532C156.278 17.2791 156.389 16.7289 156.605 16.2107 156.82 15.6844 157.139 15.2299 157.561 14.8312 157.984 14.4325 158.494 14.1295 159.092 13.9062 159.69 13.683 160.368 13.5793 161.126 13.5793 161.891 13.5793 162.569 13.6909 163.175 13.9142 163.773 14.1375 164.283 14.4484 164.698 14.8471 165.113 15.2458 165.432 15.7003 165.647 16.2266 165.862 16.7449 165.966 17.3031 165.966 17.8931 165.966 18.4752 165.862 19.0254 165.655 19.5437 165.447 20.062 165.145 20.5165 164.738 20.9152 164.331 21.3139 163.829 21.6248 163.215 21.8561 162.601 22.0873 161.907 22.1989 161.142 22.1989 160.312 22.1989 159.587 22.0714 158.965 21.8082 158.343 21.5531 157.841 21.2102 157.442 20.7876 157.051 20.365 156.756 19.8945 156.573 19.3842 156.373 18.8659 156.278 18.3556 156.278 17.8532ZM158.486 17.7416C158.486 18.3157 158.534 18.8819 158.63 19.432 158.726 19.9902 158.973 20.5085 159.364 20.9949 159.762 21.4813 160.352 21.7205 161.15 21.7205 162.266 21.7205 162.976 21.3139 163.287 20.4926 163.598 19.6792 163.757 18.842 163.757 17.9968 163.757 17.3349 163.693 16.713 163.566 16.1389 163.438 15.5648 163.183 15.0704 162.792 14.6558 162.402 14.2411 161.851 14.0418 161.142 14.0418 160.344 14.0418 159.746 14.273 159.356 14.7435 158.965 15.2139 158.718 15.7083 158.622 16.2346 158.534 16.7688 158.486 17.2712 158.486 17.7416Z" transform="matrix(1.00503 0 0 1 916 496.011)"/><path d="M174.083 22.1033 174.083 20.5005 174.059 20.5005C173.381 21.6248 172.377 22.191 171.037 22.191 170.359 22.191 169.753 22.0474 169.219 21.7604 168.685 21.4733 168.286 21.1065 168.031 20.668 167.76 20.2055 167.624 19.4799 167.624 18.4752L167.624 14.9189C167.624 14.5601 167.545 14.289 167.385 14.1056 167.226 13.9222 166.923 13.8265 166.476 13.8265L166.476 13.659 170.838 13.659 170.838 13.8265C170.359 13.8265 170.048 13.9222 169.905 14.1215 169.761 14.3209 169.69 14.584 169.69 14.9189L169.69 18.6825C169.69 19.2407 169.761 19.6713 169.913 19.9982 170.016 20.2294 170.168 20.4288 170.359 20.5962 170.551 20.7637 170.774 20.8912 171.029 20.979 171.284 21.0667 171.547 21.1145 171.827 21.1145 172.114 21.1145 172.393 21.0667 172.656 20.971 172.919 20.8753 173.158 20.7397 173.373 20.5643 173.589 20.3889 173.748 20.1896 173.852 19.9663 174.003 19.6394 174.075 19.129 174.075 18.4274L174.075 14.9109C174.075 14.5122 173.987 14.2252 173.812 14.0577 173.637 13.8903 173.342 13.8026 172.927 13.8026L172.927 13.6511 177.289 13.6511 177.289 13.8185C176.81 13.8185 176.507 13.9142 176.356 14.1136 176.212 14.3049 176.14 14.576 176.14 14.9189L176.14 20.8434C176.14 21.2182 176.22 21.4973 176.388 21.6727 176.555 21.8561 176.85 21.9438 177.289 21.9438L177.289 22.0953 174.083 22.0953Z" transform="matrix(1.00503 0 0 1 916 496.011)"/><path d="M180.781 18.2759 180.781 20.8514C180.781 21.1624 180.837 21.3936 180.949 21.5531 181.06 21.7125 181.212 21.8162 181.387 21.864 181.562 21.9119 181.77 21.9358 182.009 21.9358L182.009 22.1033 177.568 22.1033 177.568 21.9358C177.863 21.9358 178.134 21.88 178.365 21.7684 178.604 21.6567 178.716 21.3936 178.716 20.9869L178.716 14.9348C178.716 14.5282 178.62 14.2411 178.437 14.0817 178.253 13.9142 177.958 13.8345 177.56 13.8345L177.56 13.667 182.479 13.667C183.157 13.667 183.715 13.7866 184.154 14.0179 184.585 14.2491 184.896 14.5441 185.071 14.895 185.254 15.2458 185.342 15.6046 185.342 15.9714 185.342 16.41 185.238 16.7768 185.039 17.0718 184.84 17.3668 184.608 17.5981 184.345 17.7655 184.042 17.9649 183.707 18.1084 183.341 18.2121 182.974 18.3077 182.471 18.3556 181.85 18.3556 181.594 18.3476 181.228 18.3237 180.781 18.2759ZM180.781 14.1773 180.781 17.8134C180.988 17.8532 181.196 17.8772 181.395 17.8772 181.857 17.8772 182.232 17.7735 182.519 17.5742 182.806 17.3668 183.006 17.1197 183.117 16.8167 183.229 16.5137 183.285 16.2107 183.285 15.9076 183.285 15.5887 183.221 15.3016 183.093 15.0305 182.966 14.7674 182.759 14.5441 182.471 14.3767 182.184 14.2092 181.81 14.1215 181.355 14.1215 181.196 14.1295 181.004 14.1454 180.781 14.1773Z" transform="matrix(1.00503 0 0 1 916 496.011)"/><path d="M56.3266 32.2299 54.2614 32.2299 54.2614 37.1099 53.0175 37.1099 53.0175 32.2299 50.9523 32.2299 50.9523 31.2252 56.3346 31.2252 56.3346 32.2299Z" transform="matrix(1.00503 0 0 1 916 496.011)"/><path d="M56.3266 32.2299 54.2614 32.2299 54.2614 37.1099 53.0175 37.1099 53.0175 32.2299 50.9523 32.2299 50.9523 31.2252 56.3346 31.2252 56.3346 32.2299Z" stroke="#FFFFFF" stroke-width="0.0172233" stroke-miterlimit="45" transform="matrix(1.00503 0 0 1 916 496.011)"/><path d="M61.4458 37.1099 60.2258 37.1099 60.2258 34.6779C60.2258 34.335 60.154 34.0798 60.0185 33.9204 59.875 33.7609 59.6836 33.6732 59.4284 33.6732 59.3168 33.6732 59.2052 33.6971 59.0855 33.737 58.9659 33.7848 58.8463 33.8406 58.7427 33.9204 58.631 34.0001 58.5354 34.0958 58.4397 34.2074 58.352 34.3191 58.2802 34.4387 58.2403 34.5742L58.2403 37.1099 57.0124 37.1099 57.0124 31.0658 58.2324 31.0658 58.2324 33.5775C58.4078 33.2984 58.647 33.0831 58.95 32.9236 59.253 32.7721 59.5799 32.6924 59.9467 32.6924 60.2577 32.6924 60.5049 32.7402 60.7042 32.8359 60.8956 32.9316 61.0471 33.0592 61.1587 33.2187 61.2704 33.3782 61.3421 33.5615 61.39 33.7689 61.4298 33.9762 61.4538 34.1835 61.4538 34.3988L61.4538 37.1099Z" transform="matrix(1.00503 0 0 1 916 496.011)"/><path d="M64.723 37.1976C64.3403 37.1976 63.9974 37.1418 63.6864 37.0222 63.3754 36.9026 63.1123 36.7431 62.897 36.5358 62.6817 36.3284 62.5063 36.0972 62.3947 35.8261 62.2751 35.555 62.2192 35.2679 62.2192 34.9729 62.2192 34.6619 62.2751 34.3749 62.3947 34.0958 62.5063 33.8247 62.6737 33.5855 62.897 33.3782 63.1123 33.1708 63.3834 33.0034 63.6944 32.8838 64.0054 32.7642 64.3562 32.7004 64.7469 32.7004 65.1376 32.7004 65.4805 32.7642 65.7915 32.8838 66.0945 33.0034 66.3576 33.1708 66.5729 33.3702 66.7882 33.5775 66.9557 33.8087 67.0673 34.0798 67.1789 34.3509 67.2347 34.63 67.2347 34.9251 67.2347 34.9968 67.2347 35.0686 67.2268 35.1324 67.2268 35.1962 67.2188 35.252 67.2028 35.2998L63.511 35.2998C63.5269 35.4673 63.5748 35.6268 63.6465 35.7543 63.7183 35.8899 63.814 36.0015 63.9256 36.0972 64.0372 36.1929 64.1728 36.2647 64.3163 36.3125 64.4599 36.3603 64.6114 36.3843 64.7708 36.3843 65.01 36.3843 65.2413 36.3284 65.4566 36.2248 65.6719 36.1132 65.8154 35.9776 65.8951 35.7942L66.9397 36.0573C66.7643 36.3922 66.4852 36.6633 66.0945 36.8707 65.7197 37.0859 65.2572 37.1976 64.723 37.1976ZM65.9669 34.5742C65.935 34.2473 65.8074 33.9842 65.5682 33.7928 65.337 33.5934 65.0499 33.4978 64.715 33.4978 64.5476 33.4978 64.3961 33.5217 64.2525 33.5775 64.109 33.6333 63.9814 33.7051 63.8778 33.8008 63.7661 33.8964 63.6784 34.0081 63.6067 34.1436 63.5349 34.2792 63.495 34.4227 63.4871 34.5822L65.9669 34.5822Z" transform="matrix(1.00503 0 0 1 916 496.011)"/><path d="M70.2727 37.1099 70.2727 31.2252 73.0157 31.2252C73.3107 31.2252 73.5898 31.2811 73.837 31.3927 74.0922 31.5043 74.3075 31.6558 74.4909 31.8392 74.6742 32.0226 74.8178 32.2379 74.9214 32.4691 75.0251 32.7004 75.0729 32.9396 75.0729 33.1788 75.0729 33.426 75.0251 33.6652 74.9294 33.9044 74.8337 34.1357 74.6982 34.3509 74.5227 34.5264 74.3473 34.7098 74.132 34.8533 73.8848 34.9649 73.6377 35.0766 73.3665 35.1324 73.0635 35.1324L71.5326 35.1324 71.5326 37.1019 70.2727 37.1019ZM71.5326 34.1357 72.9918 34.1357C73.223 34.1357 73.4144 34.0479 73.5739 33.8805 73.7254 33.713 73.8051 33.4738 73.8051 33.1868 73.8051 33.0353 73.7812 32.9077 73.7333 32.7881 73.6855 32.6685 73.6217 32.5648 73.542 32.4851 73.4622 32.4054 73.3665 32.3416 73.2629 32.3017 73.1592 32.2618 73.0476 32.2379 72.936 32.2379L71.5326 32.2379 71.5326 34.1357Z" transform="matrix(1.00503 0 0 1 916 496.011)"/><path d="M77.9515 37.1976C77.5607 37.1976 77.2099 37.1338 76.9069 37.0142 76.5959 36.8946 76.3328 36.7271 76.1175 36.5198 75.9022 36.3125 75.7348 36.0733 75.6231 35.8022 75.5115 35.5311 75.4477 35.244 75.4477 34.949 75.4477 34.646 75.5035 34.3589 75.6231 34.0878 75.7348 33.8167 75.9022 33.5775 76.1175 33.3702 76.3328 33.1629 76.5959 32.9954 76.9069 32.8758 77.2179 32.7562 77.5687 32.6924 77.9515 32.6924 78.3422 32.6924 78.685 32.7562 78.996 32.8758 79.299 32.9954 79.5622 33.1629 79.7775 33.3702 79.9927 33.5775 80.1602 33.8167 80.2718 34.0878 80.3835 34.3589 80.4473 34.646 80.4473 34.949 80.4473 35.244 80.3914 35.5311 80.2718 35.8022 80.1602 36.0733 79.9927 36.3125 79.7775 36.5198 79.5622 36.7271 79.307 36.8946 78.996 37.0142 78.685 37.1338 78.3422 37.1976 77.9515 37.1976ZM76.6996 34.949C76.6996 35.1404 76.7315 35.3158 76.7953 35.4753 76.8591 35.6347 76.9468 35.7703 77.0584 35.8819 77.17 36.0015 77.3056 36.0892 77.4571 36.153 77.6086 36.2168 77.776 36.2487 77.9515 36.2487 78.1269 36.2487 78.2943 36.2168 78.4458 36.153 78.5973 36.0892 78.7329 36.0015 78.8445 35.8819 78.9562 35.7623 79.0439 35.6268 79.1077 35.4673 79.1714 35.3078 79.2033 35.1324 79.2033 34.941 79.2033 34.7496 79.1714 34.5822 79.1077 34.4227 79.0439 34.2632 78.9562 34.1277 78.8445 34.0081 78.7329 33.8885 78.5973 33.8008 78.4458 33.737 78.2943 33.6732 78.1269 33.6413 77.9515 33.6413 77.776 33.6413 77.6086 33.6732 77.4571 33.737 77.3056 33.8008 77.17 33.8964 77.0584 34.0081 76.9468 34.1277 76.8591 34.2632 76.7953 34.4227 76.7315 34.5902 76.6996 34.7656 76.6996 34.949Z" transform="matrix(1.00503 0 0 1 916 496.011)"/><path d="M87.0096 32.7721 88.1658 32.7721 86.1724 37.1099 85.1677 37.1099 84.3464 35.2041 83.5331 37.1099 82.5284 37.1099 80.5429 32.7721 81.6912 32.7721 83.1105 36.0653 83.6926 34.654 82.8553 32.7721 83.8361 32.7721 84.3384 34.1038 84.8488 32.7721 85.8295 32.7721 85.0003 34.654 85.5744 36.0653 87.0096 32.7721Z" transform="matrix(1.00503 0 0 1 916 496.011)"/><path d="M90.7733 37.1976C90.3905 37.1976 90.0477 37.1418 89.7367 37.0222 89.4257 36.9026 89.1626 36.7431 88.9473 36.5358 88.732 36.3284 88.5566 36.0972 88.4449 35.8261 88.3253 35.555 88.2695 35.2679 88.2695 34.9729 88.2695 34.6619 88.3253 34.3749 88.4449 34.0958 88.5566 33.8247 88.724 33.5855 88.9473 33.3782 89.1626 33.1708 89.4337 33.0034 89.7446 32.8838 90.0556 32.7642 90.4065 32.7004 90.7972 32.7004 91.1879 32.7004 91.5308 32.7642 91.8418 32.8838 92.1447 33.0034 92.4079 33.1708 92.6232 33.3702 92.8385 33.5775 93.0059 33.8087 93.1176 34.0798 93.2292 34.3509 93.285 34.63 93.285 34.9251 93.285 34.9968 93.285 35.0686 93.277 35.1324 93.277 35.1962 93.269 35.252 93.2531 35.2998L89.5612 35.2998C89.5772 35.4673 89.625 35.6268 89.6968 35.7543 89.7686 35.8899 89.8643 36.0015 89.9759 36.0972 90.0875 36.1929 90.2231 36.2647 90.3666 36.3125 90.5101 36.3603 90.6616 36.3843 90.8211 36.3843 91.0603 36.3843 91.2916 36.3284 91.5068 36.2248 91.7221 36.1132 91.8657 35.9776 91.9454 35.7942L92.99 36.0573C92.8145 36.3922 92.5355 36.6633 92.1447 36.8707 91.77 37.0859 91.3075 37.1976 90.7733 37.1976ZM92.0092 34.5742C91.9773 34.2473 91.8497 33.9842 91.6105 33.7928 91.3793 33.5934 91.0922 33.4978 90.7573 33.4978 90.5899 33.4978 90.4384 33.5217 90.2948 33.5775 90.1513 33.6333 90.0237 33.7051 89.9201 33.8008 89.8164 33.8964 89.7207 34.0081 89.649 34.1436 89.5772 34.2792 89.5373 34.4227 89.5294 34.5822L92.0092 34.5822Z" transform="matrix(1.00503 0 0 1 916 496.011)"/><path d="M96.8572 33.729C96.4904 33.737 96.1555 33.8008 95.8605 33.9204 95.5655 34.0479 95.3582 34.2313 95.2306 34.4785L95.2306 37.1019 94.0106 37.1019 94.0106 32.7721 95.1269 32.7721 95.1269 33.6971C95.2146 33.5456 95.3103 33.418 95.4299 33.2984 95.5416 33.1788 95.6692 33.0751 95.8047 32.9874 95.9403 32.8997 96.0758 32.828 96.2114 32.7881 96.3469 32.7402 96.4825 32.7163 96.6101 32.7163 96.6738 32.7163 96.7297 32.7163 96.7616 32.7163 96.7934 32.7163 96.8253 32.7163 96.8572 32.7243L96.8572 33.729Z" transform="matrix(1.00503 0 0 1 916 496.011)"/><path d="M99.2334 34.1277C99.2334 33.7689 99.3052 33.41 99.4487 33.0672 99.5922 32.7163 99.7996 32.4054 100.071 32.1263 100.342 31.8472 100.677 31.6239 101.075 31.4565 101.466 31.289 101.921 31.2013 102.423 31.2013 103.021 31.2013 103.531 31.3209 103.97 31.5601 104.4 31.7993 104.727 32.1103 104.943 32.4851L103.978 33.0911C103.89 32.9236 103.786 32.7881 103.667 32.6765 103.547 32.5648 103.412 32.4771 103.276 32.4054 103.133 32.3416 102.989 32.2937 102.838 32.2618 102.686 32.2299 102.535 32.214 102.391 32.214 102.072 32.214 101.801 32.2698 101.57 32.3894 101.338 32.509 101.139 32.6525 100.988 32.8439 100.836 33.0273 100.717 33.2426 100.637 33.4738 100.557 33.7051 100.517 33.9443 100.517 34.1755 100.517 34.4387 100.565 34.6858 100.653 34.9251 100.74 35.1643 100.876 35.3796 101.043 35.555 101.211 35.7384 101.41 35.8819 101.641 35.9935 101.873 36.1052 102.128 36.161 102.415 36.161 102.558 36.161 102.71 36.145 102.869 36.1132 103.029 36.0813 103.18 36.0254 103.324 35.9537 103.467 35.8819 103.595 35.7862 103.723 35.6746 103.842 35.563 103.938 35.4274 104.018 35.2679L105.046 35.8102C104.943 36.0334 104.799 36.2248 104.608 36.3922 104.416 36.5597 104.201 36.7032 103.962 36.8228 103.723 36.9424 103.467 37.0301 103.188 37.0859 102.917 37.1497 102.646 37.1737 102.383 37.1737 101.921 37.1737 101.498 37.0859 101.115 36.9105 100.732 36.7351 100.406 36.5039 100.126 36.2168 99.8474 35.9298 99.6321 35.6108 99.4806 35.244 99.3132 34.8772 99.2334 34.5025 99.2334 34.1277Z" transform="matrix(1.00503 0 0 1 916 496.011)"/><path d="M107.957 37.1976C107.566 37.1976 107.215 37.1338 106.912 37.0142 106.601 36.8946 106.338 36.7271 106.123 36.5198 105.907 36.3125 105.74 36.0733 105.628 35.8022 105.517 35.5311 105.453 35.244 105.453 34.949 105.453 34.646 105.509 34.3589 105.628 34.0878 105.74 33.8167 105.907 33.5775 106.123 33.3702 106.338 33.1629 106.601 32.9954 106.912 32.8758 107.223 32.7562 107.574 32.6924 107.957 32.6924 108.347 32.6924 108.69 32.7562 109.001 32.8758 109.304 32.9954 109.567 33.1629 109.783 33.3702 109.998 33.5775 110.165 33.8167 110.277 34.0878 110.389 34.3589 110.452 34.646 110.452 34.949 110.452 35.244 110.397 35.5311 110.277 35.8022 110.165 36.0733 109.998 36.3125 109.783 36.5198 109.567 36.7271 109.312 36.8946 109.001 37.0142 108.698 37.1338 108.347 37.1976 107.957 37.1976ZM106.713 34.949C106.713 35.1404 106.745 35.3158 106.808 35.4753 106.872 35.6347 106.96 35.7703 107.072 35.8819 107.183 36.0015 107.319 36.0892 107.47 36.153 107.622 36.2168 107.789 36.2487 107.965 36.2487 108.14 36.2487 108.308 36.2168 108.459 36.153 108.611 36.0892 108.746 36.0015 108.858 35.8819 108.969 35.7623 109.057 35.6268 109.121 35.4673 109.185 35.3078 109.217 35.1324 109.217 34.941 109.217 34.7496 109.185 34.5822 109.121 34.4227 109.057 34.2632 108.969 34.1277 108.858 34.0081 108.746 33.8885 108.611 33.8008 108.459 33.737 108.308 33.6732 108.14 33.6413 107.965 33.6413 107.789 33.6413 107.622 33.6732 107.47 33.737 107.319 33.8008 107.183 33.8964 107.072 34.0081 106.96 34.1277 106.872 34.2632 106.808 34.4227 106.745 34.5902 106.713 34.7656 106.713 34.949Z" transform="matrix(1.00503 0 0 1 916 496.011)"/><path d="M115.707 37.1099 114.487 37.1099 114.487 34.6779C114.487 34.327 114.423 34.0798 114.288 33.9124 114.152 33.7529 113.969 33.6732 113.73 33.6732 113.61 33.6732 113.483 33.6971 113.355 33.737 113.227 33.7848 113.108 33.8406 112.996 33.9204 112.884 34.0001 112.781 34.0958 112.693 34.2074 112.605 34.3191 112.534 34.4387 112.494 34.5742L112.494 37.1099 111.274 37.1099 111.274 32.7721 112.374 32.7721 112.374 33.5775C112.55 33.2984 112.805 33.0831 113.14 32.9316 113.475 32.7801 113.849 32.7004 114.272 32.7004 114.567 32.7004 114.814 32.7482 114.998 32.8519 115.189 32.9476 115.332 33.0831 115.436 33.2426 115.54 33.4021 115.612 33.5855 115.651 33.7928 115.691 34.0001 115.707 34.2074 115.707 34.4147L115.707 37.1099Z" transform="matrix(1.00503 0 0 1 916 496.011)"/><path d="M121.209 37.1099 119.989 37.1099 119.989 34.6779C119.989 34.327 119.925 34.0798 119.79 33.9124 119.654 33.7529 119.471 33.6732 119.232 33.6732 119.112 33.6732 118.984 33.6971 118.857 33.737 118.729 33.7848 118.61 33.8406 118.498 33.9204 118.386 34.0001 118.283 34.0958 118.195 34.2074 118.107 34.3191 118.036 34.4387 117.996 34.5742L117.996 37.1099 116.776 37.1099 116.776 32.7721 117.876 32.7721 117.876 33.5775C118.051 33.2984 118.307 33.0831 118.642 32.9316 118.976 32.7801 119.351 32.7004 119.774 32.7004 120.069 32.7004 120.316 32.7482 120.499 32.8519 120.691 32.9476 120.834 33.0831 120.938 33.2426 121.042 33.4021 121.113 33.5855 121.153 33.7928 121.193 34.0001 121.209 34.2074 121.209 34.4147L121.209 37.1099Z" transform="matrix(1.00503 0 0 1 916 496.011)"/><path d="M124.486 37.1976C124.104 37.1976 123.761 37.1418 123.45 37.0222 123.139 36.9026 122.876 36.7431 122.66 36.5358 122.445 36.3284 122.27 36.0972 122.158 35.8261 122.038 35.555 121.983 35.2679 121.983 34.9729 121.983 34.6619 122.038 34.3749 122.158 34.0958 122.27 33.8247 122.437 33.5855 122.66 33.3782 122.876 33.1708 123.147 33.0034 123.458 32.8838 123.769 32.7642 124.12 32.7004 124.51 32.7004 124.901 32.7004 125.244 32.7642 125.555 32.8838 125.858 33.0034 126.121 33.1708 126.336 33.3702 126.552 33.5775 126.719 33.8087 126.831 34.0798 126.942 34.3509 126.998 34.63 126.998 34.9251 126.998 34.9968 126.998 35.0686 126.99 35.1324 126.99 35.1962 126.982 35.252 126.966 35.2998L123.274 35.2998C123.29 35.4673 123.338 35.6268 123.41 35.7543 123.482 35.8899 123.577 36.0015 123.689 36.0972 123.801 36.1929 123.936 36.2647 124.08 36.3125 124.223 36.3603 124.375 36.3843 124.534 36.3843 124.773 36.3843 125.005 36.3284 125.22 36.2248 125.435 36.1132 125.579 35.9776 125.658 35.7942L126.703 36.0573C126.528 36.3922 126.249 36.6633 125.858 36.8707 125.483 37.0859 125.021 37.1976 124.486 37.1976ZM125.73 34.5742C125.698 34.2473 125.571 33.9842 125.332 33.7928 125.1 33.5934 124.813 33.4978 124.478 33.4978 124.311 33.4978 124.159 33.5217 124.016 33.5775 123.872 33.6333 123.745 33.7051 123.641 33.8008 123.529 33.8964 123.442 34.0081 123.37 34.1436 123.298 34.2792 123.258 34.4227 123.25 34.5822L125.73 34.5822Z" transform="matrix(1.00503 0 0 1 916 496.011)"/><path d="M127.429 34.941C127.429 34.638 127.484 34.3509 127.604 34.0798 127.716 33.8087 127.883 33.5695 128.106 33.3702 128.322 33.1629 128.593 33.0034 128.896 32.8838 129.207 32.7642 129.558 32.7004 129.94 32.7004 130.459 32.7004 130.905 32.804 131.272 33.0034 131.639 33.2107 131.918 33.4738 132.093 33.8087L130.897 34.1436C130.794 33.9842 130.658 33.8646 130.491 33.7768 130.323 33.6891 130.132 33.6493 129.924 33.6493 129.749 33.6493 129.582 33.6812 129.43 33.7449 129.279 33.8087 129.143 33.8964 129.031 34.0081 128.92 34.1197 128.832 34.2553 128.768 34.4147 128.704 34.5742 128.673 34.7496 128.673 34.941 128.673 35.1324 128.704 35.3078 128.776 35.4673 128.84 35.6268 128.936 35.7623 129.047 35.8819 129.159 36.0015 129.294 36.0892 129.446 36.153 129.597 36.2168 129.757 36.2487 129.932 36.2487 130.148 36.2487 130.355 36.2009 130.538 36.0972 130.722 36.0015 130.849 35.8739 130.929 35.7304L132.125 36.0653C131.958 36.4002 131.695 36.6633 131.312 36.8786 130.937 37.0859 130.483 37.1896 129.956 37.1896 129.566 37.1896 129.215 37.1258 128.912 37.0062 128.601 36.8866 128.338 36.7192 128.122 36.5118 127.907 36.3045 127.732 36.0653 127.62 35.7942 127.492 35.5231 127.429 35.236 127.429 34.941Z" transform="matrix(1.00503 0 0 1 916 496.011)"/><path d="M135.729 36.8866C135.562 36.9504 135.363 37.0222 135.131 37.0859 134.9 37.1497 134.645 37.1816 134.382 37.1816 134.214 37.1816 134.055 37.1657 133.903 37.1258 133.752 37.0859 133.624 37.0222 133.513 36.9424 133.401 36.8547 133.313 36.7431 133.242 36.6075 133.178 36.472 133.138 36.3045 133.138 36.1132L133.138 33.6174 132.508 33.6174 132.508 32.7721 133.138 32.7721 133.138 31.3608 134.358 31.3608 134.358 32.7721 135.363 32.7721 135.363 33.6253 134.358 33.6253 134.358 35.7464C134.358 35.8979 134.406 36.0095 134.493 36.0733 134.581 36.1371 134.693 36.169 134.82 36.169 134.948 36.169 135.075 36.153 135.195 36.1132 135.315 36.0733 135.41 36.0414 135.49 36.0175L135.729 36.8866Z" transform="matrix(1.00503 0 0 1 916 496.011)"/><path d="M136.367 32.1661 136.367 31.0658 137.587 31.0658 137.587 32.1661 136.367 32.1661ZM136.367 37.1099 136.367 32.7721 137.587 32.7721 137.587 37.1099 136.367 37.1099Z" transform="matrix(1.00503 0 0 1 916 496.011)"/><path d="M143.121 37.1099 141.901 37.1099 141.901 34.6779C141.901 34.327 141.837 34.0798 141.702 33.9124 141.566 33.7529 141.383 33.6732 141.143 33.6732 141.024 33.6732 140.896 33.6971 140.769 33.737 140.641 33.7848 140.522 33.8406 140.41 33.9204 140.298 34.0001 140.195 34.0958 140.107 34.2074 140.019 34.3191 139.947 34.4387 139.908 34.5742L139.908 37.1099 138.688 37.1099 138.688 32.7721 139.788 32.7721 139.788 33.5775C139.963 33.2984 140.219 33.0831 140.553 32.9316 140.888 32.7801 141.263 32.7004 141.686 32.7004 141.981 32.7004 142.228 32.7482 142.411 32.8519 142.595 32.9555 142.746 33.0831 142.85 33.2426 142.954 33.4021 143.025 33.5855 143.065 33.7928 143.105 34.0001 143.121 34.2074 143.121 34.4147L143.121 37.1099Z" transform="matrix(1.00503 0 0 1 916 496.011)"/><path d="M146.055 37.1338C145.736 37.1338 145.441 37.078 145.178 36.9584 144.915 36.8388 144.692 36.6873 144.5 36.4799 144.309 36.2806 144.166 36.0414 144.062 35.7783 143.958 35.5151 143.91 35.2281 143.91 34.933 143.91 34.6221 143.966 34.327 144.078 34.0559 144.189 33.7848 144.341 33.5456 144.532 33.3463 144.724 33.1389 144.963 32.9795 145.234 32.8678 145.505 32.7482 145.808 32.6924 146.135 32.6924 146.502 32.6924 146.829 32.7721 147.108 32.9236 147.387 33.0751 147.618 33.2745 147.802 33.5297L147.802 32.7721 148.87 32.7721 148.87 36.9026C148.87 37.2215 148.806 37.5086 148.671 37.7637 148.535 38.0189 148.352 38.2342 148.121 38.4096 147.889 38.585 147.61 38.7206 147.283 38.8163 146.956 38.9119 146.606 38.9598 146.223 38.9598 145.704 38.9598 145.266 38.88 144.907 38.7206 144.548 38.5611 144.245 38.3378 143.99 38.0508L144.652 37.4607C144.835 37.668 145.067 37.8275 145.338 37.9391 145.617 38.0587 145.904 38.1146 146.215 38.1146 146.406 38.1146 146.582 38.0906 146.757 38.0428 146.932 37.995 147.084 37.9232 147.219 37.8195 147.355 37.7239 147.459 37.5963 147.53 37.4368 147.61 37.2853 147.642 37.1019 147.642 36.8866L147.642 36.3603C147.483 36.6075 147.259 36.7989 146.98 36.9344 146.685 37.07 146.382 37.1338 146.055 37.1338ZM146.462 36.2487C146.598 36.2487 146.725 36.2328 146.845 36.1929 146.964 36.153 147.076 36.1052 147.18 36.0334 147.283 35.9696 147.371 35.8899 147.451 35.8022 147.53 35.7145 147.594 35.6188 147.634 35.5231L147.634 34.4865C147.522 34.2313 147.355 34.032 147.116 33.8725 146.885 33.721 146.637 33.6413 146.382 33.6413 146.191 33.6413 146.023 33.6812 145.872 33.7529 145.72 33.8247 145.593 33.9283 145.481 34.0479 145.37 34.1755 145.29 34.3111 145.234 34.4785 145.178 34.638 145.146 34.8055 145.146 34.9729 145.146 35.1483 145.178 35.3158 145.25 35.4673 145.322 35.6188 145.409 35.7543 145.529 35.8739 145.649 35.9935 145.784 36.0813 145.944 36.145 146.103 36.2168 146.279 36.2487 146.462 36.2487Z" transform="matrix(1.00503 0 0 1 916 496.011)"/><path d="M152.267 37.1099 152.267 31.2252 155.01 31.2252C155.305 31.2252 155.584 31.2811 155.831 31.3927 156.086 31.5043 156.302 31.6558 156.485 31.8392 156.668 32.0226 156.812 32.2379 156.916 32.4691 157.019 32.7004 157.067 32.9396 157.067 33.1788 157.067 33.426 157.019 33.6652 156.924 33.9044 156.828 34.1357 156.692 34.3509 156.517 34.5264 156.341 34.7098 156.126 34.8533 155.879 34.9649 155.632 35.0766 155.361 35.1324 155.058 35.1324L153.527 35.1324 153.527 37.1019 152.267 37.1019ZM153.519 34.1357 154.978 34.1357C155.209 34.1357 155.401 34.0479 155.56 33.8805 155.712 33.713 155.791 33.4738 155.791 33.1868 155.791 33.0353 155.767 32.9077 155.72 32.7881 155.672 32.6685 155.608 32.5648 155.528 32.4851 155.448 32.4054 155.353 32.3416 155.249 32.3017 155.145 32.2618 155.034 32.2379 154.922 32.2379L153.519 32.2379 153.519 34.1357Z" transform="matrix(1.00503 0 0 1 916 496.011)"/><path d="M159.954 37.1976C159.571 37.1976 159.228 37.1418 158.917 37.0222 158.606 36.9026 158.343 36.7431 158.128 36.5358 157.912 36.3284 157.737 36.0972 157.625 35.8261 157.506 35.555 157.45 35.2679 157.45 34.9729 157.45 34.6619 157.506 34.3749 157.625 34.0958 157.737 33.8247 157.904 33.5855 158.128 33.3782 158.343 33.1708 158.614 33.0034 158.925 32.8838 159.236 32.7642 159.587 32.7004 159.978 32.7004 160.368 32.7004 160.711 32.7642 161.022 32.8838 161.325 33.0034 161.588 33.1708 161.803 33.3702 162.019 33.5775 162.186 33.8087 162.298 34.0798 162.41 34.3509 162.465 34.63 162.465 34.9251 162.465 34.9968 162.465 35.0686 162.457 35.1324 162.457 35.1962 162.449 35.252 162.433 35.2998L158.742 35.2998C158.758 35.4673 158.805 35.6268 158.877 35.7543 158.949 35.8899 159.045 36.0015 159.156 36.0972 159.268 36.1929 159.403 36.2647 159.547 36.3125 159.69 36.3603 159.842 36.3843 160.001 36.3843 160.241 36.3843 160.472 36.3284 160.687 36.2248 160.902 36.1132 161.046 35.9776 161.126 35.7942L162.17 36.0573C161.995 36.3922 161.716 36.6633 161.325 36.8707 160.95 37.0859 160.488 37.1976 159.954 37.1976ZM161.19 34.5742C161.158 34.2473 161.03 33.9842 160.791 33.7928 160.56 33.5934 160.273 33.4978 159.938 33.4978 159.77 33.4978 159.619 33.5217 159.475 33.5775 159.332 33.6333 159.204 33.7051 159.1 33.8008 158.989 33.8964 158.901 34.0081 158.829 34.1436 158.758 34.2792 158.718 34.4227 158.71 34.5822L161.19 34.5822Z" transform="matrix(1.00503 0 0 1 916 496.011)"/><path d="M165.4 37.1976C165.009 37.1976 164.658 37.1338 164.355 37.0142 164.044 36.8946 163.781 36.7271 163.566 36.5198 163.35 36.3125 163.183 36.0733 163.071 35.8022 162.96 35.5311 162.896 35.244 162.896 34.949 162.896 34.646 162.952 34.3589 163.071 34.0878 163.183 33.8167 163.35 33.5775 163.566 33.3702 163.781 33.1629 164.044 32.9954 164.355 32.8758 164.666 32.7562 165.017 32.6924 165.4 32.6924 165.79 32.6924 166.133 32.7562 166.444 32.8758 166.747 32.9954 167.01 33.1629 167.226 33.3702 167.441 33.5775 167.608 33.8167 167.72 34.0878 167.832 34.3589 167.895 34.646 167.895 34.949 167.895 35.244 167.84 35.5311 167.72 35.8022 167.608 36.0733 167.441 36.3125 167.226 36.5198 167.01 36.7271 166.755 36.8946 166.444 37.0142 166.133 37.1338 165.79 37.1976 165.4 37.1976ZM164.148 34.949C164.148 35.1404 164.18 35.3158 164.243 35.4753 164.307 35.6347 164.395 35.7703 164.507 35.8819 164.618 36.0015 164.754 36.0892 164.905 36.153 165.057 36.2168 165.224 36.2487 165.4 36.2487 165.575 36.2487 165.743 36.2168 165.894 36.153 166.046 36.0892 166.181 36.0015 166.293 35.8819 166.404 35.7623 166.492 35.6268 166.556 35.4673 166.62 35.3078 166.652 35.1324 166.652 34.941 166.652 34.7496 166.62 34.5822 166.556 34.4227 166.492 34.2632 166.404 34.1277 166.293 34.0081 166.181 33.8885 166.046 33.8008 165.894 33.737 165.743 33.6732 165.575 33.6413 165.4 33.6413 165.224 33.6413 165.057 33.6732 164.905 33.737 164.754 33.8008 164.618 33.8964 164.507 34.0081 164.395 34.1277 164.307 34.2632 164.243 34.4227 164.18 34.5902 164.148 34.7656 164.148 34.949Z" transform="matrix(1.00503 0 0 1 916 496.011)"/><path d="M171.571 37.1976C171.197 37.1976 170.87 37.1178 170.591 36.9663 170.311 36.8148 170.096 36.6075 169.937 36.3524L169.937 38.88 168.717 38.88 168.717 32.7721 169.785 32.7721 169.785 33.5217C169.961 33.2665 170.192 33.0672 170.471 32.9236 170.75 32.7801 171.069 32.7004 171.436 32.7004 171.755 32.7004 172.058 32.7562 172.329 32.8758 172.6 32.9954 172.839 33.1549 173.039 33.3542 173.238 33.5536 173.389 33.7928 173.501 34.0639 173.613 34.335 173.668 34.6221 173.668 34.933 173.668 35.244 173.621 35.547 173.517 35.8181 173.413 36.0972 173.27 36.3364 173.086 36.5358 172.903 36.7431 172.68 36.9026 172.425 37.0142 172.153 37.1338 171.874 37.1976 171.571 37.1976ZM171.165 36.2487C171.348 36.2487 171.516 36.2088 171.667 36.1371 171.819 36.0653 171.954 35.9696 172.066 35.85 172.177 35.7304 172.257 35.5869 172.321 35.4274 172.385 35.2679 172.409 35.1005 172.409 34.933 172.409 34.7496 172.377 34.5822 172.305 34.4227 172.241 34.2632 172.145 34.1277 172.026 34.0161 171.906 33.8964 171.771 33.8087 171.603 33.7449 171.444 33.6812 171.268 33.6493 171.077 33.6493 170.965 33.6493 170.846 33.6652 170.718 33.7051 170.599 33.7449 170.487 33.7928 170.383 33.8566 170.28 33.9204 170.184 34.0001 170.104 34.0878 170.024 34.1755 169.961 34.2712 169.921 34.3749L169.921 35.3955C170.032 35.6427 170.2 35.85 170.423 36.0095 170.662 36.169 170.902 36.2487 171.165 36.2487Z" transform="matrix(1.00503 0 0 1 916 496.011)"/><path d="M174.482 31.0658 175.702 31.0658 175.702 35.7224C175.702 35.8819 175.742 36.0095 175.829 36.0972 175.917 36.1849 176.037 36.2328 176.196 36.2328 176.268 36.2328 176.348 36.2248 176.435 36.2009 176.523 36.1769 176.611 36.153 176.683 36.1211L176.85 36.9663C176.683 37.0381 176.491 37.0939 176.276 37.1338 176.061 37.1737 175.861 37.1896 175.686 37.1896 175.303 37.1896 175.008 37.0939 174.801 36.9105 174.593 36.7271 174.49 36.464 174.49 36.1211L174.49 31.0658Z" transform="matrix(1.00503 0 0 1 916 496.011)"/><path d="M179.585 37.1976C179.202 37.1976 178.859 37.1418 178.548 37.0222 178.237 36.9026 177.974 36.7431 177.759 36.5358 177.544 36.3284 177.368 36.0972 177.257 35.8261 177.137 35.555 177.081 35.2679 177.081 34.9729 177.081 34.6619 177.137 34.3749 177.257 34.0958 177.368 33.8247 177.536 33.5855 177.759 33.3782 177.974 33.1708 178.245 33.0034 178.556 32.8838 178.867 32.7642 179.218 32.7004 179.609 32.7004 180 32.7004 180.342 32.7642 180.653 32.8838 180.956 33.0034 181.22 33.1708 181.435 33.3702 181.65 33.5775 181.818 33.8087 181.929 34.0798 182.041 34.3509 182.097 34.63 182.097 34.9251 182.097 34.9968 182.097 35.0686 182.089 35.1324 182.089 35.1962 182.081 35.252 182.065 35.2998L178.373 35.2998C178.389 35.4673 178.437 35.6268 178.509 35.7543 178.58 35.8899 178.676 36.0015 178.788 36.0972 178.899 36.1929 179.035 36.2647 179.178 36.3125 179.322 36.3603 179.473 36.3843 179.633 36.3843 179.872 36.3843 180.103 36.3284 180.319 36.2248 180.534 36.1132 180.677 35.9776 180.757 35.7942L181.802 36.0573C181.626 36.3922 181.347 36.6633 180.956 36.8707 180.582 37.0859 180.119 37.1976 179.585 37.1976ZM180.829 34.5742C180.797 34.2473 180.669 33.9842 180.43 33.7928 180.199 33.5934 179.912 33.4978 179.577 33.4978 179.41 33.4978 179.258 33.5217 179.115 33.5775 178.971 33.6333 178.843 33.7051 178.74 33.8008 178.636 33.8964 178.54 34.0081 178.469 34.1436 178.397 34.2792 178.357 34.4227 178.349 34.5822L180.829 34.5822Z" transform="matrix(1.00503 0 0 1 916 496.011)"/><path d="M61.4458 37.1099 60.2258 37.1099 60.2258 34.6779C60.2258 34.335 60.154 34.0798 60.0185 33.9204 59.875 33.7609 59.6836 33.6732 59.4284 33.6732 59.3168 33.6732 59.2052 33.6971 59.0855 33.737 58.9659 33.7848 58.8463 33.8406 58.7427 33.9204 58.631 34.0001 58.5354 34.0958 58.4397 34.2074 58.352 34.3191 58.2802 34.4387 58.2403 34.5742L58.2403 37.1099 57.0124 37.1099 57.0124 31.0658 58.2324 31.0658 58.2324 33.5775C58.4078 33.2984 58.647 33.0831 58.95 32.9236 59.253 32.7721 59.5799 32.6924 59.9467 32.6924 60.2577 32.6924 60.5049 32.7402 60.7042 32.8359 60.8956 32.9316 61.0471 33.0592 61.1587 33.2187 61.2704 33.3782 61.3421 33.5615 61.39 33.7689 61.4298 33.9762 61.4538 34.1835 61.4538 34.3988L61.4538 37.1099Z" stroke="#FFFFFF" stroke-width="0.0172233" stroke-miterlimit="45" transform="matrix(1.00503 0 0 1 916 496.011)"/><path d="M64.723 37.1976C64.3403 37.1976 63.9974 37.1418 63.6864 37.0222 63.3754 36.9026 63.1123 36.7431 62.897 36.5358 62.6817 36.3284 62.5063 36.0972 62.3947 35.8261 62.2751 35.555 62.2192 35.2679 62.2192 34.9729 62.2192 34.6619 62.2751 34.3749 62.3947 34.0958 62.5063 33.8247 62.6737 33.5855 62.897 33.3782 63.1123 33.1708 63.3834 33.0034 63.6944 32.8838 64.0054 32.7642 64.3562 32.7004 64.7469 32.7004 65.1376 32.7004 65.4805 32.7642 65.7915 32.8838 66.0945 33.0034 66.3576 33.1708 66.5729 33.3702 66.7882 33.5775 66.9557 33.8087 67.0673 34.0798 67.1789 34.3509 67.2347 34.63 67.2347 34.9251 67.2347 34.9968 67.2347 35.0686 67.2268 35.1324 67.2268 35.1962 67.2188 35.252 67.2028 35.2998L63.511 35.2998C63.5269 35.4673 63.5748 35.6268 63.6465 35.7543 63.7183 35.8899 63.814 36.0015 63.9256 36.0972 64.0372 36.1929 64.1728 36.2647 64.3163 36.3125 64.4599 36.3603 64.6114 36.3843 64.7708 36.3843 65.01 36.3843 65.2413 36.3284 65.4566 36.2248 65.6719 36.1132 65.8154 35.9776 65.8951 35.7942L66.9397 36.0573C66.7643 36.3922 66.4852 36.6633 66.0945 36.8707 65.7197 37.0859 65.2572 37.1976 64.723 37.1976ZM65.9669 34.5742C65.935 34.2473 65.8074 33.9842 65.5682 33.7928 65.337 33.5934 65.0499 33.4978 64.715 33.4978 64.5476 33.4978 64.3961 33.5217 64.2525 33.5775 64.109 33.6333 63.9814 33.7051 63.8778 33.8008 63.7661 33.8964 63.6784 34.0081 63.6067 34.1436 63.5349 34.2792 63.495 34.4227 63.4871 34.5822L65.9669 34.5822Z" stroke="#FFFFFF" stroke-width="0.0172233" stroke-miterlimit="45" transform="matrix(1.00503 0 0 1 916 496.011)"/><path d="M70.2727 37.1099 70.2727 31.2252 73.0157 31.2252C73.3107 31.2252 73.5898 31.2811 73.837 31.3927 74.0922 31.5043 74.3075 31.6558 74.4909 31.8392 74.6742 32.0226 74.8178 32.2379 74.9214 32.4691 75.0251 32.7004 75.0729 32.9396 75.0729 33.1788 75.0729 33.426 75.0251 33.6652 74.9294 33.9044 74.8337 34.1357 74.6982 34.3509 74.5227 34.5264 74.3473 34.7098 74.132 34.8533 73.8848 34.9649 73.6377 35.0766 73.3665 35.1324 73.0635 35.1324L71.5326 35.1324 71.5326 37.1019 70.2727 37.1019ZM71.5326 34.1357 72.9918 34.1357C73.223 34.1357 73.4144 34.0479 73.5739 33.8805 73.7254 33.713 73.8051 33.4738 73.8051 33.1868 73.8051 33.0353 73.7812 32.9077 73.7333 32.7881 73.6855 32.6685 73.6217 32.5648 73.542 32.4851 73.4622 32.4054 73.3665 32.3416 73.2629 32.3017 73.1592 32.2618 73.0476 32.2379 72.936 32.2379L71.5326 32.2379 71.5326 34.1357Z" stroke="#FFFFFF" stroke-width="0.0172233" stroke-miterlimit="45" transform="matrix(1.00503 0 0 1 916 496.011)"/><path d="M77.9515 37.1976C77.5607 37.1976 77.2099 37.1338 76.9069 37.0142 76.5959 36.8946 76.3328 36.7271 76.1175 36.5198 75.9022 36.3125 75.7348 36.0733 75.6231 35.8022 75.5115 35.5311 75.4477 35.244 75.4477 34.949 75.4477 34.646 75.5035 34.3589 75.6231 34.0878 75.7348 33.8167 75.9022 33.5775 76.1175 33.3702 76.3328 33.1629 76.5959 32.9954 76.9069 32.8758 77.2179 32.7562 77.5687 32.6924 77.9515 32.6924 78.3422 32.6924 78.685 32.7562 78.996 32.8758 79.299 32.9954 79.5622 33.1629 79.7775 33.3702 79.9927 33.5775 80.1602 33.8167 80.2718 34.0878 80.3835 34.3589 80.4473 34.646 80.4473 34.949 80.4473 35.244 80.3914 35.5311 80.2718 35.8022 80.1602 36.0733 79.9927 36.3125 79.7775 36.5198 79.5622 36.7271 79.307 36.8946 78.996 37.0142 78.685 37.1338 78.3422 37.1976 77.9515 37.1976ZM76.6996 34.949C76.6996 35.1404 76.7315 35.3158 76.7953 35.4753 76.8591 35.6347 76.9468 35.7703 77.0584 35.8819 77.17 36.0015 77.3056 36.0892 77.4571 36.153 77.6086 36.2168 77.776 36.2487 77.9515 36.2487 78.1269 36.2487 78.2943 36.2168 78.4458 36.153 78.5973 36.0892 78.7329 36.0015 78.8445 35.8819 78.9562 35.7623 79.0439 35.6268 79.1077 35.4673 79.1714 35.3078 79.2033 35.1324 79.2033 34.941 79.2033 34.7496 79.1714 34.5822 79.1077 34.4227 79.0439 34.2632 78.9562 34.1277 78.8445 34.0081 78.7329 33.8885 78.5973 33.8008 78.4458 33.737 78.2943 33.6732 78.1269 33.6413 77.9515 33.6413 77.776 33.6413 77.6086 33.6732 77.4571 33.737 77.3056 33.8008 77.17 33.8964 77.0584 34.0081 76.9468 34.1277 76.8591 34.2632 76.7953 34.4227 76.7315 34.5902 76.6996 34.7656 76.6996 34.949Z" stroke="#FFFFFF" stroke-width="0.0172233" stroke-miterlimit="45" transform="matrix(1.00503 0 0 1 916 496.011)"/><path d="M87.0096 32.7721 88.1658 32.7721 86.1724 37.1099 85.1677 37.1099 84.3464 35.2041 83.5331 37.1099 82.5284 37.1099 80.5429 32.7721 81.6912 32.7721 83.1105 36.0653 83.6926 34.654 82.8553 32.7721 83.8361 32.7721 84.3384 34.1038 84.8488 32.7721 85.8295 32.7721 85.0003 34.654 85.5744 36.0653 87.0096 32.7721Z" stroke="#FFFFFF" stroke-width="0.0172233" stroke-miterlimit="45" transform="matrix(1.00503 0 0 1 916 496.011)"/><path d="M90.7733 37.1976C90.3905 37.1976 90.0477 37.1418 89.7367 37.0222 89.4257 36.9026 89.1626 36.7431 88.9473 36.5358 88.732 36.3284 88.5566 36.0972 88.4449 35.8261 88.3253 35.555 88.2695 35.2679 88.2695 34.9729 88.2695 34.6619 88.3253 34.3749 88.4449 34.0958 88.5566 33.8247 88.724 33.5855 88.9473 33.3782 89.1626 33.1708 89.4337 33.0034 89.7446 32.8838 90.0556 32.7642 90.4065 32.7004 90.7972 32.7004 91.1879 32.7004 91.5308 32.7642 91.8418 32.8838 92.1447 33.0034 92.4079 33.1708 92.6232 33.3702 92.8385 33.5775 93.0059 33.8087 93.1176 34.0798 93.2292 34.3509 93.285 34.63 93.285 34.9251 93.285 34.9968 93.285 35.0686 93.277 35.1324 93.277 35.1962 93.269 35.252 93.2531 35.2998L89.5612 35.2998C89.5772 35.4673 89.625 35.6268 89.6968 35.7543 89.7686 35.8899 89.8643 36.0015 89.9759 36.0972 90.0875 36.1929 90.2231 36.2647 90.3666 36.3125 90.5101 36.3603 90.6616 36.3843 90.8211 36.3843 91.0603 36.3843 91.2916 36.3284 91.5068 36.2248 91.7221 36.1132 91.8657 35.9776 91.9454 35.7942L92.99 36.0573C92.8145 36.3922 92.5355 36.6633 92.1447 36.8707 91.77 37.0859 91.3075 37.1976 90.7733 37.1976ZM92.0092 34.5742C91.9773 34.2473 91.8497 33.9842 91.6105 33.7928 91.3793 33.5934 91.0922 33.4978 90.7573 33.4978 90.5899 33.4978 90.4384 33.5217 90.2948 33.5775 90.1513 33.6333 90.0237 33.7051 89.9201 33.8008 89.8164 33.8964 89.7207 34.0081 89.649 34.1436 89.5772 34.2792 89.5373 34.4227 89.5294 34.5822L92.0092 34.5822Z" stroke="#FFFFFF" stroke-width="0.0172233" stroke-miterlimit="45" transform="matrix(1.00503 0 0 1 916 496.011)"/><path d="M96.8572 33.729C96.4904 33.737 96.1555 33.8008 95.8605 33.9204 95.5655 34.0479 95.3582 34.2313 95.2306 34.4785L95.2306 37.1019 94.0106 37.1019 94.0106 32.7721 95.1269 32.7721 95.1269 33.6971C95.2146 33.5456 95.3103 33.418 95.4299 33.2984 95.5416 33.1788 95.6692 33.0751 95.8047 32.9874 95.9403 32.8997 96.0758 32.828 96.2114 32.7881 96.3469 32.7402 96.4825 32.7163 96.6101 32.7163 96.6738 32.7163 96.7297 32.7163 96.7616 32.7163 96.7934 32.7163 96.8253 32.7163 96.8572 32.7243L96.8572 33.729Z" stroke="#FFFFFF" stroke-width="0.0172233" stroke-miterlimit="45" transform="matrix(1.00503 0 0 1 916 496.011)"/><path d="M99.2334 34.1277C99.2334 33.7689 99.3052 33.41 99.4487 33.0672 99.5922 32.7163 99.7996 32.4054 100.071 32.1263 100.342 31.8472 100.677 31.6239 101.075 31.4565 101.466 31.289 101.921 31.2013 102.423 31.2013 103.021 31.2013 103.531 31.3209 103.97 31.5601 104.4 31.7993 104.727 32.1103 104.943 32.4851L103.978 33.0911C103.89 32.9236 103.786 32.7881 103.667 32.6765 103.547 32.5648 103.412 32.4771 103.276 32.4054 103.133 32.3416 102.989 32.2937 102.838 32.2618 102.686 32.2299 102.535 32.214 102.391 32.214 102.072 32.214 101.801 32.2698 101.57 32.3894 101.338 32.509 101.139 32.6525 100.988 32.8439 100.836 33.0273 100.717 33.2426 100.637 33.4738 100.557 33.7051 100.517 33.9443 100.517 34.1755 100.517 34.4387 100.565 34.6858 100.653 34.9251 100.74 35.1643 100.876 35.3796 101.043 35.555 101.211 35.7384 101.41 35.8819 101.641 35.9935 101.873 36.1052 102.128 36.161 102.415 36.161 102.558 36.161 102.71 36.145 102.869 36.1132 103.029 36.0813 103.18 36.0254 103.324 35.9537 103.467 35.8819 103.595 35.7862 103.723 35.6746 103.842 35.563 103.938 35.4274 104.018 35.2679L105.046 35.8102C104.943 36.0334 104.799 36.2248 104.608 36.3922 104.416 36.5597 104.201 36.7032 103.962 36.8228 103.723 36.9424 103.467 37.0301 103.188 37.0859 102.917 37.1497 102.646 37.1737 102.383 37.1737 101.921 37.1737 101.498 37.0859 101.115 36.9105 100.732 36.7351 100.406 36.5039 100.126 36.2168 99.8474 35.9298 99.6321 35.6108 99.4806 35.244 99.3132 34.8772 99.2334 34.5025 99.2334 34.1277Z" stroke="#FFFFFF" stroke-width="0.0172233" stroke-miterlimit="45" transform="matrix(1.00503 0 0 1 916 496.011)"/><path d="M107.957 37.1976C107.566 37.1976 107.215 37.1338 106.912 37.0142 106.601 36.8946 106.338 36.7271 106.123 36.5198 105.907 36.3125 105.74 36.0733 105.628 35.8022 105.517 35.5311 105.453 35.244 105.453 34.949 105.453 34.646 105.509 34.3589 105.628 34.0878 105.74 33.8167 105.907 33.5775 106.123 33.3702 106.338 33.1629 106.601 32.9954 106.912 32.8758 107.223 32.7562 107.574 32.6924 107.957 32.6924 108.347 32.6924 108.69 32.7562 109.001 32.8758 109.304 32.9954 109.567 33.1629 109.783 33.3702 109.998 33.5775 110.165 33.8167 110.277 34.0878 110.389 34.3589 110.452 34.646 110.452 34.949 110.452 35.244 110.397 35.5311 110.277 35.8022 110.165 36.0733 109.998 36.3125 109.783 36.5198 109.567 36.7271 109.312 36.8946 109.001 37.0142 108.698 37.1338 108.347 37.1976 107.957 37.1976ZM106.713 34.949C106.713 35.1404 106.745 35.3158 106.808 35.4753 106.872 35.6347 106.96 35.7703 107.072 35.8819 107.183 36.0015 107.319 36.0892 107.47 36.153 107.622 36.2168 107.789 36.2487 107.965 36.2487 108.14 36.2487 108.308 36.2168 108.459 36.153 108.611 36.0892 108.746 36.0015 108.858 35.8819 108.969 35.7623 109.057 35.6268 109.121 35.4673 109.185 35.3078 109.217 35.1324 109.217 34.941 109.217 34.7496 109.185 34.5822 109.121 34.4227 109.057 34.2632 108.969 34.1277 108.858 34.0081 108.746 33.8885 108.611 33.8008 108.459 33.737 108.308 33.6732 108.14 33.6413 107.965 33.6413 107.789 33.6413 107.622 33.6732 107.47 33.737 107.319 33.8008 107.183 33.8964 107.072 34.0081 106.96 34.1277 106.872 34.2632 106.808 34.4227 106.745 34.5902 106.713 34.7656 106.713 34.949Z" stroke="#FFFFFF" stroke-width="0.0172233" stroke-miterlimit="45" transform="matrix(1.00503 0 0 1 916 496.011)"/><path d="M115.707 37.1099 114.487 37.1099 114.487 34.6779C114.487 34.327 114.423 34.0798 114.288 33.9124 114.152 33.7529 113.969 33.6732 113.73 33.6732 113.61 33.6732 113.483 33.6971 113.355 33.737 113.227 33.7848 113.108 33.8406 112.996 33.9204 112.884 34.0001 112.781 34.0958 112.693 34.2074 112.605 34.3191 112.534 34.4387 112.494 34.5742L112.494 37.1099 111.274 37.1099 111.274 32.7721 112.374 32.7721 112.374 33.5775C112.55 33.2984 112.805 33.0831 113.14 32.9316 113.475 32.7801 113.849 32.7004 114.272 32.7004 114.567 32.7004 114.814 32.7482 114.998 32.8519 115.189 32.9476 115.332 33.0831 115.436 33.2426 115.54 33.4021 115.612 33.5855 115.651 33.7928 115.691 34.0001 115.707 34.2074 115.707 34.4147L115.707 37.1099Z" stroke="#FFFFFF" stroke-width="0.0172233" stroke-miterlimit="45" transform="matrix(1.00503 0 0 1 916 496.011)"/><path d="M121.209 37.1099 119.989 37.1099 119.989 34.6779C119.989 34.327 119.925 34.0798 119.79 33.9124 119.654 33.7529 119.471 33.6732 119.232 33.6732 119.112 33.6732 118.984 33.6971 118.857 33.737 118.729 33.7848 118.61 33.8406 118.498 33.9204 118.386 34.0001 118.283 34.0958 118.195 34.2074 118.107 34.3191 118.036 34.4387 117.996 34.5742L117.996 37.1099 116.776 37.1099 116.776 32.7721 117.876 32.7721 117.876 33.5775C118.051 33.2984 118.307 33.0831 118.642 32.9316 118.976 32.7801 119.351 32.7004 119.774 32.7004 120.069 32.7004 120.316 32.7482 120.499 32.8519 120.691 32.9476 120.834 33.0831 120.938 33.2426 121.042 33.4021 121.113 33.5855 121.153 33.7928 121.193 34.0001 121.209 34.2074 121.209 34.4147L121.209 37.1099Z" stroke="#FFFFFF" stroke-width="0.0172233" stroke-miterlimit="45" transform="matrix(1.00503 0 0 1 916 496.011)"/><path d="M124.486 37.1976C124.104 37.1976 123.761 37.1418 123.45 37.0222 123.139 36.9026 122.876 36.7431 122.66 36.5358 122.445 36.3284 122.27 36.0972 122.158 35.8261 122.038 35.555 121.983 35.2679 121.983 34.9729 121.983 34.6619 122.038 34.3749 122.158 34.0958 122.27 33.8247 122.437 33.5855 122.66 33.3782 122.876 33.1708 123.147 33.0034 123.458 32.8838 123.769 32.7642 124.12 32.7004 124.51 32.7004 124.901 32.7004 125.244 32.7642 125.555 32.8838 125.858 33.0034 126.121 33.1708 126.336 33.3702 126.552 33.5775 126.719 33.8087 126.831 34.0798 126.942 34.3509 126.998 34.63 126.998 34.9251 126.998 34.9968 126.998 35.0686 126.99 35.1324 126.99 35.1962 126.982 35.252 126.966 35.2998L123.274 35.2998C123.29 35.4673 123.338 35.6268 123.41 35.7543 123.482 35.8899 123.577 36.0015 123.689 36.0972 123.801 36.1929 123.936 36.2647 124.08 36.3125 124.223 36.3603 124.375 36.3843 124.534 36.3843 124.773 36.3843 125.005 36.3284 125.22 36.2248 125.435 36.1132 125.579 35.9776 125.658 35.7942L126.703 36.0573C126.528 36.3922 126.249 36.6633 125.858 36.8707 125.483 37.0859 125.021 37.1976 124.486 37.1976ZM125.73 34.5742C125.698 34.2473 125.571 33.9842 125.332 33.7928 125.1 33.5934 124.813 33.4978 124.478 33.4978 124.311 33.4978 124.159 33.5217 124.016 33.5775 123.872 33.6333 123.745 33.7051 123.641 33.8008 123.529 33.8964 123.442 34.0081 123.37 34.1436 123.298 34.2792 123.258 34.4227 123.25 34.5822L125.73 34.5822Z" stroke="#FFFFFF" stroke-width="0.0172233" stroke-miterlimit="45" transform="matrix(1.00503 0 0 1 916 496.011)"/><path d="M127.429 34.941C127.429 34.638 127.484 34.3509 127.604 34.0798 127.716 33.8087 127.883 33.5695 128.106 33.3702 128.322 33.1629 128.593 33.0034 128.896 32.8838 129.207 32.7642 129.558 32.7004 129.94 32.7004 130.459 32.7004 130.905 32.804 131.272 33.0034 131.639 33.2107 131.918 33.4738 132.093 33.8087L130.897 34.1436C130.794 33.9842 130.658 33.8646 130.491 33.7768 130.323 33.6891 130.132 33.6493 129.924 33.6493 129.749 33.6493 129.582 33.6812 129.43 33.7449 129.279 33.8087 129.143 33.8964 129.031 34.0081 128.92 34.1197 128.832 34.2553 128.768 34.4147 128.704 34.5742 128.673 34.7496 128.673 34.941 128.673 35.1324 128.704 35.3078 128.776 35.4673 128.84 35.6268 128.936 35.7623 129.047 35.8819 129.159 36.0015 129.294 36.0892 129.446 36.153 129.597 36.2168 129.757 36.2487 129.932 36.2487 130.148 36.2487 130.355 36.2009 130.538 36.0972 130.722 36.0015 130.849 35.8739 130.929 35.7304L132.125 36.0653C131.958 36.4002 131.695 36.6633 131.312 36.8786 130.937 37.0859 130.483 37.1896 129.956 37.1896 129.566 37.1896 129.215 37.1258 128.912 37.0062 128.601 36.8866 128.338 36.7192 128.122 36.5118 127.907 36.3045 127.732 36.0653 127.62 35.7942 127.492 35.5231 127.429 35.236 127.429 34.941Z" stroke="#FFFFFF" stroke-width="0.0172233" stroke-miterlimit="45" transform="matrix(1.00503 0 0 1 916 496.011)"/><path d="M135.729 36.8866C135.562 36.9504 135.363 37.0222 135.131 37.0859 134.9 37.1497 134.645 37.1816 134.382 37.1816 134.214 37.1816 134.055 37.1657 133.903 37.1258 133.752 37.0859 133.624 37.0222 133.513 36.9424 133.401 36.8547 133.313 36.7431 133.242 36.6075 133.178 36.472 133.138 36.3045 133.138 36.1132L133.138 33.6174 132.508 33.6174 132.508 32.7721 133.138 32.7721 133.138 31.3608 134.358 31.3608 134.358 32.7721 135.363 32.7721 135.363 33.6253 134.358 33.6253 134.358 35.7464C134.358 35.8979 134.406 36.0095 134.493 36.0733 134.581 36.1371 134.693 36.169 134.82 36.169 134.948 36.169 135.075 36.153 135.195 36.1132 135.315 36.0733 135.41 36.0414 135.49 36.0175L135.729 36.8866Z" stroke="#FFFFFF" stroke-width="0.0172233" stroke-miterlimit="45" transform="matrix(1.00503 0 0 1 916 496.011)"/><path d="M136.367 32.1661 136.367 31.0658 137.587 31.0658 137.587 32.1661 136.367 32.1661ZM136.367 37.1099 136.367 32.7721 137.587 32.7721 137.587 37.1099 136.367 37.1099Z" stroke="#FFFFFF" stroke-width="0.0172233" stroke-miterlimit="45" transform="matrix(1.00503 0 0 1 916 496.011)"/><path d="M143.121 37.1099 141.901 37.1099 141.901 34.6779C141.901 34.327 141.837 34.0798 141.702 33.9124 141.566 33.7529 141.383 33.6732 141.143 33.6732 141.024 33.6732 140.896 33.6971 140.769 33.737 140.641 33.7848 140.522 33.8406 140.41 33.9204 140.298 34.0001 140.195 34.0958 140.107 34.2074 140.019 34.3191 139.947 34.4387 139.908 34.5742L139.908 37.1099 138.688 37.1099 138.688 32.7721 139.788 32.7721 139.788 33.5775C139.963 33.2984 140.219 33.0831 140.553 32.9316 140.888 32.7801 141.263 32.7004 141.686 32.7004 141.981 32.7004 142.228 32.7482 142.411 32.8519 142.595 32.9555 142.746 33.0831 142.85 33.2426 142.954 33.4021 143.025 33.5855 143.065 33.7928 143.105 34.0001 143.121 34.2074 143.121 34.4147L143.121 37.1099Z" stroke="#FFFFFF" stroke-width="0.0172233" stroke-miterlimit="45" transform="matrix(1.00503 0 0 1 916 496.011)"/><path d="M146.055 37.1338C145.736 37.1338 145.441 37.078 145.178 36.9584 144.915 36.8388 144.692 36.6873 144.5 36.4799 144.309 36.2806 144.166 36.0414 144.062 35.7783 143.958 35.5151 143.91 35.2281 143.91 34.933 143.91 34.6221 143.966 34.327 144.078 34.0559 144.189 33.7848 144.341 33.5456 144.532 33.3463 144.724 33.1389 144.963 32.9795 145.234 32.8678 145.505 32.7482 145.808 32.6924 146.135 32.6924 146.502 32.6924 146.829 32.7721 147.108 32.9236 147.387 33.0751 147.618 33.2745 147.802 33.5297L147.802 32.7721 148.87 32.7721 148.87 36.9026C148.87 37.2215 148.806 37.5086 148.671 37.7637 148.535 38.0189 148.352 38.2342 148.121 38.4096 147.889 38.585 147.61 38.7206 147.283 38.8163 146.956 38.9119 146.606 38.9598 146.223 38.9598 145.704 38.9598 145.266 38.88 144.907 38.7206 144.548 38.5611 144.245 38.3378 143.99 38.0508L144.652 37.4607C144.835 37.668 145.067 37.8275 145.338 37.9391 145.617 38.0587 145.904 38.1146 146.215 38.1146 146.406 38.1146 146.582 38.0906 146.757 38.0428 146.932 37.995 147.084 37.9232 147.219 37.8195 147.355 37.7239 147.459 37.5963 147.53 37.4368 147.61 37.2853 147.642 37.1019 147.642 36.8866L147.642 36.3603C147.483 36.6075 147.259 36.7989 146.98 36.9344 146.685 37.07 146.382 37.1338 146.055 37.1338ZM146.462 36.2487C146.598 36.2487 146.725 36.2328 146.845 36.1929 146.964 36.153 147.076 36.1052 147.18 36.0334 147.283 35.9696 147.371 35.8899 147.451 35.8022 147.53 35.7145 147.594 35.6188 147.634 35.5231L147.634 34.4865C147.522 34.2313 147.355 34.032 147.116 33.8725 146.885 33.721 146.637 33.6413 146.382 33.6413 146.191 33.6413 146.023 33.6812 145.872 33.7529 145.72 33.8247 145.593 33.9283 145.481 34.0479 145.37 34.1755 145.29 34.3111 145.234 34.4785 145.178 34.638 145.146 34.8055 145.146 34.9729 145.146 35.1483 145.178 35.3158 145.25 35.4673 145.322 35.6188 145.409 35.7543 145.529 35.8739 145.649 35.9935 145.784 36.0813 145.944 36.145 146.103 36.2168 146.279 36.2487 146.462 36.2487Z" stroke="#FFFFFF" stroke-width="0.0172233" stroke-miterlimit="45" transform="matrix(1.00503 0 0 1 916 496.011)"/><path d="M152.267 37.1099 152.267 31.2252 155.01 31.2252C155.305 31.2252 155.584 31.2811 155.831 31.3927 156.086 31.5043 156.302 31.6558 156.485 31.8392 156.668 32.0226 156.812 32.2379 156.916 32.4691 157.019 32.7004 157.067 32.9396 157.067 33.1788 157.067 33.426 157.019 33.6652 156.924 33.9044 156.828 34.1357 156.692 34.3509 156.517 34.5264 156.341 34.7098 156.126 34.8533 155.879 34.9649 155.632 35.0766 155.361 35.1324 155.058 35.1324L153.527 35.1324 153.527 37.1019 152.267 37.1019ZM153.519 34.1357 154.978 34.1357C155.209 34.1357 155.401 34.0479 155.56 33.8805 155.712 33.713 155.791 33.4738 155.791 33.1868 155.791 33.0353 155.767 32.9077 155.72 32.7881 155.672 32.6685 155.608 32.5648 155.528 32.4851 155.448 32.4054 155.353 32.3416 155.249 32.3017 155.145 32.2618 155.034 32.2379 154.922 32.2379L153.519 32.2379 153.519 34.1357Z" stroke="#FFFFFF" stroke-width="0.0172233" stroke-miterlimit="45" transform="matrix(1.00503 0 0 1 916 496.011)"/><path d="M159.954 37.1976C159.571 37.1976 159.228 37.1418 158.917 37.0222 158.606 36.9026 158.343 36.7431 158.128 36.5358 157.912 36.3284 157.737 36.0972 157.625 35.8261 157.506 35.555 157.45 35.2679 157.45 34.9729 157.45 34.6619 157.506 34.3749 157.625 34.0958 157.737 33.8247 157.904 33.5855 158.128 33.3782 158.343 33.1708 158.614 33.0034 158.925 32.8838 159.236 32.7642 159.587 32.7004 159.978 32.7004 160.368 32.7004 160.711 32.7642 161.022 32.8838 161.325 33.0034 161.588 33.1708 161.803 33.3702 162.019 33.5775 162.186 33.8087 162.298 34.0798 162.41 34.3509 162.465 34.63 162.465 34.9251 162.465 34.9968 162.465 35.0686 162.457 35.1324 162.457 35.1962 162.449 35.252 162.433 35.2998L158.742 35.2998C158.758 35.4673 158.805 35.6268 158.877 35.7543 158.949 35.8899 159.045 36.0015 159.156 36.0972 159.268 36.1929 159.403 36.2647 159.547 36.3125 159.69 36.3603 159.842 36.3843 160.001 36.3843 160.241 36.3843 160.472 36.3284 160.687 36.2248 160.902 36.1132 161.046 35.9776 161.126 35.7942L162.17 36.0573C161.995 36.3922 161.716 36.6633 161.325 36.8707 160.95 37.0859 160.488 37.1976 159.954 37.1976ZM161.19 34.5742C161.158 34.2473 161.03 33.9842 160.791 33.7928 160.56 33.5934 160.273 33.4978 159.938 33.4978 159.77 33.4978 159.619 33.5217 159.475 33.5775 159.332 33.6333 159.204 33.7051 159.1 33.8008 158.989 33.8964 158.901 34.0081 158.829 34.1436 158.758 34.2792 158.718 34.4227 158.71 34.5822L161.19 34.5822Z" stroke="#FFFFFF" stroke-width="0.0172233" stroke-miterlimit="45" transform="matrix(1.00503 0 0 1 916 496.011)"/><path d="M165.4 37.1976C165.009 37.1976 164.658 37.1338 164.355 37.0142 164.044 36.8946 163.781 36.7271 163.566 36.5198 163.35 36.3125 163.183 36.0733 163.071 35.8022 162.96 35.5311 162.896 35.244 162.896 34.949 162.896 34.646 162.952 34.3589 163.071 34.0878 163.183 33.8167 163.35 33.5775 163.566 33.3702 163.781 33.1629 164.044 32.9954 164.355 32.8758 164.666 32.7562 165.017 32.6924 165.4 32.6924 165.79 32.6924 166.133 32.7562 166.444 32.8758 166.747 32.9954 167.01 33.1629 167.226 33.3702 167.441 33.5775 167.608 33.8167 167.72 34.0878 167.832 34.3589 167.895 34.646 167.895 34.949 167.895 35.244 167.84 35.5311 167.72 35.8022 167.608 36.0733 167.441 36.3125 167.226 36.5198 167.01 36.7271 166.755 36.8946 166.444 37.0142 166.133 37.1338 165.79 37.1976 165.4 37.1976ZM164.148 34.949C164.148 35.1404 164.18 35.3158 164.243 35.4753 164.307 35.6347 164.395 35.7703 164.507 35.8819 164.618 36.0015 164.754 36.0892 164.905 36.153 165.057 36.2168 165.224 36.2487 165.4 36.2487 165.575 36.2487 165.743 36.2168 165.894 36.153 166.046 36.0892 166.181 36.0015 166.293 35.8819 166.404 35.7623 166.492 35.6268 166.556 35.4673 166.62 35.3078 166.652 35.1324 166.652 34.941 166.652 34.7496 166.62 34.5822 166.556 34.4227 166.492 34.2632 166.404 34.1277 166.293 34.0081 166.181 33.8885 166.046 33.8008 165.894 33.737 165.743 33.6732 165.575 33.6413 165.4 33.6413 165.224 33.6413 165.057 33.6732 164.905 33.737 164.754 33.8008 164.618 33.8964 164.507 34.0081 164.395 34.1277 164.307 34.2632 164.243 34.4227 164.18 34.5902 164.148 34.7656 164.148 34.949Z" stroke="#FFFFFF" stroke-width="0.0172233" stroke-miterlimit="45" transform="matrix(1.00503 0 0 1 916 496.011)"/><path d="M171.571 37.1976C171.197 37.1976 170.87 37.1178 170.591 36.9663 170.311 36.8148 170.096 36.6075 169.937 36.3524L169.937 38.88 168.717 38.88 168.717 32.7721 169.785 32.7721 169.785 33.5217C169.961 33.2665 170.192 33.0672 170.471 32.9236 170.75 32.7801 171.069 32.7004 171.436 32.7004 171.755 32.7004 172.058 32.7562 172.329 32.8758 172.6 32.9954 172.839 33.1549 173.039 33.3542 173.238 33.5536 173.389 33.7928 173.501 34.0639 173.613 34.335 173.668 34.6221 173.668 34.933 173.668 35.244 173.621 35.547 173.517 35.8181 173.413 36.0972 173.27 36.3364 173.086 36.5358 172.903 36.7431 172.68 36.9026 172.425 37.0142 172.153 37.1338 171.874 37.1976 171.571 37.1976ZM171.165 36.2487C171.348 36.2487 171.516 36.2088 171.667 36.1371 171.819 36.0653 171.954 35.9696 172.066 35.85 172.177 35.7304 172.257 35.5869 172.321 35.4274 172.385 35.2679 172.409 35.1005 172.409 34.933 172.409 34.7496 172.377 34.5822 172.305 34.4227 172.241 34.2632 172.145 34.1277 172.026 34.0161 171.906 33.8964 171.771 33.8087 171.603 33.7449 171.444 33.6812 171.268 33.6493 171.077 33.6493 170.965 33.6493 170.846 33.6652 170.718 33.7051 170.599 33.7449 170.487 33.7928 170.383 33.8566 170.28 33.9204 170.184 34.0001 170.104 34.0878 170.024 34.1755 169.961 34.2712 169.921 34.3749L169.921 35.3955C170.032 35.6427 170.2 35.85 170.423 36.0095 170.662 36.169 170.902 36.2487 171.165 36.2487Z" stroke="#FFFFFF" stroke-width="0.0172233" stroke-miterlimit="45" transform="matrix(1.00503 0 0 1 916 496.011)"/><path d="M174.482 31.0658 175.702 31.0658 175.702 35.7224C175.702 35.8819 175.742 36.0095 175.829 36.0972 175.917 36.1849 176.037 36.2328 176.196 36.2328 176.268 36.2328 176.348 36.2248 176.435 36.2009 176.523 36.1769 176.611 36.153 176.683 36.1211L176.85 36.9663C176.683 37.0381 176.491 37.0939 176.276 37.1338 176.061 37.1737 175.861 37.1896 175.686 37.1896 175.303 37.1896 175.008 37.0939 174.801 36.9105 174.593 36.7271 174.49 36.464 174.49 36.1211L174.49 31.0658Z" stroke="#FFFFFF" stroke-width="0.0172233" stroke-miterlimit="45" transform="matrix(1.00503 0 0 1 916 496.011)"/><path d="M179.585 37.1976C179.202 37.1976 178.859 37.1418 178.548 37.0222 178.237 36.9026 177.974 36.7431 177.759 36.5358 177.544 36.3284 177.368 36.0972 177.257 35.8261 177.137 35.555 177.081 35.2679 177.081 34.9729 177.081 34.6619 177.137 34.3749 177.257 34.0958 177.368 33.8247 177.536 33.5855 177.759 33.3782 177.974 33.1708 178.245 33.0034 178.556 32.8838 178.867 32.7642 179.218 32.7004 179.609 32.7004 180 32.7004 180.342 32.7642 180.653 32.8838 180.956 33.0034 181.22 33.1708 181.435 33.3702 181.65 33.5775 181.818 33.8087 181.929 34.0798 182.041 34.3509 182.097 34.63 182.097 34.9251 182.097 34.9968 182.097 35.0686 182.089 35.1324 182.089 35.1962 182.081 35.252 182.065 35.2998L178.373 35.2998C178.389 35.4673 178.437 35.6268 178.509 35.7543 178.58 35.8899 178.676 36.0015 178.788 36.0972 178.899 36.1929 179.035 36.2647 179.178 36.3125 179.322 36.3603 179.473 36.3843 179.633 36.3843 179.872 36.3843 180.103 36.3284 180.319 36.2248 180.534 36.1132 180.677 35.9776 180.757 35.7942L181.802 36.0573C181.626 36.3922 181.347 36.6633 180.956 36.8707 180.582 37.0859 180.119 37.1976 179.585 37.1976ZM180.829 34.5742C180.797 34.2473 180.669 33.9842 180.43 33.7928 180.199 33.5934 179.912 33.4978 179.577 33.4978 179.41 33.4978 179.258 33.5217 179.115 33.5775 178.971 33.6333 178.843 33.7051 178.74 33.8008 178.636 33.8964 178.54 34.0081 178.469 34.1436 178.397 34.2792 178.357 34.4227 178.349 34.5822L180.829 34.5822Z" stroke="#FFFFFF" stroke-width="0.0172233" stroke-miterlimit="45" transform="matrix(1.00503 0 0 1 916 496.011)"/></g></svg>